<mxfile host="Electron" modified="2024-02-10T02:50:15.356Z" agent="Mozilla/5.0 (Windows NT 10.0; Win64; x64) AppleWebKit/537.36 (KHTML, like Gecko) draw.io/23.0.2 Chrome/120.0.6099.109 Electron/28.1.0 Safari/537.36" etag="uTMph2b1Q7N5YYkir_qL" version="23.0.2" type="device">
  <diagram name="Page-1" id="cnczdzIVUWiRcOcskak1">
    <mxGraphModel dx="65" dy="45" grid="1" gridSize="10" guides="1" tooltips="1" connect="1" arrows="1" fold="1" page="1" pageScale="1" pageWidth="850" pageHeight="1100" math="0" shadow="0">
      <root>
        <mxCell id="0" />
        <mxCell id="1" parent="0" />
        <mxCell id="xo0E1xpivbkFc5uJHG_q-25" value="" style="rounded=0;whiteSpace=wrap;html=1;fillColor=#004785;" parent="1" vertex="1">
          <mxGeometry x="40" y="40" width="320" height="520" as="geometry" />
        </mxCell>
        <mxCell id="xo0E1xpivbkFc5uJHG_q-26" value="&lt;h1&gt;&lt;span style=&quot;font-weight: normal;&quot;&gt;&lt;font color=&quot;#ffffff&quot; face=&quot;Helvetica&quot;&gt;University of New Haven&lt;/font&gt;&lt;/span&gt;&lt;/h1&gt;" style="text;html=1;strokeColor=none;fillColor=none;align=center;verticalAlign=middle;whiteSpace=wrap;rounded=0;" parent="1" vertex="1">
          <mxGeometry x="45.629999999999995" y="90" width="305" height="30" as="geometry" />
        </mxCell>
        <mxCell id="xo0E1xpivbkFc5uJHG_q-27" value="&lt;font color=&quot;#ffffff&quot; style=&quot;font-size: 14px;&quot;&gt;Sign in with your university account&lt;/font&gt;" style="text;html=1;strokeColor=none;fillColor=none;align=center;verticalAlign=middle;whiteSpace=wrap;rounded=0;" parent="1" vertex="1">
          <mxGeometry x="64.38" y="150" width="267.5" height="30" as="geometry" />
        </mxCell>
        <mxCell id="xo0E1xpivbkFc5uJHG_q-28" value="" style="rounded=1;whiteSpace=wrap;html=1;" parent="1" vertex="1">
          <mxGeometry x="62.5" y="260" width="271.25" height="50" as="geometry" />
        </mxCell>
        <mxCell id="xo0E1xpivbkFc5uJHG_q-29" value="" style="rounded=1;whiteSpace=wrap;html=1;" parent="1" vertex="1">
          <mxGeometry x="62.5" y="200" width="271.25" height="50" as="geometry" />
        </mxCell>
        <mxCell id="xo0E1xpivbkFc5uJHG_q-30" value="&lt;font style=&quot;font-size: 14px;&quot; color=&quot;#b8b8b8&quot;&gt;Username&lt;/font&gt;" style="text;html=1;strokeColor=none;fillColor=none;align=left;verticalAlign=middle;whiteSpace=wrap;rounded=0;" parent="1" vertex="1">
          <mxGeometry x="74.38" y="210" width="90" height="30" as="geometry" />
        </mxCell>
        <mxCell id="xo0E1xpivbkFc5uJHG_q-31" value="&lt;font color=&quot;#b8b8b8&quot;&gt;&lt;span style=&quot;font-size: 14px;&quot;&gt;Password&lt;/span&gt;&lt;/font&gt;" style="text;html=1;strokeColor=none;fillColor=none;align=left;verticalAlign=middle;whiteSpace=wrap;rounded=0;" parent="1" vertex="1">
          <mxGeometry x="74.38" y="270" width="90" height="30" as="geometry" />
        </mxCell>
        <mxCell id="xo0E1xpivbkFc5uJHG_q-32" value="&lt;font color=&quot;#ffffff&quot; style=&quot;font-size: 14px;&quot;&gt;Sign In&lt;/font&gt;" style="rounded=1;whiteSpace=wrap;html=1;fillColor=#000000;" parent="1" vertex="1">
          <mxGeometry x="64.38" y="330" width="271.25" height="50" as="geometry" />
        </mxCell>
        <mxCell id="xo0E1xpivbkFc5uJHG_q-33" value="&lt;font color=&quot;#ffffff&quot; style=&quot;font-size: 13px;&quot;&gt;&lt;u&gt;To Change your password or for help with login issues please click here&lt;/u&gt;&lt;/font&gt;" style="text;html=1;strokeColor=none;fillColor=none;align=center;verticalAlign=middle;whiteSpace=wrap;rounded=0;" parent="1" vertex="1">
          <mxGeometry x="64.38" y="420" width="273.12" height="30" as="geometry" />
        </mxCell>
        <mxCell id="xo0E1xpivbkFc5uJHG_q-34" value="" style="rounded=0;whiteSpace=wrap;html=1;fillColor=#FFFFFF;" parent="1" vertex="1">
          <mxGeometry x="400" y="40" width="320" height="500" as="geometry" />
        </mxCell>
        <mxCell id="xo0E1xpivbkFc5uJHG_q-35" value="" style="rounded=0;whiteSpace=wrap;html=1;fillColor=#004785;" parent="1" vertex="1">
          <mxGeometry x="400" y="40" width="320" height="64.5" as="geometry" />
        </mxCell>
        <mxCell id="xo0E1xpivbkFc5uJHG_q-44" value="" style="rounded=0;whiteSpace=wrap;html=1;fillColor=#000000;" parent="1" vertex="1">
          <mxGeometry x="400" y="100" width="320" height="460" as="geometry" />
        </mxCell>
        <mxCell id="xo0E1xpivbkFc5uJHG_q-46" value="&lt;h2&gt;&lt;font color=&quot;#ffffff&quot;&gt;&lt;b&gt;Courses&lt;/b&gt;&lt;/font&gt;&lt;/h2&gt;" style="text;html=1;strokeColor=none;fillColor=none;align=center;verticalAlign=middle;whiteSpace=wrap;rounded=0;" parent="1" vertex="1">
          <mxGeometry x="400" y="110" width="100" height="30" as="geometry" />
        </mxCell>
        <mxCell id="xo0E1xpivbkFc5uJHG_q-48" value="&lt;h3&gt;&lt;font color=&quot;#66b2ff&quot;&gt;All Courses&lt;/font&gt;&lt;/h3&gt;" style="rounded=1;whiteSpace=wrap;html=1;fillColor=#757575;" parent="1" vertex="1">
          <mxGeometry x="610" y="110" width="95" height="30" as="geometry" />
        </mxCell>
        <mxCell id="xo0E1xpivbkFc5uJHG_q-51" value="" style="rounded=0;whiteSpace=wrap;html=1;" parent="1" vertex="1">
          <mxGeometry x="410" y="150" width="140" height="130" as="geometry" />
        </mxCell>
        <mxCell id="xo0E1xpivbkFc5uJHG_q-52" value="" style="rounded=0;whiteSpace=wrap;html=1;" parent="1" vertex="1">
          <mxGeometry x="565" y="150" width="140" height="130" as="geometry" />
        </mxCell>
        <mxCell id="xo0E1xpivbkFc5uJHG_q-53" value="" style="rounded=0;whiteSpace=wrap;html=1;" parent="1" vertex="1">
          <mxGeometry x="410" y="220" width="140" height="60" as="geometry" />
        </mxCell>
        <mxCell id="xo0E1xpivbkFc5uJHG_q-54" value="" style="rounded=0;whiteSpace=wrap;html=1;fillColor=#FF3333;" parent="1" vertex="1">
          <mxGeometry x="410" y="150" width="140" height="70" as="geometry" />
        </mxCell>
        <mxCell id="xo0E1xpivbkFc5uJHG_q-55" value="&lt;font color=&quot;#ff3333&quot;&gt;N/A&lt;/font&gt;" style="rounded=1;whiteSpace=wrap;html=1;glass=0;fillColor=#000000;" parent="1" vertex="1">
          <mxGeometry x="420" y="160" width="40" height="20" as="geometry" />
        </mxCell>
        <mxCell id="xo0E1xpivbkFc5uJHG_q-62" value="&lt;h2&gt;&lt;font color=&quot;#ff3333&quot;&gt;Lorem- Ipsum&lt;/font&gt;&lt;/h2&gt;" style="text;html=1;strokeColor=none;fillColor=none;align=center;verticalAlign=middle;whiteSpace=wrap;rounded=0;" parent="1" vertex="1">
          <mxGeometry x="410" y="220" width="130" height="30" as="geometry" />
        </mxCell>
        <mxCell id="xo0E1xpivbkFc5uJHG_q-63" value="&lt;font style=&quot;font-size: 10px;&quot;&gt;Lorem ipsum dolor sit amet&lt;/font&gt;" style="text;html=1;strokeColor=none;fillColor=none;align=center;verticalAlign=middle;whiteSpace=wrap;rounded=0;" parent="1" vertex="1">
          <mxGeometry x="410" y="250" width="140" height="30" as="geometry" />
        </mxCell>
        <mxCell id="xo0E1xpivbkFc5uJHG_q-69" value="" style="rounded=0;whiteSpace=wrap;html=1;fillColor=#009900;" parent="1" vertex="1">
          <mxGeometry x="565" y="150" width="140" height="70" as="geometry" />
        </mxCell>
        <mxCell id="xo0E1xpivbkFc5uJHG_q-74" value="&lt;font color=&quot;#009900&quot;&gt;N/A&lt;/font&gt;" style="rounded=1;whiteSpace=wrap;html=1;glass=0;fillColor=#000000;" parent="1" vertex="1">
          <mxGeometry x="570" y="160" width="40" height="20" as="geometry" />
        </mxCell>
        <mxCell id="xo0E1xpivbkFc5uJHG_q-75" value="&lt;h2&gt;&lt;font color=&quot;#009900&quot;&gt;Lorem- Ipsum&lt;/font&gt;&lt;/h2&gt;" style="text;html=1;strokeColor=none;fillColor=none;align=center;verticalAlign=middle;whiteSpace=wrap;rounded=0;" parent="1" vertex="1">
          <mxGeometry x="565" y="220" width="130" height="30" as="geometry" />
        </mxCell>
        <mxCell id="xo0E1xpivbkFc5uJHG_q-76" value="&lt;font style=&quot;font-size: 10px;&quot;&gt;Lorem ipsum dolor sit amet&lt;/font&gt;" style="text;html=1;strokeColor=none;fillColor=none;align=center;verticalAlign=middle;whiteSpace=wrap;rounded=0;" parent="1" vertex="1">
          <mxGeometry x="565" y="250" width="135" height="30" as="geometry" />
        </mxCell>
        <mxCell id="xo0E1xpivbkFc5uJHG_q-77" value="" style="rounded=0;whiteSpace=wrap;html=1;" parent="1" vertex="1">
          <mxGeometry x="410" y="290" width="140" height="130" as="geometry" />
        </mxCell>
        <mxCell id="xo0E1xpivbkFc5uJHG_q-78" value="" style="rounded=0;whiteSpace=wrap;html=1;" parent="1" vertex="1">
          <mxGeometry x="565" y="290" width="140" height="130" as="geometry" />
        </mxCell>
        <mxCell id="xo0E1xpivbkFc5uJHG_q-79" value="" style="rounded=0;whiteSpace=wrap;html=1;" parent="1" vertex="1">
          <mxGeometry x="410" y="360" width="140" height="60" as="geometry" />
        </mxCell>
        <mxCell id="xo0E1xpivbkFc5uJHG_q-80" value="" style="rounded=0;whiteSpace=wrap;html=1;fillColor=#CC00CC;" parent="1" vertex="1">
          <mxGeometry x="410" y="290" width="140" height="70" as="geometry" />
        </mxCell>
        <mxCell id="xo0E1xpivbkFc5uJHG_q-81" value="&lt;font color=&quot;#ff33ff&quot;&gt;N/A&lt;/font&gt;" style="rounded=1;whiteSpace=wrap;html=1;glass=0;fillColor=#000000;" parent="1" vertex="1">
          <mxGeometry x="420" y="300" width="40" height="20" as="geometry" />
        </mxCell>
        <mxCell id="xo0E1xpivbkFc5uJHG_q-82" value="&lt;h2&gt;&lt;font color=&quot;#cc00cc&quot;&gt;Lorem- Ipsum&lt;/font&gt;&lt;/h2&gt;" style="text;html=1;strokeColor=none;fillColor=none;align=center;verticalAlign=middle;whiteSpace=wrap;rounded=0;" parent="1" vertex="1">
          <mxGeometry x="410" y="360" width="130" height="30" as="geometry" />
        </mxCell>
        <mxCell id="xo0E1xpivbkFc5uJHG_q-83" value="&lt;font style=&quot;font-size: 10px;&quot;&gt;Lorem ipsum dolor sit amet&lt;/font&gt;" style="text;html=1;strokeColor=none;fillColor=none;align=center;verticalAlign=middle;whiteSpace=wrap;rounded=0;" parent="1" vertex="1">
          <mxGeometry x="410" y="390" width="140" height="30" as="geometry" />
        </mxCell>
        <mxCell id="xo0E1xpivbkFc5uJHG_q-84" value="" style="rounded=0;whiteSpace=wrap;html=1;fillColor=#00CCCC;" parent="1" vertex="1">
          <mxGeometry x="565" y="290" width="140" height="70" as="geometry" />
        </mxCell>
        <mxCell id="xo0E1xpivbkFc5uJHG_q-85" value="&lt;font color=&quot;#00cccc&quot;&gt;N/A&lt;/font&gt;" style="rounded=1;whiteSpace=wrap;html=1;glass=0;fillColor=#000000;" parent="1" vertex="1">
          <mxGeometry x="570" y="300" width="40" height="20" as="geometry" />
        </mxCell>
        <mxCell id="xo0E1xpivbkFc5uJHG_q-86" value="&lt;h2&gt;&lt;font color=&quot;#00cccc&quot;&gt;Lorem- Ipsum&lt;/font&gt;&lt;/h2&gt;" style="text;html=1;strokeColor=none;fillColor=none;align=center;verticalAlign=middle;whiteSpace=wrap;rounded=0;" parent="1" vertex="1">
          <mxGeometry x="565" y="360" width="130" height="30" as="geometry" />
        </mxCell>
        <mxCell id="xo0E1xpivbkFc5uJHG_q-87" value="&lt;font style=&quot;font-size: 10px;&quot;&gt;Lorem ipsum dolor sit amet&lt;/font&gt;" style="text;html=1;strokeColor=none;fillColor=none;align=center;verticalAlign=middle;whiteSpace=wrap;rounded=0;" parent="1" vertex="1">
          <mxGeometry x="565" y="390" width="135" height="30" as="geometry" />
        </mxCell>
        <mxCell id="xo0E1xpivbkFc5uJHG_q-102" value="" style="shape=image;verticalLabelPosition=bottom;verticalAlign=top;imageAspect=0;aspect=fixed;image=data:image/jpeg,/9j/4AAQSkZJRgABAQEAYABgAAD/2wBDAAMCAgMCAgMDAwMEAwMEBQgFBQQEBQoHBwYIDAoMDAsKCwsNDhIQDQ4RDgsLEBYQERMUFRUVDA8XGBYUGBIUFRT/2wBDAQMEBAUEBQkFBQkUDQsNFBQUFBQUFBQUFBQUFBQUFBQUFBQUFBQUFBQUFBQUFBQUFBQUFBQUFBQUFBQUFBQUFBT/wAARCAAfACkDASIAAhEBAxEB/8QAHwAAAQUBAQEBAQEAAAAAAAAAAAECAwQFBgcICQoL/8QAtRAAAgEDAwIEAwUFBAQAAAF9AQIDAAQRBRIhMUEGE1FhByJxFDKBkaEII0KxwRVS0fAkM2JyggkKFhcYGRolJicoKSo0NTY3ODk6Q0RFRkdISUpTVFVWV1hZWmNkZWZnaGlqc3R1dnd4eXqDhIWGh4iJipKTlJWWl5iZmqKjpKWmp6ipqrKztLW2t7i5usLDxMXGx8jJytLT1NXW19jZ2uHi4+Tl5ufo6erx8vP09fb3+Pn6/8QAHwEAAwEBAQEBAQEBAQAAAAAAAAECAwQFBgcICQoL/8QAtREAAgECBAQDBAcFBAQAAQJ3AAECAxEEBSExBhJBUQdhcRMiMoEIFEKRobHBCSMzUvAVYnLRChYkNOEl8RcYGRomJygpKjU2Nzg5OkNERUZHSElKU1RVVldYWVpjZGVmZ2hpanN0dXZ3eHl6goOEhYaHiImKkpOUlZaXmJmaoqOkpaanqKmqsrO0tba3uLm6wsPExcbHyMnK0tPU1dbX2Nna4uPk5ebn6Onq8vP09fb3+Pn6/9oADAMBAAIRAxEAPwDV+Buh/sjXXwj8MyePrrTIfGMlnnUllvb1JBIWYfdRto4GeK9Abw3+wnuO6/0cHPIW/v8AH/oVfOnww/4J6/EH4sfD/Q/Fuk6t4ft9O1eH7RBHdzSh1B3D5gIzz8p7nrXWH/glf8VSSRrnhfHb/SZ//jVfWVI0OeXNiGj5eLq8q5aFz17/AIRr9hL/AKCGkf8Agff/APxVB8M/sJ9r/SP/AAYX/wD8VXkH/Dq34rf9B3wv/wCBE/8A8app/wCCV/xV/wCg54W/8CJv/jVSlhv+gllN4i2lBHf/ABF8P/sWweA/EZ8Oahpf/CQDTLo6cqX98Wa58pvKADNgndt61+dPm6h/zxk/78rX2H4s/wCCbXxO8FeFdZ1+71vw49rpVnLfTLBcTGRkiQyEKPK64WvkT7TB/wA8Jfyb/wCNV6WDVLkdq7ZwYn2vMr0kj1bwx+0r8V/COg2Wi6F451jTdJsozFb29sR5cCZPAwvqTx2ya1f+GwPjg3J+I3iAE9vMHH/jlfQvwN/4KIeFvhP8JfDHhK/8Dahqt1pFp5Ml0txEFkO7kgEZ7jr6Cu+/4er+D/4fhxqZXsftMHT8q5p1JczSw6ZtGMeVc1do+PP+Gvvjf/0UfxB/38X/AOIo/wCGvPjd/wBFH1//AL+L/wDEV9h/8PWPCH/RN9T/APAmD/Ck/wCHq3hD/omuqf8AgXB/hWfPV6YZFclN/wDL9s+L9Y/ao+MGvaTfaZqXj/W7rT7yCS3uYHddrwuu1w2UzjaTXlPnD/nlF/38X/Cv0D+Iv/BTDwn4y8B+JNAi8A6lZ3WraZc2ccslzCRGZImRW+Udic1+f/2Yf8/Lf98Cu2hKfLrQSOStT97+Jc//2Q==" parent="1" vertex="1">
          <mxGeometry x="410" y="64" width="27.78" height="21" as="geometry" />
        </mxCell>
        <mxCell id="xo0E1xpivbkFc5uJHG_q-104" value="" style="shape=image;verticalLabelPosition=bottom;verticalAlign=top;imageAspect=0;aspect=fixed;image=data:image/jpeg,/9j/4AAQSkZJRgABAQEAYABgAAD/2wBDAAMCAgMCAgMDAwMEAwMEBQgFBQQEBQoHBwYIDAoMDAsKCwsNDhIQDQ4RDgsLEBYQERMUFRUVDA8XGBYUGBIUFRT/2wBDAQMEBAUEBQkFBQkUDQsNFBQUFBQUFBQUFBQUFBQUFBQUFBQUFBQUFBQUFBQUFBQUFBQUFBQUFBQUFBQUFBQUFBT/wAARCABSAFEDASIAAhEBAxEB/8QAHwAAAQUBAQEBAQEAAAAAAAAAAAECAwQFBgcICQoL/8QAtRAAAgEDAwIEAwUFBAQAAAF9AQIDAAQRBRIhMUEGE1FhByJxFDKBkaEII0KxwRVS0fAkM2JyggkKFhcYGRolJicoKSo0NTY3ODk6Q0RFRkdISUpTVFVWV1hZWmNkZWZnaGlqc3R1dnd4eXqDhIWGh4iJipKTlJWWl5iZmqKjpKWmp6ipqrKztLW2t7i5usLDxMXGx8jJytLT1NXW19jZ2uHi4+Tl5ufo6erx8vP09fb3+Pn6/8QAHwEAAwEBAQEBAQEBAQAAAAAAAAECAwQFBgcICQoL/8QAtREAAgECBAQDBAcFBAQAAQJ3AAECAxEEBSExBhJBUQdhcRMiMoEIFEKRobHBCSMzUvAVYnLRChYkNOEl8RcYGRomJygpKjU2Nzg5OkNERUZHSElKU1RVVldYWVpjZGVmZ2hpanN0dXZ3eHl6goOEhYaHiImKkpOUlZaXmJmaoqOkpaanqKmqsrO0tba3uLm6wsPExcbHyMnK0tPU1dbX2Nna4uPk5ebn6Onq8vP09fb3+Pn6/9oADAMBAAIRAxEAPwD9S1hUgDFI0IXoo/KnxtxWfrWu2+g2D3d24SJfzJ9AO9c1fEQoU5VasrRWrZMKXO1CC1ZakaGFSZGVMd24FcfrHxI0jTSVhl+2y9lhU7f++sYP4V5F46+K2pa5qc2l6dAtzdRRNcPbGXyLe1gGT591M+BFHgDr8x5wpwccdJp2mfavCp8Tz6p4utfE93bW9i+lbrPQsyy7WR3Q+c7CMF1aXAfAAAzXyMMdm2da5ZFU6X/PySvf0R6kqOEwXu4iXvdlr956zrH7RVho8jJcTaXYledt5eopwemfm4qnpv7Smmag+IdS0G95+7bX8bHnoOGOTVT4x+HNL+GOh6DJ4Z0ix8LafPqPlanrWn6LHczWkIhlZGCmNt2ZEjU5U/e4xmuX0aTxb8SfGHhDTtT8O6dbacPDtjqHiCG70m1cJcO753Cb58FU6ISyFhkHpXcuH8ydPnWPmn6KxySzGhGfso0I/jc9r0/4uaTcKhuYJbYOcBwA6fgVJz+VdlZ3trqEAltpY5Iz0ZWBB/Gvmb4waH8O/ht4o0TTNOvNR8HahqyTzvdaS5lsrVI42cS3FuxK7G2MqhApJBqxZ+KfEfwv1a1i8QJDaxXTqlrq9rv+wXjMu5UdXGYJCCPkcjPZjXHOtnWUpSxS9tS/mWkku7XU6IxwOLfJT92fnt/wD6bSJW6gH8Kd5SdMVzvhfxhF4isWddsVzHxLA3BXtk+3fPPFdGzHt1r6fB4yljqMa+HleL/rU4alD2UnTmtSt9j/AOmj/p/hRVjbRXqcz7nH7KHYY0iwx7nYBQMnNfOPxQ8c6h4l1y00nR9h1C8aSOwaU5it44wDLdScjKqM/LxklADzXrvxJ1h9O8NgKdstwwhGO3qa+Xbu+8bWPh3VfHHgqwubu8ubmWwWXT4Ibu4tbC3zHEvkScmKW5WV3KBnKRrt7EfDYyjPO80hlXNajC0pr+a/wq/Z9T2qdSOBwf1tfE9I+Xdm34J8ReF9VtdK0jwXDa+NtKuEE3ijw3qtvC99fxu6FdSLNlGZSY28pm+VHACxsoFeheE/DKzeGD4R0CO38S+H9P1Iy2Opa4mbXT1jmV4beIBi1wYGA2MCi7Qo3lgc5Pw98C23iDVLR47Cx0afUtPW61I6G80VrDZysGSG3hdUML3LIzyEKGCp1BII6/4laTqy+JtKi0Pw6txp9vp7xySszxwWuJE2eSsaPiQKJBhQOGANfoSVOm1SpK0V07HziUqi9pN3b69zqJvh7dXyiTWPFetXTqvzR2My2EQ4zwIgG688uar2fgO1uALrQ/FutoBwsqaiL2LcOh2zCRc/QdAfWvF/2hv2kNW8MfD25htNLlsJtVJ0uxu7EpejzpMKXcDBiWMk7gUL542r1rhfFX7SHiX4A+IrRJ5X1jwjr+9jqmqeGp9LfT7lY1G1E2oJlYRhlUYJP8WOa0pYSrUjo9xVMVTpzd09PI9q+I3w5TU7i0vfGGmQ65a2t3b6h/bemwFJVNuXMS3NvljJEDI+fKPOfu143dSQfCPQ7/WfiFfLr/iTxjdPbm1kuB/Z1/AVVpLomIsfsyRgGIeWJUPygMWUn1z4C/E/x38TV03Vb2OG30ieW4aY/wBntFE9sI/3MyTFhudn6gBgAj842sdb4g/DHSLrd4f1BprTwh4in+yuunt5MlpcO6tsRwMxxTbNjqvVsYI301Lkk6NbVdUJw9olVpde+h5v4N1qfwjqmlx2V1dXug6pb/b/AA7qF3G0UtzahFL286uFIdAwYHHzoQRjBr6k0PVItY023vITlJF3V8+fEDS/h7beHJ/AXgzUdNTxxYynVNPsLadrm7N5Apc+eRubcyI8ZaQg4baCOK7X4F+LRrWlQC3bNrd26XkG7qqkAlfwBr8zdJZJnKp0dKOIu7dFJb29T6iEvrmFalrOnrfy/wCAeu0VF5rf3aK+v9tDzPI908h+P2pNp2m+YrYW1tJ7rH+6uRXg03g2OO+8L6fD47uvBGq6lpFjpUMOq6afs1/m0MZ+zXSMMuPtMzCNmOHbO3AAr3P9oPT2v9NljUE/abC4hVe+SnAry3R9Y0Hw3qHhTxPf6T8P7EahBp8w1rXdTkk1Vt0ce/ybfyWEbhlOArheM5rwOHW3m2Yv7ScF8rHXmmuFwyW2v6Hufg/7TH4P8Q63pln/AGhqV9eXc0Fu7eV5/kEwQRs3RcpBGMnI5PHJrz6T9pa+trLRpNQ0/QLCfVIJZorE6ndvcp5TBJlZUsyQ0cnyOOoI9K9V+FqCHwetkWDS2N3d2r555S5kAB98AEH3FeA/tQ+GfEnhPVNG1TwnDazWuraq1xc29yFK2twLScTyIG4Ky2/mlxjl41bq1fc4ZQqV/ZT6nkYhyjSU4HIfGbxtZfFqzhjS80Lwtqls8dxBrlq2pTXtvMjBldALeIEjaR8+78+azV8YtJ4ntdb8QeKdA8draxLGlnrtjfpFbg7xM8ASDajsj43NG2BwMDiunv8A4N2v9gR3aW9neXP9n2V/CkOlWsQb7RuGzHljeVKDpj/WrnbjnldL8C6BrFm1zdNa3niNBcO1lptvbw/ZwlybeNjbLEwKOELH72CRzhgR7UPY+zUY9GeRUjW9pbuep+BfjrpWlpY+HfDWgeGrSO8uGNvbW99fxrLKfnfBNgMMBhiWIwAG9K9P0fxFf/Fr4S6vfXOlw6RPc+eNP8i6a5WTyzmC5VjGhAMgV1+X7qqe+B4LoXgPXLj43r4It5bSLwhbWFyt20Noltcusi2U1xHmNf8AloHhTdljt3gHkY+sdaktPDfhq/vCBHa2FpJJtwMRxohJA9sA4+vpxXjYqMYWcN2enheecWpdD5X8T+NfCHg/4xaLr+vXniTSn1iys73T7XQRbxWc0czoxWaKEi4nJmzksrfePbiu1+Av/El8QXGlIcx2Oqahpyr6Ik820fgoUVhyaP420/XtDm8Pw6ClrZabp9hqF9plhDe67asIowUmWaRAqHIxjLhTkqa3PghjVvGF/fIRJFda1qlyjD+JfOkRWH125/GvieLoqUMHy7+0jt87nsZM+apXXTkf6H0ftFFJtNFevzy7GPKjhfilpRvPD6XQHzWpEp/3cYI/Kvlmx8Fi+v7JPM1efVPCdzJHZabo8NrHugk3y213NczKfJVI/MhVzyhiYLtPX7cnsYry3MMq743VlZT0INfK3xU8Df2NrBuJNKj1yBFEV7pMg+TVrDcHaEnjLLIodcnG7K4IY5+cr4h5HnMcfa1OsuSb7Po38na56KovMMGsPHWcNUvLqd/8G/iNBrd5LdiJbew1u6lgiZZxPCb+3GydY5QqrKkiRrIjgDcUlzjCg3v2iNR0fSbHwfea/dQ2eiR6tL9rlnYBBEdPvA2ScdQccetJpuq6Z4q8J6rJPJodv8NGgtToU2kl0uIGUfOGVRtR0lChFTBBGCM8VO2uWl1odlb+MrS08SeHXCzWmvSWq3FvIuMBrhCp8qTaWBb/AFeOSVyVH3UZLnVaK/4byPAtzwcE/wDh0eBeEfiF4U8bpBpejS6TrF1a28ckqr5IkhCoqMqZt2XLZyBnkkZzUmjTXHw68EpDrGmPYW9rfXEskep28DrvklZ0bYIc5ZCQWV93UAKNoHsXjb4QeD9d0W21/wAIeHfDmoX+ls8sdraWkDQ38DKRNbkoCMun3W6q6qemQcn4c/Cfwbr95N4ru/B9npOgwo9tpVlrViFmeMsDPd3XnAuzuy7VEhyETIPz16v1qKV1DqcnsaqkuZ6mL8DPH3h7xp8WrcaNf293cJp17JPHDGiOiFNNjQEIAEAMUoHfA616p8XfFVjBYR6VdXMdtZMgv9XnYkx2+nxkFyxUE/vGwi8cgv6VWg1PQ9Lnuz8PPDulXOolTFJqttbLBYwKBkiWdF/eAHB2R7mPQ7R81RaXcT23hKLV/C32LxRc32or/bOpawzWpkgWRlnYZU48tVISNsKAvJ5JPmVKilNTeh10/wB3Bx5tT5qbVPAfia+1HxzokNyvjLSbo6iLmFXkttTlnmcwi3u0VAQ0ksKHeOI48bRgmvoj9n/wn/YWn26KxdLC1S0En9+Q/fb6k8/UmvM7e1sfG3i/zfC9h9i8JWl60umW0JYR3l667HvFjztjRQHVCoA5Z+4x9O+F9Bj8PaPBZR9Y0yzerHvXwWNrrOs2p0aDtTw92/NtW/A97C0v7Pwbc/jqafLqbNFLsFFfY8qOYVfur9K57xL4YtPEdiLeZdkuN8cvdG+v+fXrzW8rHaCP5GneWvH3h+FceKwtLF05Ua0eaL0sTSnKm4zg7NdT5T8WeB9a8E6tc3GnhI47u4W5u9PmmaG0vZlYMkscoBMEwIzvAw3Rww4rOtvG9xDqF7daLqieHfFc0xcaPrLi3ku0VjL5InZzDNyghXawwkjv95q+sr7SLXUrdobmMzRkYww6fjXm/iT4JWOsWclvBIJLeTG+3voBMjYORnIyeeevWvlqMM3yJctBKvQW0X8UfJPqd1aOFxz9pP8Adz8tmea61fX9pd3j634D013juIYIdcit2g86GSVozIfLYYI8qRzgjiSPGN1aFrop1O+maw8MaVFNb6ktlML2yuL6WKFpJVDjzSEU5SKTK7/lcDptzGv7Ps2jZj0qO50yI5zHpGpz2ac9TsjkVf0/kMPb4B6nqSGO/k1a8jbqmoa7czg8FRkNKc8Ejn1NdkuKnypvB1E+1r/ic0cqnv7eKXmYnirxRLa2c1n4p1uOx1O5iDRaXYOL2T5owjWy2MJyVO+Q+Yz7QwiYEEnEdxBrnxMaSxk06bQ/D95IJZ9HiYG61SUIq77xlxGgO0ExRkhjncW6V6N4X/Z/sfD0WyAW2lwnBaLT4QhYjPJOOT8x5PrXqOi+FdN0C38u0g2kjDyMMu/1PeuStWzrOo+zUfq9J7t6za7eR2U6WDwb5nL2svTRHP8AgX4f2/hu3WWZUa82bFCABY14+VQOgwAMdscYrtNvP4U/ao6Aj8Kbu9jn6GvocDgaOX0VSox/4PqcVerOvLnkSbaKg+1H0/UUV6nLI5faIlVF8v7o/KnbV/uj8qKKchw2Dav90flVdfvH60UVy1d0ORISaVfvGiijqMZNGqoQFAH0qbav90flRRWsdzOG7Dav90flTfLX+6PyoorWJt0ZS8xv7x/OiiitTlP/2Q==" parent="1" vertex="1">
          <mxGeometry x="537.72" y="49.38" width="44.57" height="45.12" as="geometry" />
        </mxCell>
        <mxCell id="tdJTRMH0b5g0XQA7_NEg-1" value="" style="shape=image;verticalLabelPosition=bottom;verticalAlign=top;imageAspect=0;image=data:image/jpeg,/9j/4AAQSkZJRgABAQEAYABgAAD/2wBDAAMCAgMCAgMDAwMEAwMEBQgFBQQEBQoHBwYIDAoMDAsKCwsNDhIQDQ4RDgsLEBYQERMUFRUVDA8XGBYUGBIUFRT/2wBDAQMEBAUEBQkFBQkUDQsNFBQUFBQUFBQUFBQUFBQUFBQUFBQUFBQUFBQUFBQUFBQUFBQUFBQUFBQUFBQUFBQUFBT/wAARCAApACgDASIAAhEBAxEB/8QAHwAAAQUBAQEBAQEAAAAAAAAAAAECAwQFBgcICQoL/8QAtRAAAgEDAwIEAwUFBAQAAAF9AQIDAAQRBRIhMUEGE1FhByJxFDKBkaEII0KxwRVS0fAkM2JyggkKFhcYGRolJicoKSo0NTY3ODk6Q0RFRkdISUpTVFVWV1hZWmNkZWZnaGlqc3R1dnd4eXqDhIWGh4iJipKTlJWWl5iZmqKjpKWmp6ipqrKztLW2t7i5usLDxMXGx8jJytLT1NXW19jZ2uHi4+Tl5ufo6erx8vP09fb3+Pn6/8QAHwEAAwEBAQEBAQEBAQAAAAAAAAECAwQFBgcICQoL/8QAtREAAgECBAQDBAcFBAQAAQJ3AAECAxEEBSExBhJBUQdhcRMiMoEIFEKRobHBCSMzUvAVYnLRChYkNOEl8RcYGRomJygpKjU2Nzg5OkNERUZHSElKU1RVVldYWVpjZGVmZ2hpanN0dXZ3eHl6goOEhYaHiImKkpOUlZaXmJmaoqOkpaanqKmqsrO0tba3uLm6wsPExcbHyMnK0tPU1dbX2Nna4uPk5ebn6Onq8vP09fb3+Pn6/9oADAMBAAIRAxEAPwD4p3AYOepwPc12vwV8Cr8Ufi94Q8KOryW2q6lDBc+VnIh3gynIPGFDc9q+hfC2l6D+zH+zjoXi7xR4I0/xvq/j27/d2+pQ77a10+NdwUSLnbKxJbHXk8HaRVPT/wBpv7HNb+Gf2efhmvgzxDrbkXN1H/xML6Z+P3VuWB2xKCCc4x/dBr72eLlNSjBWXc+HjQUZLm37HW+HvhX+zj8Rvi5rvwv0Dwx4ktPEEJvbWy1S41UvavPbq/KgsSSSucMO3FfFVxby2txNbzqyXMDtFMsgwyspAKkdsYavpvS/2SP2iPh9rg8b6Pp6jxTYmS7b7DqkEt+jSA73MYJDFssCuDkEjBPFPvv2rPB3i6GHUfib8HNJ8UfEKxZrddQR2sIJhu63UIU5dGBzweRjKjisaMpU3zU3zoqoo1I+8uWx8thgehB/yf8AA/lRX1H+0d4O0z4mfBvwl8cvDPhu38JW90Ro+t6LaQfZ7eO4TKpNAoAVozjbwM/dzyDRXqUMRCrDmlozkq0JwlaOxY/ZA8QX/iX4e/GHwXqxXV/C9n4Tu9WtdIvEEsUN1HkB4w3zK2eeOOKqfsv6lP4F/Z2+N3j/AEIKni+xhsdOt7teXtYZnKySgdsjjI6bT6V2Giw6vP8Asa6KnwN0aQ6rrN3JpPjT7DGbjV2cqQoUj7kDYYADgKy4yN9eceF7X4ofsWa9Fqvirwcw8M+JLQ2mo6bfuHtbu3YndE8kbMElXLEbuQCcgjIrxUlNyfnt3t/mel8NlLXToeJaB468QeGfElv4j0nWdRtdat5VnjvRcOZWf72WyeRkEEY6NjvX0X+1xotjN+0R4C1Z9KhTUfE+maPqOr6XHFsX7TIQki4HzDcOoxnIBPWqtr8Uv2afC98nifR/hp4pvtegP2qHRNYv4zptvMPmUcOSyKQCAfQcL0rn9W+Hfxx/aQ1HU/i7beGtR1SSa4Vobm2CIyBADEttGSGZEAT5l755Fa1Lc/tZrk0t5/cZR5ox5U7ml+3h4w1bUPjxrHhd73y/Dfh7ybTS9Jt1EdtaoYVchY1+UNliC3tjoBRXX/tUXRv/AIC/D7VviZpscXxo1MEwzwobe4bTEJCvex4AMh+XHA5LdNpBK7cDKPstYnNiufn+I+cPAPxe8Z/C+11K28KeI77w+mooiXf2GQo0hT7p3djg/eH0r2D9l39pLxZofxK0Lwv4g1yTX/Bmv6nFb6np+vj7bERI4UupkJKNuIJPTivnGnQ/8fEH/XRP/QhW1bD0pxlKS1f9IilVlGaaeh96fDn9ifXvhz+0dqPivxN4fsLj4Z6LcahqFv5t1DKksYV2twYTkjqOo4wDXy/42/ao+J3jzxVb67P4w1LS2tQVsLfSJTZw2kQJGxEiIBOMdRzjFcLqn3J/9+T/ANAasGx/49j/ANcF/wDQhXJQouUueq+Z7G9aryxcKa5Uzo/HfxF8SfE7xAdZ8Vavca3qxgSD7VcAArGmQq/KADnOTweaK56ivUpwjTVkjgm3N3bP/9k=;" parent="1" vertex="1">
          <mxGeometry x="685" y="59.5" width="20" height="30" as="geometry" />
        </mxCell>
        <mxCell id="tdJTRMH0b5g0XQA7_NEg-6" value="" style="shape=image;verticalLabelPosition=bottom;verticalAlign=top;imageAspect=0;aspect=fixed;image=data:image/jpeg,/9j/4AAQSkZJRgABAQEAYABgAAD/2wBDAAMCAgMCAgMDAwMEAwMEBQgFBQQEBQoHBwYIDAoMDAsKCwsNDhIQDQ4RDgsLEBYQERMUFRUVDA8XGBYUGBIUFRT/2wBDAQMEBAUEBQkFBQkUDQsNFBQUFBQUFBQUFBQUFBQUFBQUFBQUFBQUFBQUFBQUFBQUFBQUFBQUFBQUFBQUFBQUFBT/wAARCACBAuIDASIAAhEBAxEB/8QAHwAAAQUBAQEBAQEAAAAAAAAAAAECAwQFBgcICQoL/8QAtRAAAgEDAwIEAwUFBAQAAAF9AQIDAAQRBRIhMUEGE1FhByJxFDKBkaEII0KxwRVS0fAkM2JyggkKFhcYGRolJicoKSo0NTY3ODk6Q0RFRkdISUpTVFVWV1hZWmNkZWZnaGlqc3R1dnd4eXqDhIWGh4iJipKTlJWWl5iZmqKjpKWmp6ipqrKztLW2t7i5usLDxMXGx8jJytLT1NXW19jZ2uHi4+Tl5ufo6erx8vP09fb3+Pn6/8QAHwEAAwEBAQEBAQEBAQAAAAAAAAECAwQFBgcICQoL/8QAtREAAgECBAQDBAcFBAQAAQJ3AAECAxEEBSExBhJBUQdhcRMiMoEIFEKRobHBCSMzUvAVYnLRChYkNOEl8RcYGRomJygpKjU2Nzg5OkNERUZHSElKU1RVVldYWVpjZGVmZ2hpanN0dXZ3eHl6goOEhYaHiImKkpOUlZaXmJmaoqOkpaanqKmqsrO0tba3uLm6wsPExcbHyMnK0tPU1dbX2Nna4uPk5ebn6Onq8vP09fb3+Pn6/9oADAMBAAIRAxEAPwD4At4WuJMDgetaC6fEv3hu/E1Hpv8Ax7t/vYq3XsUaUXBSfU8utUd7Ig+xQ/3P1NAsYFGFjCjjheOlT0V1ezgtomHNJbMg+xQf881o+xQf881qeip9nHsPnl3IPsUH/PNaPsUH/PNanpWwvPGPU96nkja9hqU27XK/2KD/AJ5rR9ig/wCea1dt7O4uuIIJJveNC1SzaXeWy7pbO4RP7xiNdCwk2ub2enfoc/1qH85m/YoP+ea0fYoP+ea1YBU+/wDunmkrF04rdG6nJ7Mg+xQf881o+xQf881qeij2cewc8u5B9ig/55rR9ig/55rU9FL2cewc8u5B9hg/55j9aqXdh5S706elaVEijZWc6UJdCoVGt2YNFLRXjHqfISiloo1H8hKKWijUPkJRS19L+AvgB8NND+EOg+PPix4r1TR4vELuum2mlRBsou7LMRG5H3f1o1D5HzPjryBzt+YY+nQnBPvRX3N8XPh/+y7Zt4W+167d6L5ukxG3/wCEbQSfaoh9ySfajbZD7159/wAIj+yj/wBDv4t/8BD/APGadmK/kfLWOc5AGcbcfxdxnIGBRX3J8EvAf7LmpeNWh0zXb3xDd/Yp2+x+JkCWuw/fbc6IN49K4XXP2d/hN4+8A+Ldc+E3jHVL/VPDNsb+7sdUi+R4gGJCny0PRW/75qgv5HyrRS0VGo/kJRS0Uah8hKKWijUPkJRS0Uah8hKKWijUPkJRS0Uah8hKKWul+G3w/wBU+KnjjR/CujCP+0tTm8pGlOEjXaWd2/3VUtRqHyOaJ3HJ68c/SlZtoOeGU55449xjNfWUf7Hnw1ttci0W8+OmknWVuFtprKG2QsZSceWv7z72eK6H4wfE34Wfs5+ObjwHZfBbRNaj0mGENqGoOPMlZ4lc5LRsT1I60w5j4r3DjDZzxnr+IGM0ZNfZ3wn+Mfwu+Ofj7SvBF78ENA0231otbi+s3BkjwjtnKxqy/dxwe9Y+sfsgfDC38SXekRfHLSrLUFuTbLp93FH5sUhfaEYiTG4U7AfJsMUl1KkMKPLLI2xI0GXZvRRXrXhX9nHWdXt0n1a9i0hG/wCWCjzZh+WBXqXgX9nu5+D3i3WIvELW97qlpMIbWaL5o/KKgrIo7Fs9/SvVfD3h2+8Waxa6bp0f2m5uGIVHfAGBuJLHhV28818hmOa1IVHSw+6dj914Y4LwlXBLMc1leDV+XZWte9z53uv2YIWt/wDQ/EbCb/p5t1C/o1eU+NvhzrngG4VdThVoJDmG6i5ikHpn+FvrX6MfEL4V6d4R8A6ZrVj4gXV7ye8eyuFt0AgV1XLKp77fXpXkmvaTZ67pVzp+oQLcWlwNrLjv6/X3rhpZpisLVSrPmuk/vPar8HZNnmDlWymHJJNpeq06nw3k0ZNbPjLw3L4Q8T3+kSku9tKQGx95D92savuYSU4Kcep/PGIozw1SVKorNNr7gyaMmiirOcMmjJoooAMmjJoooAMmjJoooAMmjJp0UMk0yxRo0krP5axoMszf3VH8TfSvpvw5+yNovgnw3aeJPjV4wj8EW10Fa20K3CyajMO+VPIP+yqn3K0AfMe48Du3TI7dyPcUmTX1vc6h+ydq+i2nhv7Z4psYbWaSWHU/JYOWfruypbj024rkPid+yPJpfhJ/Gnw28RwfEPwgu9pntV/0u1VepZB94DuMBl/iWgD53yaMmjI46Zb7vOQR3I9xRQAZNGTRRQAZNGTRRQAZNGTRRQAZNGTRRQAZNGTRRQAZNGTRRQAZNGTScdifu7sHGQPU5I4/Cj8R+YoFcXJoyaT8R+Yo/EfmKBi5NGTSfiPzFGCM7gV2nBJ4H0OeQfqKAFyaMmiigAyaMmiigAyaMmiigAyaKKKANLTf+Pdv96rdVNN/492/3qt17dD+FE8mp8QUUUVvYzCiiiiwC7WbARS7E4AXqa9J0PwNpnhvTV1XxPJtKrlLYnlfY+rewqj8J9BhvtSudUusfZ7IBgW6biM5/AVk+KPFEfii+vJbpXwrH7EFPEYHqPU+vWvqcFTo4HDLG1knN35YvbTufL4ytVxmJeCpNqCtzSW+vY6S++MC2jbNH0mGCD/npINp/wDHadN8WNS0+8aDULG1ulG3mInHP1rgbLR576xurmAbxAVVo/4sn2qm8hlYsWL5xlm6jFYzzjGxipc2j6WXLvbaxccnwUm0o6rzd9r73PVf7O8NfEqFzp4Gm6uq7ghUKSfcdCv0Fea6xpF1oWoTWN5EYp4zn2I9qfpl5Hp4a4UyLfxv+4kVsCM+ufT26V6H4pEfjrwJBrcShb6zAEnrwdpz/OuuUaWa0JVUlGtFOTa+0k7aroc8ZVcprRptuVFtRSf2W1fR9Tyyiiivj7o+sCiiiqsMKOq0Ufw1kBhUUUV4R7QUUUUAFFFFABX3VqHhP4eeLf2T/gxF8QPGc3g+2t7aR7WW2jEnnuzMGXlfavhWvq34zWEutfsp/s56ckmx7t5rdGY/dZ2Iz+ZNAFX/AIUz+zYevxt1E8Y5ss8en+r6Uf8ACmf2bP8Aotmof+AP/wBrryzWvhLoVraeJl0vxU2o6p4fgee6tZLEwphThwHJP3T7Vcsvgros2paboU/izyvEmoWiXMVoLEmPc0fmBd+fTjpTuKx6P/wpn9m0qQfjbqJUknBssjnr/wAs69Y+Dvgn4YeEfhv8YZPh946ufF9xP4Zuluo7iDyvIQQy4biMda+SdH+Gehnw9o2pa/4nbR5tYllS1t4rEzD92+05II617t+y74fbwlpf7RmiPMlw9n4cmtzNGCN+2KXB5ouFj5EXlc0UJ9yikMKKKKACiiigAooooAKKKKACiiigAr339hL/AJOe8K8A/urnqP8Apg5/qa8Cr339hP8A5Oe8Kf8AXK6/9J3oA868Wa8/hj45a1rUUUc1zp/iOa9jjkPDPFdM2Mjkcgc/h0r3XUf2/rrVrqa8vfhf4MvLuQBmuJ4S78AAbmb5uw71yWi2dzN4s+Lk2j6dY6l4gh1WX7LDeIjrsa4fcwDcZ/Csn4h2Lf8ACVeBRqOm6Nb63NabtQtJpFgtC25hiQx4x0HTFArHoVj+3xdaZeRXln8KvBlpdxEmO4gt2SRSfRgM18+6p4tm8dfFSbxJcwx2s+qayt48MLl1jaSbOM98HvXofiQaZ4Z0p9Ql8JeAb6JXRPJ0/VZp5Tu74DDpXns2vWniLxdodxZ6HZaFEtzEjQ2LuQ583r8xNO5S3Puz4ks8vj3xA0gIk+2yKT0JBztye4Cmudt7y4s7dpLdnR2Vlby2KlgRgg468cV03xq1yxX446/ocREd6tvb3Xl5+aRZE4Iz3FcyvKcfK1flWOpyo4iXN1dz+0MhxFHG5VRnFXjaKt2srNPyPUNc+b9nfw2B0GrzDHbG08V5bufcfk75rrrvxtHefDPTfC62si3FneSXpuM/uiGyNvr0NcZcXken2811dyrFaxDe8zHCovqaeIkqrjyatJL7jTKaUsLSrqvGy55SV7bN3Pmb9pFEX4iRFCN7WMTS49cucflt/KvKq6L4heLP+E28Yahq6grFK4WBfSMDAP5Vztfo+Bh7PDRjLdH8l8QYmGNzPEVqe1218wooorsPngooooAKKKKACiiigD6a/Y38M6RoNr4y+LniS2W70zwXaq1jbyAMsl443KAPUYA/7aewrjPEXip/EjS/En4hh9f1bWpn/svRnciBYw2A7AEYiU/KF6mu98FqIP8Agnz49eMbGl8RxK5Hcb7fivnnxX4sl8UQ6NC9sttFpdgliiKxIbb96TB7mgCXxd47vPFy20M2n6bptvbljHBp9mLcDPXOPvfjmuo/Z/8AjdqvwN8d2mq2cryaRO6Ratppb9zdW565XoXRfmHevM8AdAF/3Rj+VBUMnIz/AJzQB7r+2H8LtP8Aht8Wnu9DRU8O+I7VdX09YxhEWUhWVfT1x2zXhdfUf7YRM3wr+AE7nfMfDm0uepGy34r5coAKKKKACiiigAooooAKKKKACiiigAooooA++/2J7rwX8OPgQ3i/xAlrZXmreIJNMOrXUAk8pmCiIMx+6mSelZvxy/ac+L/wJ8XNpWr+HfClxp9wGm07VIrFvIu4OzBvM+8ByV6g8ncvFecKv/Gutl/h/wCEtkGM8clD/P8AKj4G/HLQ/HnhNPhF8XS914bumWLSNdlbE2nXB/1f7w5O0DhGOSBw2RxQSL/w8O+IP/Qv+Ff/AACb/wCOUf8ADw74gf8AQA8Kf+AL/wDxyvJPjt8Ctf8AgL4ufSNYRriymJfTtUjXbDeRA5LZPAYLwV6qeeRXVfs4/s5v8VJLnxR4nujoHw50fdNqGqTMUEwQbmiiOOTjlmH3BxyaCj6f/Z3/AGgviH8V0vvE3iXTPC/hr4d6SrSX2syWLDzGVcmKImTBPfd0UccmvIv2+tP8M6hJ8OvG3hywisU8R6fcytNHCsTSxgxFGbaBkgP16815/wDtHftGD4nR2/hHwhbf2F8N9IHlWOmxHYboL0ll9fVVPGecZrsf2uv+SKfs+f8AYClHt9y0oA+WqKKKACiiigAooooAKKKKANLTf+Pdv96rdVNN/wCPdv8Aeq3Xt0P4UTyanxBRRRW9jMKKKKAPTPDZ+x/CPV50IDMz5bv91V/kTXmisV6cdP0/Gu58D+NtL0fQbvTNWikmgmclUQZDA4/wFaf/AAkngL/oDN/35P8AjX2VfD0Mdh6U/bRjaKVm+vU+MpYivgMRUhKlJ80m7pdOhy3hu6ktdHv5IiN8Ukbe/LYqrrtjEFTUbT/j1uSUdf8Ank47fjUmnahZrd6lA7NBZ3e7Y4H3cHKflTtSuLWx0l7OO4W8mnkDHyQQiY+teO3GVBU5Pb/O5665o13Uit/8rHPnOcbdpYYwwGP516d8KW+1+HfENq+DEVJODnqjZ6fQVn6Hrng630m1hvtLMt5Gn7xhD94/nWm/j7w5p2i6hbaNZTW091CwXbFhSwBGc59zXtZXh6GCm8VUrRaaatfXVf5nk5liK+Ng8LClJO6d7aXT/wAjy6iiiviXHVn2EdkFFFFVYoKP4aKP4ayAwqKKK8I9oKKKKACiiigAr6v+LzXUf7Lv7N509VkvVuJPJVx1kD/IPwavlCvq/wCMGpDRf2WP2cdQ2eZ9kkkuAn9/bLuxn6UAcv44j1+38P8Ai64h0XwpDfT2zHV59KvGmu0jL/OSCcfe61e0dfFTLpF6NC8Jv4rj02P7LJNeEX5jWPCny+m7HNcDrfxI8ItD4vu9I0nV11jxJbyQSyXkiGKMyNucrjk5P5dsVdsfiv4PXXNH8T3Gi6s/iHT7SG3EaTxi2Zkh2Z5GaANP4fw6xeeCNCOoaR4XubSG4nOmS65eGCZv3vzbAOD83rXp37OUmqTL+0m+sxxw6q2gXAuYojlFfZKMKa8G0fxx4TvfDWgWPiPStUe70SeVoZdNdAjrJJ5nIPIwOOK91/Zp8QjxZZftGazHA1sl74buJ1jcg7R5UpxxQB8fJ9yihPuUUAFFFFABRRRQAUUUUAFFFFABRRRQAV77+wn/AMnPeFP+uV1/6TvXgVe+/sJ/8nPeFP8Arldf+k70AcX4g8C6540+KXjs6PGm201S7aeaScRBR57jBY8cmuc8QfDnxJouuWOl3ti9xf3y77dIWExmG4jKtnHUmu71PxLoGn+KviloPiI3kNlqurylLixUFl8u5cng8cmsLxV4y8OT6n4TttOh1OfRtDtPIZpJBa3E3zbvlYfd5oAyv+FN+OM5XwlqgPqLY1Tj8M6t4V8VaNb61ptzps0lxEypdJsO3zfvdTW34i8e6JfaS0eh2PiHTb5nTbcT65LOgH8Xy4rmdH1G51DxRpMl1czXUgu4lDzyM5A3qcZJ9zQB9Cft5aldaN+1BdXtlO9tdRabZskkZ5zs7+v0NYHhb9puIwpD4h0yTz1GPtViR85/65nn9a1f+Cgv/JyGof8AYMsv/Qa+bfbtnOK4sTgqGLfNVWp9Dk+f5hkjbwk7J7rdH09dftL+F4Yd9tbahcy/3RDt/ma8g+I3xi1f4gE2hjXT9LVt32SJvmb/AK6N3HsK8/PPXmgcAAdB0HpXJh8rw+Hlzpanr5nxlm2aUvYzmoxe6irfK/YPX65paKK9eyeh8RsrLruFFFFMQUUUUAFFFFABRRW34J8PQeLfGGjaJdalBodtqF0lu+pXefKt1b/lq2P4RQB9FeD+f+Ce/jkjkDxJFn/vu3r5Z9K/Qa++EfgK2/Z1Hws0X4veGoJLnUBqF/qlzPHIZiCCESNZBj7qd+3ua8ltf2IfD97HM8Hxx8KTCGPzZWjiBWNe5b992oA+VKPavqRf2MfCxbn48+DxztwAOT/39qe7/Yh0DT7pre6+OPhO3mXbuikiCuuRnoZvSgCt+15/ySP9n89T/wAI707fct6+Xa/QX4kfCLwD8S/hH4H8LX3xe8NWuv8AhO3+yRanFPGYJ4sKNrR+ZuH3F5BzxX5+PHskdM52tjPrQA2iiigAooooAKKKKACiiigAooooAKKKKAPqOPn/AIJ2nGTu8XlVVRkknZXlumaZafBywh1jVreK78Z3MW+w0uQAizTvNOf7x/hQ9fSvZf2ZfjN8OLX4M3vw/wDHupSaDJBqjanY3xtmuULtjbwqsCw2ngjHtVXU/hn+zjrWoXF9ffHHVbq7uH82WWTT5CXb1P7nt29O1ArGX8M/2ndE17wXdeAvjZYXvinwy8gnstSgTN3ZSBsgEgg4HQEcgcdOKz/i3+1rfa7qmj6T4Hsl8N+ANEXyrPRmACXaYxmdcdPbpnnrzW1/wp/9mXj/AIvRqIx0P9mvn/0TS/8ACof2Z+f+L06lk9T/AGc+T+Pk0DPHfF/hKw8RaLL4u8Jxt/ZgwdR0tvmk09+5x1MXof4a9k/a4+b4J/s+HI50GcAjoSEta1/Cngz9nbwTrUeo2Hxu1FXVWWWB9NdoriNvvI48nDA989a4v9sD4w+DviPeeD9A8CvJcaB4ZsZLaO6aMors4QBVVuTjyV/76oA+d6KKKACiiigAooooAKKKKANLTf8Aj3b/AHqt1U03/j3b/eq3Xt0P4cTyanxBRRRW1tdUZX1sFFFFA1qLk0mB6D8qKOOmRn0pKK0bjt3BtRsnLRh/n8qKRgR05oUE9eKO8exPMviFwMY2r+QpNo9OOT+dLRU8nW2pV+l9Aoooq7PsAUUUcdMjPpRps+1w3V0FH8NFH8NZgYVFFFeEe0FFFFABRRR/FigAr6y0X41fBDxN8EfAXgv4g6f4kvL3w3bOB/ZYVE3u53HO8dVIr5NpMn7pYDJyAzfMen+AoA+of7X/AGSx/wAwLxrnoDvHH/kSl/tj9kzvofjY/WQH/wBq18vZNGTQB9Qf2v8AslHroPjUnpneMnnPXzK6LRfjb8APhv4K8c6d4H03xRaah4i0i408/btrrlo5An8Zxyw6V8e5NGT646dOOnSgA6cUUnrtKnA3E5zx+FLQAUUUUAFFFFABRRRQAUUUUAFFFFABXqX7M3xK0n4Q/GbRPFWtR3Uum2cc6yLZxeZKC0TqOMj1FeW5FJtz1AJ9TyaAPq7WPFn7KWvazf6ld6J43a6vbhp5mWQbdzMWY/6zuSTVL+1/2S+n9heNsHkjzBg/X97zXy/k9O3pRk0AfUH9r/sl5ydC8bE+pkGf/RtTWfiH9k6yuormLRPGxeJxIh3jhgQQf9Z7Cvlvn2ptAHr/AO1V8VtG+NHxcuvE+gR3kWnSWdvbBb6Lyn3KMZ6mvIKTAyCBgiloAKKKKACiiigAooooAKKKKACiiigAo9R2IwR2x6fSijjOMjOMfjQA0orKQVBB6gjIPT/AV0/w98UQeENellu7P7Zpd5btZ3tsmFaSGTqVPTdXNFlXGSOenOP50hAbg8jnAPQZ9qAPSrPQfhxpV8upN4putWs4m8yPSUsjHcSH+4zE4H4VxfjLxFJ4y8TajrV3FHHNeSMxiAB2Jt2qv5Vkn5sA/MBxg80vT88/lQA3y1242jHpjinf45oo4GMkAHoaACiiigAooooAKKKKACiiigAooooAKKKKAE7Yxx6du/P15NFLRQAlFAYNyCu31BzS0AHpjgZzxxRuJ5LFj2LHJHXp+dFFABRRRQAUUUUAFFFFABRRRQBpab/x7t/vVbqnprDy3X3zVyvaw7vSXkeTU+Ox1Pw90Oy17WJYL+J5I0t5JdqvjkbcHj6mrMNx4N1CQQSWF5pfmHas4uPM2++DxTvhQf8AifXXy5LWcoOP+A1ytrZXV/cCK1heSWT92qRkkj34FfVUakIYOlOlTjNvnv7v3dD5erBVMVVVSo4pcltfvL+veFb3Rdck00I1y2N8LQoWMq+vFZ99pN/pjKt5azWrONyCVNpK+v1r0/xJHeXPiARadqC2C6Xp6xXt23OzPqR/SsrWmS8+Gs7tqE2qiG9j2XNzCyEZ6qpJJI+tb4jK6P7z2b7/AIbmdDMq9qbnbW3frt5HDwaLqVxam6jsZ5bfGd6RMRj1ropPD6zeBdMubW0abUJrqRHMaszMg3YGOg6DpXQ2upReMIbCDT9UutF1KK38pLXBEMvy5yCP6iqF5e3mk/DXTvIne3la9lVmjYgkfN37fhWlPAUMPCdV3cFC99LX93zuRUxletKFNWU3O1tb297yt0OZ0XR3XxJp9hf27x+bKqPDICpIPcGp/EPhu5h1jVBZ2Nw9hbzMqOkbFAo9zya6uSaS+XwDd3DGa5klKPK33iAygZ/M02317VX+KjWy3UzwfaWjaEZ8vy/df69ar+zcOqKpSu+aa10vZpP9SP7RqutKrG3uwenS6djzq3t5ryYRW8TzTMcrHEpYke1SX+l3ulsq3ltNbM3I82Mqp9lNd/Z7dN03xpdaWdlzFcbI5IwC0ce7Hy4/pVHS7y68QeAdfXUXkuxC0bWzykkiQ9VDGuKOVwXuXfPZvysv10OuWZzb57Lkul562/DU5SHQdTuLU3MdhctbgbjKsJ2Yqvb2c91GXhhklRWVCUUtyfWvS9FW90vxBplrqXiCX7UCq/YIFJiC+jEcfpVfT7p9F0/x09n+7aG6Bj2j7uGxxWqyeFoVJtpK907X0V+5DzSr78IpSbta1+rscE2j3y332I2c4u8KfKMZ3YPcjrXRf8I2LXwLqN1eWckF/DdRpGZAVYIduRjp3NX/AA/qd63hPxHrAnkm1VTHC1zuy6Rn0P8AWmxXl5ffC3VJLueWcC8i2PLltw+TgE8n8avD4PDwi6lm3KE2r20ttf7icRja0pxi2lZwi7edr/mcJR/DRSSMFVj2FfItaXZ9QvIw6KKK8E9oKKKKAPorwT8HvAvw++FelfEX4rjUr6LXHcaL4Z0xxHNdRrj987ZBVT7H+Ja5j4jat8E/Eng+e78H6F4i8I+J7eWNY9PuJvtlpdIzYYmViSm32zXpH7TWn3HxB+APwb8Z6FC17oel6V/ZF+tupb7DOvl8SKASAfLb8k9a+cvC/gnxH4pu7c6LpF3fSLdQwpOkDGKKaSQLEpcjagLMFNAFmX4X+MIfDh8QyeFdZi0FV3nUHs38jGNxJbAGAP4s4r0b4Y+AdA179mr4reJb6wSfWtGntEsrouwMIdlDjAODnJ6g19H/AATbVNP/AGi08PeMvjBeeMPE8ttcWeo+HYbaaSwRTC2Y2mcrGNoAA2JjdxXjXwvjjt/2WPj9Du2Qx6jZIDjPAnAx+QFAHhnh34Z+L/GGmz6hoPhjV9ZsId/mXGn2ckyKR1AKqeR7ZzWZp/hvV9WjvmstMvLtbGPzbowW7SGBM7dz45C7vlzjO7tX2j+0P4s8LfD3xJ4J01vEnjnw1punaLZT6ND4Zig+wyoVyJRukXzGPfOah+GPxNsPFHxA/aB8b+ELS80Lf4V+2oLiBFkS7VPmlKKSu4yfP160AfIfiL4d+KvB9ja3mu+G9W0mzuDiOe9s5Ilb0GSvBP8Ad60eGfh54o8bR3Mnh7w9qetR22RK9haSTLGR1DMisM/7I5r6B+Gfi/XPiH+yv8dIfE2sXmviwTT7y0bUZmnaCZpGBdGYkgkAdKl+NnibV/hz+zv8EdO8I6jdaJpGo6fLfXk+mTPCbq9bZzI68sR83Gc80AcZ+0Z8M9J8G+HfhCNE0hrDUtb8Nx3OoRRmR5Jbo7M/KQSCPm+UAda8w8RfDPxb4P0+K/13wzq2k2U5AjnvLOSNCxGAMlflOezc19dfFjSfHnjzxn+z0fD2oSWXjJvCbX0uq3xCtbMAjTTzErxtG4Y255qr4QurLxF8F/jpp8vxM1H4oPDon2yV7yxmW3t7hC5SWB5WLMSccgD7vTk0AfKGk/DLxdr0tjFp/hrVb2S+ga5tVgtGbz4lOHlQjO5AfpXNujRyFXVkYHaVb1r61+K3xS8UfDr9mv4GQeGNYuNBe/0yYz3Ng/lTuEkUrFvHzBck8A4PfNfJTsZGYsSxY7iSe9ACUUUUAFFFFABRRRQAUUUUAen/AAt8TfCzQ9Fmt/HPgfVfEuqPc7oruy1M2qLFhBt2g+u7nrzXtvx38O/AP4I+KYPD9x8Ota1O5udOjv0uLfXZFRPMDBFOW9V/WvkWFQJkwADu69+uf519vfGrR9L179uH4WWGtrHNps2n6Wrwycq5Bl2Bh6Fwg/D3NAHyNL8LfGcPh7+3n8Ja4mi7d/8AaL6fL9nC4zndtxjHfOK5nHAPYjIYkEY7k47ivrXw/wDFb4hXf7cSaVPqmoSxN4jbTZtFZ3MAsQ+1l8nGNixfN05r5++N2l6Zofxk8b2Oi+WumWusXKW6x/cClsBR6igD3XU/CHwb+F/wR+GHiXxN4J1LxHqniiyeWaS01iS2wyYycbsDO4dBWBq3wf8AAPxe+H2u+LfhL/a2map4fj+0an4U1R1nk+z95YnHLY+bqf4a0f2jD/xi/wDs9HPI0+c4yRx+7xng4ztNW/2NdPn8C6D8SfiLrltJZ+FbbQJdPjmuEKrdTydI1DAFiNvb1oA+cvC3gfxH44mlh8PaFqOtyw8yrY2rS+WP9rHAP1NUNV0m+0HUZ7DU7K4029h/1lteQtFLH/vKe30r6W+JXiLWPhx+yp8HofB+oXeh6Zq4uLnVbvS5WgM92jY2SyIR05wnfbVT9pS5ufEnwA+CXijxAzN4wvra8huLqdCtxc20b/u3k7nK4+Y/3qAPmmiiigAooooAKKKKAPef2QfhF4X+MXizxXpfivzYrKz0SS6iuo5TGbaUSqnmZyAcZJwcj2rzn4n/AAs1f4SfEK68K65H++hlBinThLqBjlJYz0KsK9V/Y8AkT4wAruH/AAhF/wANyOqGuh+GGqWX7Vfw3sfhzr1zHD8RfDkSzeGdWuD/AMfsKrlrSU9WIHA7+/yNuAPNv2o/hro/w6+NuoeGPCllLFYLBbmC18155S8kKsQAcsxyT3xXBeIvhr4t8IWMV7rvhjV9Hs5uI572ykjRz7MVxn2ODX3XeWMZ/bN+I2pRQpdeItI8Gi50eIrvb7SsKDcq92HGMdd1eOfsn+NfEHxQ1n4iaD421e+8Q+F7zw5d3ep/2rO08UEq7PLk+cfu3+99c0Aeb2/7N+v3nwMtfG9to+t3erXWrfY4dNgsJGU2vk7zcY27tpb5VOcGo9W8Fwab8IdM0ib4a+KrT4jXGq4XU7i0mSG5hILRwxxnjcQR2z8telX3j7xRpv7DfhXUbPxFqtpfDxRNafbLe6lSTyVhfbEGBzsG1cL0Gag8WeMNe1X9iPwjrF7rd9eaxD4yl8u/nuXaeMrDLtw5ORj60AaHjD4M6b8H/D+i6LafCTWfiL4ov9MjvNS1iUXf2a0mkTiGKOBeWRvvbs18tXmh6lpmrHSr3T7q21RWWP7DLCyzlm+4uzk7j1r6/wD2jviJ4o0j9oL4dafY+JNWs7G407RnmtoLyRI5GdvnLKGwSe5PWuo0azik/bo+LuoQwx3Wvabo11faTFIu4tcrbxDIXuwy+Ac9aAPjDxJ8NfFngyyhvdf8M6votnNhYrjULJ4Y2YnAG5sd/XFLH8L/ABjL4cOvp4W1iTRFTzG1FbKTyAn97cQBjvnOK0H+JXxC8efadFl8R61q66veRJPZzXLPFJM0qhBgthTvJXBwM19g/Bxtb0P9o7R9A8a/GO98Q+LGjazvvC1rbSzWap9nJMMkpKRLtQj5VQgnvQB8w/Cf4Bar8TPAfjfxJHY6sY9FsVm01bO1Z11CcyANGvy/NsUMW21Y8LeB7fwj8P8Axw/jj4beKn1Oa1QaPqn2aWCCwkxgyTcYKksvb+GvV/hDr2q+H/hD+0faaZql7ZW+iFRpq287qLPF1KG8sg/JkAA7cZ71mfB3xx4j8X/s2/H5de1zU9YEOl2flrf3TyhSXbIUOTjoPyoA+ffDPw38WeMrWe50Lw1qusW8H+smsrOWSNT6FguAfbk1mWPhvV9S1pdGtNMu7nWGkaIafHCTPvUEumw4IICnrX0v+054y134Z6L8JtF8G6ve+HvC48N217ayaXO0CXNy3+slLIBvf7vX+9XqVxD9s/aq/Z61zUIVt/FWsaFHda4NvlsZPs77ZJF/vt+8z9KAPik/Dfxavh19fbwzqqaJHw+oNZyeQvqxcgcD+9jFR+Ffh94o8dNcDw54e1TXTBzMdOs5JxH6g7QRkfWvrH4AfErxR4y/a88SeH9a1/UNU0O+Gq2kml3MzPbeSm7Ygi+6AMDoBXBfCf4oeDb/AOEMXwv1/wAR658PLuLWJru113SVLQTs5x5c6jBIB7AmgD5zvdPutLvZrK9tpbO8hbbLb3CMkqNnO0qQMcetQV6H+0B4R8ReBfivrOkeKtabxJrEZWSTUndma5jdFeN23EnJQnrXnlABRRRQAUUUUAFexfsk/DnQviv8btN8N+JLSS90ma0uZXihlaNiyR5U5Ug8H3rx2vof9gZif2mNF43Zsbznv/qqAPGJfBesX11fy6Xo1/eafFftYpNb27SL5hLGNMjPJAHUUa54F1/wdqlnaeI9D1DRJLhgY0vrdo96j7zA9x9K+j/hn4o1Twd+y38bdS0S+m0zUo/EcCJeW52yIGcKSrdVOGI3DkZ4NVNV8Qan41/Yl0nUtf1G51nUdP8AG6WtteX0hllihaPLIHbnbntmgDnv2k/gTPp/xm1XSPh54Q1C60iy0+1uJItLglufKkaHfJvYbtueu3cSDwK8HsdJvdR1JNOtLSe51J5DElpFGzys46r5YG4Gvr/9qn4r+PNC/ag0LSNA17UrW1t00x7PT7aZ1hmdwpYsgGJdzEqeuB0xXd+J4LPwr8VP2l/EHhNUXxfpeiWsts9tzLbM6f6VJGoH31b0oA+GvFHw/wDFHgk2/wDwkHh3U9FFxjymvbWSMSZ6BcrjP+yTmqmueE9b8MX0NnrGj3ul3U0YlhhvLd4ndW+4Rwdwb+HFfR/wP8Uaz8SfgP8AG/T/ABlqV1r/AIf0/SE1C1uNUkacWt98/l+W75wT8vAOeK9T/Z4sYvHvwt8Aan47s7G68UaTeXUXgT+0Zgj6oscDtGkuR80avjaTn7vuaAPhrXvDmq+FtRaw1rTrnSr1FV2gvIjE4DfcypJOTWbW7481jXPEHjXW7/xNJM3iOS8m+2+d9+KUHlD6Y+6AMDvWFQAUUUUAFFFFABRRRQBLb3Bt5CTyDWgl9G/8WKys0lbU60qekTGdGNTVnU6F4sm8N3jXNlMkcrIYyJFDfKcZH6CtZ/itqs0LRx3UFszDBe2gWNvzxkVwK5Xpx9KXcT1JP1r06ebYylDkp1GkvN9dzzpZVhqkuepFN+i6bHV6P4zudDuZ5oLhS86hJUnXzBIB2YHrT77x1dahYTWUs0CWkjBjFDEqqhHQjArj1+Xpx9KWo/tXFqHs1PT5/Pr166lf2XhXP2jjqvT5dOnTQ7qP4nahFABHNbR3ATYLpbdROoxjhgMj8KzJvFMtxosGmSTK1pA5kVdvzhjnJ9e5rmdx9Tn170mTknPJ6mnLNMVJcvNpt129LhHLcPHXl136b+tjrF8a3Cx6Ygmj26cxa2G3oSQfx6DrWgfilqZjuD9otxPICDcrAok5/wBoDNcHS7j1yatZvi19rp57qy7kvKsK/s9fwep0mj+KJ9CumuLK6VCy7WDLkMM55B4NWdX8dXWtW62808MVorhxBbRiNdw6HAAzXI0fXn681H9qYmMeRS02t62vr95p/Z2HlLncde/ptod3J8UNSk8qRbi3S5TpdLAolfHq2M1nt40uGh1OMzR7NRbfcDb1Oc59vwrlNxznJopzzbGS1dRt/Prp3M4ZVhYu6jZ/Lpr2Oo0PxZL4emle0uFHmqFeKRAysB0yCMVZ1Dx/e6jZ3FpNcRLbTMHaJIwqoRjBGBx0FcdkiilHNcVCHs4y0267O1+vqaSy7Dzm6ko6vX5o1/t1v/z0/Q1Tub7zMovT1qpmjtiuGWInJWZ1xoxjsFFFFcx0BRRRQB6B8Kfjx44+DLXP/CK6t5NndACewuIRPaz4xyYzwDwORzW540/as+I/jSygspdWg0bT7edLn7HodkljC8isGVn2qN+CoPzZ6V5EwDHLAMfVhk0o+Xpx9OlAHtn/AA2P8SF16HW7S40TTdU8zzbu8sdJt4pr5sEf6QwGZBgnjoTzjNcHpPxU8RaL4P8AE/ha1ngXSPEsqTajG9uC7ujblKMfu4PNcecnGSTjpk5xSEAjBAI9McH6+tAHrXhH9qDx34R8NWehxSaVrOn6fxYrrWlw3xtBjGEZkLAe2cCsmH48eNIdW8X6pJqMd1f+LLP7Bqk91aqxkjxjEeBhOO4wa87ZQ3JGaAAOgHTHT+dAHV+Gfibr/hHwf4m8LabLDHpHiRI49Qjkg3O6xklAjfw4JP8AWun8D/tLeOvAfhJfDOn3dhqGjRyNLbW+rafHe/ZZG6tB5inafrXlu0YwAAPQcD8aGw33gG5zlhkn60AeqSftNfEWbxN4a8Qza15us+HbeW0tLx7dSzRSHLpLkYcH3B9ql1b9p7xzqWl6zpcUmj6Zo+sWT2l3pemaVFBbyK/3pMKo3S/7R5HYivJiobqKMZ68/wBPp6UAdX4o+J2v+NPCnhfw/qcsMmmeGoWg04R24V0ViCwc9Wzgc5zXK0m0E5IBOc884+lLQAUUUUAFFFFABRRRQAUUUUACkqwI65zXZ/Eb4teJ/ih4ntPEOvXaLq1pbR2kE9nD9n8tUJKYI9CTz1rjKRcL90BeMYUYFAHtU37YPxMmsXUajpyXzwfZ21xdLgXUSm3b/wAfITdnHG7r714xJI80jPIzSOxLMznJJJzkk9TTerbsDd/exzRQB7V4Z/bA+IfhPwnpHhu1k0OXStJhEFnHfaPDM6KOwZs1ynxO+PHjf4wJbweJtZa4sbc5g061RYLVDxzsQKpPHUjNcB/LOcdvyoySpB5HpQB6P8O/j94x+GmhzaJpc1jqGhyyicaXq9hHfWySg53qrqdrepGM96wPiJ8TvEfxU1war4k1D7bcJCtvFHGixQW8Y6IiKAqr7AYNcs2GzkA85xjil+pJ9icigAooooAKKKKACiiigDqfAvxM8QfDb+3f7Dmhh/trT5NMu/Ot9+63fG7bnPXA5HNYOj6teeH9UtNS064ks7+zlWe3uIjh43U5BB/znvVPAHQAfh0+npS0Ad/rXx18a678ToviDLqxtPFcQRUvrK3EagIMKNoGMYA4xzjnNbXjL9p3x5418N3miXFzpulWGoEG/XRtMisZL3HaRkUMw9icV5LgHqMn17/nRgdcYPrQB6Z8Pf2iPGXw38K3XhvSJdPutHuZ2uRb6npsd4IpmABaIOpwcAda5+8+KHiDUvhva+BJZYD4et9QbU44fs4ExuGBB+YezHjOOa5Rvm+983Ofm5J+tJtHoKAO28W/GDxN468WaR4j1aaCbVNKightpIbYLGEhOYht749+vfNP1D4zeL774oT/ABFGpNZ+LJphcNfWcIRQwULyvQjAAIIwe4rhioOcjk9+/wCdG0ZztBOMZI5oA9Y8ZftO+OvGmnPZXM2maXDLPHc3Mmk6ZFZyXMsbBkeV1XcSGAPXk8mtST9sb4kNrNvrEF1o9lrCMrXGp2mk28dxd4xgTvjc68D5c4I6ivFF+XGOPw6/X1pdzcfMTjpk5xQB6D8Pfjp4t+Guva9quiTWkh1wk6hZ3lolxbXGXLndGRj7zE8Adaj/AOF4eLI7Pxraiaxjt/GSouqLDYxxq4QkqIlVQI8ZPTFcAwDYLAMR0LDJ/OjaPQfl1oA9U8FftMeO/A/hm30G0uNN1XS7Ji1lbazpsV8LTPURl1JUewOPasi2+N/jKH4qW3xFn1X7b4pt5d6Xd7bh41+UrgR/dAwxGAMc1wRAbqKMAYIHPr3oA7bwZ8YPE3gL4hTeN9Jmgh8QTNMzyTWweMmXPmfL75PbjtitbwT+0H4r8DaDDo1nbaFqOnW8rT2qappEN39mdm3ExEpnr715ntAOQOf73f8AOhlDZyAfw6fT0oA1vFXirVvG/iG+13XL6TUtWvn33F1LjdIeAOAAAAABgDFZVFFABRRRQAUUUUAFdT8MfiZr3wj8XQeJfDMsMWqwxvFHJPB50aq4ww2n1FctSMob7wDH1bk/nQB2Vn8VvEdj4H8QeEIZ4To2v3a397F9mHmSSKQVKN/DggcZxTI/ih4gh+G//CBpNCPDn9pjVvJ+zjzPtAGAd/Xbj3rkOOeBgnJGOD+FHGMYGMY244x6YoA9zP7aXxOk1OTUp7vRbjUW4t7ubSbd5rTAAHkORlMADHPFee+Gvi14u8G+NZ/Fum63cRa/cvI9xczESm6D/fEikFWB9CMVx/PPJ5689aOnTjjHFAHpfj79orxn8QvD50DUJtN0zRXmE8un6Pp0dhHPIOjPsUFse9ZXi34zeLPF2v8Ah/WLy/S0uvD8UcGlrp8AtYbNEO5QiL056nGT3zXEjA6AflSBQvQBT6rwfzoA6f4jfEDV/ih4qu/EevC1XVbpVWeS0thbpIyjAcgcZx3xk9TzXM0i4X7oC8YwowKWgAooooAKKKKACiiigAooooAKKKKACiiigAooooAKKKKACiiigAooooAKKKKACiiigAooooAKKKKACiiigAooooAKKKKACiiigAooooAKKKKACiiigAooooAKKKKACiiigAooooAKKKKACiiigAooooAKKKKACiiigAooooAKKKKACiiigAooooAKKKKACiiigAooooAKKKKACiiigAooooAKKKKACiiigAooooAKKKKACiiigAooooAKKKKACiiigAooooAKKKKACiiigAooooAKKKKACiiigAooooAKKKKACiiigAooooAKKKKACiiigAooooAKKKKACiiigAooooAKKKKACik9R0I69/04NLg/5x/jSuOwUUYP+cf40YP+cf40XCwUUYP+cf40YP8AnH+NFwsFFGD/AJx/jRg/5x/jRcLBRRg/5x/jRg/5x/jRcLBRRg/5x/jRg/5x/jRcLBRRg/5x/jRg/wCcf40XCwUUYP8AnH+NGD/nH+NFwsFFGD/nH+NGD/nH+NFwsFFGD/nH+NGD/nH+NFwsFFGD/nH+NGD/AJx/jRcLBRRg/wCcf40YP+cf40XCwUUYP+cf40YP+cf40XCwUUYP+cf40YP+cf40XCwUUYP+cf40YP8AnH+NFwsFFGD/AJx/jSDOQPvEdQo/+vRcLC0UgIYDHQnaGUgilpiCiiigAooooAKKKKACiiigAooooAKKKKACiiigAooooAKKKKACiiigAooooAKKKKACiiigAooooAKKKKACiiigAooooAKKKKACiiigAooooAKKKKACiiigAooooAKKKKACiiigAooooAKKKKACiiigAooooAKKKKAMS8/10FV6KKgsKKKKACiiigAooooAKKKKACiiigAooooAKKKKACiiigAooooAKKKKACiiigAooooAKKKKACiiigAp0v8AqJKKKAOgj/4/Lj/rrS0UVZAUUUUAFFFFABRRRQAUUUUAFFFFABRRRQAUUUUAFFFFABRRRQAUUUUAFFFFABRRRQAUUUUAFFFFABRRRQB//9k=" parent="1" vertex="1">
          <mxGeometry x="400" y="504.06" width="320" height="55.94" as="geometry" />
        </mxCell>
        <mxCell id="tdJTRMH0b5g0XQA7_NEg-11" value="" style="rounded=0;whiteSpace=wrap;html=1;fillColor=#FFFFFF;" parent="1" vertex="1">
          <mxGeometry x="38.129999999999995" y="600" width="320" height="500" as="geometry" />
        </mxCell>
        <mxCell id="tdJTRMH0b5g0XQA7_NEg-12" value="" style="rounded=0;whiteSpace=wrap;html=1;fillColor=#004785;" parent="1" vertex="1">
          <mxGeometry x="38.13" y="600" width="321.87" height="64.5" as="geometry" />
        </mxCell>
        <mxCell id="tdJTRMH0b5g0XQA7_NEg-13" value="" style="rounded=0;whiteSpace=wrap;html=1;fillColor=#000000;strokeColor=#000000;fontColor=#FFFFFF;" parent="1" vertex="1">
          <mxGeometry x="38.13" y="660" width="321.87" height="460" as="geometry" />
        </mxCell>
        <mxCell id="tdJTRMH0b5g0XQA7_NEg-38" value="" style="shape=image;verticalLabelPosition=bottom;verticalAlign=top;imageAspect=0;aspect=fixed;image=data:image/jpeg,/9j/4AAQSkZJRgABAQEAYABgAAD/2wBDAAMCAgMCAgMDAwMEAwMEBQgFBQQEBQoHBwYIDAoMDAsKCwsNDhIQDQ4RDgsLEBYQERMUFRUVDA8XGBYUGBIUFRT/2wBDAQMEBAUEBQkFBQkUDQsNFBQUFBQUFBQUFBQUFBQUFBQUFBQUFBQUFBQUFBQUFBQUFBQUFBQUFBQUFBQUFBQUFBT/wAARCAAfACkDASIAAhEBAxEB/8QAHwAAAQUBAQEBAQEAAAAAAAAAAAECAwQFBgcICQoL/8QAtRAAAgEDAwIEAwUFBAQAAAF9AQIDAAQRBRIhMUEGE1FhByJxFDKBkaEII0KxwRVS0fAkM2JyggkKFhcYGRolJicoKSo0NTY3ODk6Q0RFRkdISUpTVFVWV1hZWmNkZWZnaGlqc3R1dnd4eXqDhIWGh4iJipKTlJWWl5iZmqKjpKWmp6ipqrKztLW2t7i5usLDxMXGx8jJytLT1NXW19jZ2uHi4+Tl5ufo6erx8vP09fb3+Pn6/8QAHwEAAwEBAQEBAQEBAQAAAAAAAAECAwQFBgcICQoL/8QAtREAAgECBAQDBAcFBAQAAQJ3AAECAxEEBSExBhJBUQdhcRMiMoEIFEKRobHBCSMzUvAVYnLRChYkNOEl8RcYGRomJygpKjU2Nzg5OkNERUZHSElKU1RVVldYWVpjZGVmZ2hpanN0dXZ3eHl6goOEhYaHiImKkpOUlZaXmJmaoqOkpaanqKmqsrO0tba3uLm6wsPExcbHyMnK0tPU1dbX2Nna4uPk5ebn6Onq8vP09fb3+Pn6/9oADAMBAAIRAxEAPwDV+Buh/sjXXwj8MyePrrTIfGMlnnUllvb1JBIWYfdRto4GeK9Abw3+wnuO6/0cHPIW/v8AH/oVfOnww/4J6/EH4sfD/Q/Fuk6t4ft9O1eH7RBHdzSh1B3D5gIzz8p7nrXWH/glf8VSSRrnhfHb/SZ//jVfWVI0OeXNiGj5eLq8q5aFz17/AIRr9hL/AKCGkf8Agff/APxVB8M/sJ9r/SP/AAYX/wD8VXkH/Dq34rf9B3wv/wCBE/8A8app/wCCV/xV/wCg54W/8CJv/jVSlhv+gllN4i2lBHf/ABF8P/sWweA/EZ8Oahpf/CQDTLo6cqX98Wa58pvKADNgndt61+dPm6h/zxk/78rX2H4s/wCCbXxO8FeFdZ1+71vw49rpVnLfTLBcTGRkiQyEKPK64WvkT7TB/wA8Jfyb/wCNV6WDVLkdq7ZwYn2vMr0kj1bwx+0r8V/COg2Wi6F451jTdJsozFb29sR5cCZPAwvqTx2ya1f+GwPjg3J+I3iAE9vMHH/jlfQvwN/4KIeFvhP8JfDHhK/8Dahqt1pFp5Ml0txEFkO7kgEZ7jr6Cu+/4er+D/4fhxqZXsftMHT8q5p1JczSw6ZtGMeVc1do+PP+Gvvjf/0UfxB/38X/AOIo/wCGvPjd/wBFH1//AL+L/wDEV9h/8PWPCH/RN9T/APAmD/Ck/wCHq3hD/omuqf8AgXB/hWfPV6YZFclN/wDL9s+L9Y/ao+MGvaTfaZqXj/W7rT7yCS3uYHddrwuu1w2UzjaTXlPnD/nlF/38X/Cv0D+Iv/BTDwn4y8B+JNAi8A6lZ3WraZc2ccslzCRGZImRW+Udic1+f/2Yf8/Lf98Cu2hKfLrQSOStT97+Jc//2Q==" parent="1" vertex="1">
          <mxGeometry x="48.129999999999995" y="624" width="27.78" height="21" as="geometry" />
        </mxCell>
        <mxCell id="tdJTRMH0b5g0XQA7_NEg-39" value="" style="shape=image;verticalLabelPosition=bottom;verticalAlign=top;imageAspect=0;aspect=fixed;image=data:image/jpeg,/9j/4AAQSkZJRgABAQEAYABgAAD/2wBDAAMCAgMCAgMDAwMEAwMEBQgFBQQEBQoHBwYIDAoMDAsKCwsNDhIQDQ4RDgsLEBYQERMUFRUVDA8XGBYUGBIUFRT/2wBDAQMEBAUEBQkFBQkUDQsNFBQUFBQUFBQUFBQUFBQUFBQUFBQUFBQUFBQUFBQUFBQUFBQUFBQUFBQUFBQUFBQUFBT/wAARCABSAFEDASIAAhEBAxEB/8QAHwAAAQUBAQEBAQEAAAAAAAAAAAECAwQFBgcICQoL/8QAtRAAAgEDAwIEAwUFBAQAAAF9AQIDAAQRBRIhMUEGE1FhByJxFDKBkaEII0KxwRVS0fAkM2JyggkKFhcYGRolJicoKSo0NTY3ODk6Q0RFRkdISUpTVFVWV1hZWmNkZWZnaGlqc3R1dnd4eXqDhIWGh4iJipKTlJWWl5iZmqKjpKWmp6ipqrKztLW2t7i5usLDxMXGx8jJytLT1NXW19jZ2uHi4+Tl5ufo6erx8vP09fb3+Pn6/8QAHwEAAwEBAQEBAQEBAQAAAAAAAAECAwQFBgcICQoL/8QAtREAAgECBAQDBAcFBAQAAQJ3AAECAxEEBSExBhJBUQdhcRMiMoEIFEKRobHBCSMzUvAVYnLRChYkNOEl8RcYGRomJygpKjU2Nzg5OkNERUZHSElKU1RVVldYWVpjZGVmZ2hpanN0dXZ3eHl6goOEhYaHiImKkpOUlZaXmJmaoqOkpaanqKmqsrO0tba3uLm6wsPExcbHyMnK0tPU1dbX2Nna4uPk5ebn6Onq8vP09fb3+Pn6/9oADAMBAAIRAxEAPwD9S1hUgDFI0IXoo/KnxtxWfrWu2+g2D3d24SJfzJ9AO9c1fEQoU5VasrRWrZMKXO1CC1ZakaGFSZGVMd24FcfrHxI0jTSVhl+2y9lhU7f++sYP4V5F46+K2pa5qc2l6dAtzdRRNcPbGXyLe1gGT591M+BFHgDr8x5wpwccdJp2mfavCp8Tz6p4utfE93bW9i+lbrPQsyy7WR3Q+c7CMF1aXAfAAAzXyMMdm2da5ZFU6X/PySvf0R6kqOEwXu4iXvdlr956zrH7RVho8jJcTaXYledt5eopwemfm4qnpv7Smmag+IdS0G95+7bX8bHnoOGOTVT4x+HNL+GOh6DJ4Z0ix8LafPqPlanrWn6LHczWkIhlZGCmNt2ZEjU5U/e4xmuX0aTxb8SfGHhDTtT8O6dbacPDtjqHiCG70m1cJcO753Cb58FU6ISyFhkHpXcuH8ydPnWPmn6KxySzGhGfso0I/jc9r0/4uaTcKhuYJbYOcBwA6fgVJz+VdlZ3trqEAltpY5Iz0ZWBB/Gvmb4waH8O/ht4o0TTNOvNR8HahqyTzvdaS5lsrVI42cS3FuxK7G2MqhApJBqxZ+KfEfwv1a1i8QJDaxXTqlrq9rv+wXjMu5UdXGYJCCPkcjPZjXHOtnWUpSxS9tS/mWkku7XU6IxwOLfJT92fnt/wD6bSJW6gH8Kd5SdMVzvhfxhF4isWddsVzHxLA3BXtk+3fPPFdGzHt1r6fB4yljqMa+HleL/rU4alD2UnTmtSt9j/AOmj/p/hRVjbRXqcz7nH7KHYY0iwx7nYBQMnNfOPxQ8c6h4l1y00nR9h1C8aSOwaU5it44wDLdScjKqM/LxklADzXrvxJ1h9O8NgKdstwwhGO3qa+Xbu+8bWPh3VfHHgqwubu8ubmWwWXT4Ibu4tbC3zHEvkScmKW5WV3KBnKRrt7EfDYyjPO80hlXNajC0pr+a/wq/Z9T2qdSOBwf1tfE9I+Xdm34J8ReF9VtdK0jwXDa+NtKuEE3ijw3qtvC99fxu6FdSLNlGZSY28pm+VHACxsoFeheE/DKzeGD4R0CO38S+H9P1Iy2Opa4mbXT1jmV4beIBi1wYGA2MCi7Qo3lgc5Pw98C23iDVLR47Cx0afUtPW61I6G80VrDZysGSG3hdUML3LIzyEKGCp1BII6/4laTqy+JtKi0Pw6txp9vp7xySszxwWuJE2eSsaPiQKJBhQOGANfoSVOm1SpK0V07HziUqi9pN3b69zqJvh7dXyiTWPFetXTqvzR2My2EQ4zwIgG688uar2fgO1uALrQ/FutoBwsqaiL2LcOh2zCRc/QdAfWvF/2hv2kNW8MfD25htNLlsJtVJ0uxu7EpejzpMKXcDBiWMk7gUL542r1rhfFX7SHiX4A+IrRJ5X1jwjr+9jqmqeGp9LfT7lY1G1E2oJlYRhlUYJP8WOa0pYSrUjo9xVMVTpzd09PI9q+I3w5TU7i0vfGGmQ65a2t3b6h/bemwFJVNuXMS3NvljJEDI+fKPOfu143dSQfCPQ7/WfiFfLr/iTxjdPbm1kuB/Z1/AVVpLomIsfsyRgGIeWJUPygMWUn1z4C/E/x38TV03Vb2OG30ieW4aY/wBntFE9sI/3MyTFhudn6gBgAj842sdb4g/DHSLrd4f1BprTwh4in+yuunt5MlpcO6tsRwMxxTbNjqvVsYI301Lkk6NbVdUJw9olVpde+h5v4N1qfwjqmlx2V1dXug6pb/b/AA7qF3G0UtzahFL286uFIdAwYHHzoQRjBr6k0PVItY023vITlJF3V8+fEDS/h7beHJ/AXgzUdNTxxYynVNPsLadrm7N5Apc+eRubcyI8ZaQg4baCOK7X4F+LRrWlQC3bNrd26XkG7qqkAlfwBr8zdJZJnKp0dKOIu7dFJb29T6iEvrmFalrOnrfy/wCAeu0VF5rf3aK+v9tDzPI908h+P2pNp2m+YrYW1tJ7rH+6uRXg03g2OO+8L6fD47uvBGq6lpFjpUMOq6afs1/m0MZ+zXSMMuPtMzCNmOHbO3AAr3P9oPT2v9NljUE/abC4hVe+SnAry3R9Y0Hw3qHhTxPf6T8P7EahBp8w1rXdTkk1Vt0ce/ybfyWEbhlOArheM5rwOHW3m2Yv7ScF8rHXmmuFwyW2v6Hufg/7TH4P8Q63pln/AGhqV9eXc0Fu7eV5/kEwQRs3RcpBGMnI5PHJrz6T9pa+trLRpNQ0/QLCfVIJZorE6ndvcp5TBJlZUsyQ0cnyOOoI9K9V+FqCHwetkWDS2N3d2r555S5kAB98AEH3FeA/tQ+GfEnhPVNG1TwnDazWuraq1xc29yFK2twLScTyIG4Ky2/mlxjl41bq1fc4ZQqV/ZT6nkYhyjSU4HIfGbxtZfFqzhjS80Lwtqls8dxBrlq2pTXtvMjBldALeIEjaR8+78+azV8YtJ4ntdb8QeKdA8draxLGlnrtjfpFbg7xM8ASDajsj43NG2BwMDiunv8A4N2v9gR3aW9neXP9n2V/CkOlWsQb7RuGzHljeVKDpj/WrnbjnldL8C6BrFm1zdNa3niNBcO1lptvbw/ZwlybeNjbLEwKOELH72CRzhgR7UPY+zUY9GeRUjW9pbuep+BfjrpWlpY+HfDWgeGrSO8uGNvbW99fxrLKfnfBNgMMBhiWIwAG9K9P0fxFf/Fr4S6vfXOlw6RPc+eNP8i6a5WTyzmC5VjGhAMgV1+X7qqe+B4LoXgPXLj43r4It5bSLwhbWFyt20Noltcusi2U1xHmNf8AloHhTdljt3gHkY+sdaktPDfhq/vCBHa2FpJJtwMRxohJA9sA4+vpxXjYqMYWcN2enheecWpdD5X8T+NfCHg/4xaLr+vXniTSn1iys73T7XQRbxWc0czoxWaKEi4nJmzksrfePbiu1+Av/El8QXGlIcx2Oqahpyr6Ik820fgoUVhyaP420/XtDm8Pw6ClrZabp9hqF9plhDe67asIowUmWaRAqHIxjLhTkqa3PghjVvGF/fIRJFda1qlyjD+JfOkRWH125/GvieLoqUMHy7+0jt87nsZM+apXXTkf6H0ftFFJtNFevzy7GPKjhfilpRvPD6XQHzWpEp/3cYI/Kvlmx8Fi+v7JPM1efVPCdzJHZabo8NrHugk3y213NczKfJVI/MhVzyhiYLtPX7cnsYry3MMq743VlZT0INfK3xU8Df2NrBuJNKj1yBFEV7pMg+TVrDcHaEnjLLIodcnG7K4IY5+cr4h5HnMcfa1OsuSb7Po38na56KovMMGsPHWcNUvLqd/8G/iNBrd5LdiJbew1u6lgiZZxPCb+3GydY5QqrKkiRrIjgDcUlzjCg3v2iNR0fSbHwfea/dQ2eiR6tL9rlnYBBEdPvA2ScdQccetJpuq6Z4q8J6rJPJodv8NGgtToU2kl0uIGUfOGVRtR0lChFTBBGCM8VO2uWl1odlb+MrS08SeHXCzWmvSWq3FvIuMBrhCp8qTaWBb/AFeOSVyVH3UZLnVaK/4byPAtzwcE/wDh0eBeEfiF4U8bpBpejS6TrF1a28ckqr5IkhCoqMqZt2XLZyBnkkZzUmjTXHw68EpDrGmPYW9rfXEskep28DrvklZ0bYIc5ZCQWV93UAKNoHsXjb4QeD9d0W21/wAIeHfDmoX+ls8sdraWkDQ38DKRNbkoCMun3W6q6qemQcn4c/Cfwbr95N4ru/B9npOgwo9tpVlrViFmeMsDPd3XnAuzuy7VEhyETIPz16v1qKV1DqcnsaqkuZ6mL8DPH3h7xp8WrcaNf293cJp17JPHDGiOiFNNjQEIAEAMUoHfA616p8XfFVjBYR6VdXMdtZMgv9XnYkx2+nxkFyxUE/vGwi8cgv6VWg1PQ9Lnuz8PPDulXOolTFJqttbLBYwKBkiWdF/eAHB2R7mPQ7R81RaXcT23hKLV/C32LxRc32or/bOpawzWpkgWRlnYZU48tVISNsKAvJ5JPmVKilNTeh10/wB3Bx5tT5qbVPAfia+1HxzokNyvjLSbo6iLmFXkttTlnmcwi3u0VAQ0ksKHeOI48bRgmvoj9n/wn/YWn26KxdLC1S0En9+Q/fb6k8/UmvM7e1sfG3i/zfC9h9i8JWl60umW0JYR3l667HvFjztjRQHVCoA5Z+4x9O+F9Bj8PaPBZR9Y0yzerHvXwWNrrOs2p0aDtTw92/NtW/A97C0v7Pwbc/jqafLqbNFLsFFfY8qOYVfur9K57xL4YtPEdiLeZdkuN8cvdG+v+fXrzW8rHaCP5GneWvH3h+FceKwtLF05Ua0eaL0sTSnKm4zg7NdT5T8WeB9a8E6tc3GnhI47u4W5u9PmmaG0vZlYMkscoBMEwIzvAw3Rww4rOtvG9xDqF7daLqieHfFc0xcaPrLi3ku0VjL5InZzDNyghXawwkjv95q+sr7SLXUrdobmMzRkYww6fjXm/iT4JWOsWclvBIJLeTG+3voBMjYORnIyeeevWvlqMM3yJctBKvQW0X8UfJPqd1aOFxz9pP8Adz8tmea61fX9pd3j634D013juIYIdcit2g86GSVozIfLYYI8qRzgjiSPGN1aFrop1O+maw8MaVFNb6ktlML2yuL6WKFpJVDjzSEU5SKTK7/lcDptzGv7Ps2jZj0qO50yI5zHpGpz2ac9TsjkVf0/kMPb4B6nqSGO/k1a8jbqmoa7czg8FRkNKc8Ejn1NdkuKnypvB1E+1r/ic0cqnv7eKXmYnirxRLa2c1n4p1uOx1O5iDRaXYOL2T5owjWy2MJyVO+Q+Yz7QwiYEEnEdxBrnxMaSxk06bQ/D95IJZ9HiYG61SUIq77xlxGgO0ExRkhjncW6V6N4X/Z/sfD0WyAW2lwnBaLT4QhYjPJOOT8x5PrXqOi+FdN0C38u0g2kjDyMMu/1PeuStWzrOo+zUfq9J7t6za7eR2U6WDwb5nL2svTRHP8AgX4f2/hu3WWZUa82bFCABY14+VQOgwAMdscYrtNvP4U/ao6Aj8Kbu9jn6GvocDgaOX0VSox/4PqcVerOvLnkSbaKg+1H0/UUV6nLI5faIlVF8v7o/KnbV/uj8qKKchw2Dav90flVdfvH60UVy1d0ORISaVfvGiijqMZNGqoQFAH0qbav90flRRWsdzOG7Dav90flTfLX+6PyoorWJt0ZS8xv7x/OiiitTlP/2Q==" parent="1" vertex="1">
          <mxGeometry x="175.85000000000002" y="609.38" width="44.57" height="45.12" as="geometry" />
        </mxCell>
        <mxCell id="cJatEB37gMDstE7g0faB-2" value="" style="shape=image;verticalLabelPosition=bottom;verticalAlign=top;imageAspect=0;image=data:image/jpeg,/9j/4AAQSkZJRgABAQEAYABgAAD/2wBDAAMCAgMCAgMDAwMEAwMEBQgFBQQEBQoHBwYIDAoMDAsKCwsNDhIQDQ4RDgsLEBYQERMUFRUVDA8XGBYUGBIUFRT/2wBDAQMEBAUEBQkFBQkUDQsNFBQUFBQUFBQUFBQUFBQUFBQUFBQUFBQUFBQUFBQUFBQUFBQUFBQUFBQUFBQUFBQUFBT/wAARCAAnACIDASIAAhEBAxEB/8QAHwAAAQUBAQEBAQEAAAAAAAAAAAECAwQFBgcICQoL/8QAtRAAAgEDAwIEAwUFBAQAAAF9AQIDAAQRBRIhMUEGE1FhByJxFDKBkaEII0KxwRVS0fAkM2JyggkKFhcYGRolJicoKSo0NTY3ODk6Q0RFRkdISUpTVFVWV1hZWmNkZWZnaGlqc3R1dnd4eXqDhIWGh4iJipKTlJWWl5iZmqKjpKWmp6ipqrKztLW2t7i5usLDxMXGx8jJytLT1NXW19jZ2uHi4+Tl5ufo6erx8vP09fb3+Pn6/8QAHwEAAwEBAQEBAQEBAQAAAAAAAAECAwQFBgcICQoL/8QAtREAAgECBAQDBAcFBAQAAQJ3AAECAxEEBSExBhJBUQdhcRMiMoEIFEKRobHBCSMzUvAVYnLRChYkNOEl8RcYGRomJygpKjU2Nzg5OkNERUZHSElKU1RVVldYWVpjZGVmZ2hpanN0dXZ3eHl6goOEhYaHiImKkpOUlZaXmJmaoqOkpaanqKmqsrO0tba3uLm6wsPExcbHyMnK0tPU1dbX2Nna4uPk5ebn6Onq8vP09fb3+Pn6/9oADAMBAAIRAxEAPwD034C/8E1/CGteAfCnijxRruq3eq31vbaq1raNElrtdVkWNg0ZLDaQrc8816P42/4JofC7xt4r1PXPturaIb6UynT9KaCG1hOANsaeXwOM/ia5Xxp+3HF+zT4W+GPhuTwfJ4ha78I6bfLcx6gsGwGEIUI8tjn5M9a5eH/grdbFY0HwuuHYj+HXg3158ivdazCpLni99jwlPBQXJJbHbn/glT8L+g8Q+J8YxzcwEd+ceV15/Suh8af8E4/hp4ssdCt4pNT0Z9H0+PT1n0vyYXuip4llOz52OTkk9q8oH/BXCzYAj4XzkHnjXh/8YqbSv+CrltqWtWVsnwylhN3cRwGQ60p27mVc48jnGfWh08yjZyTQlVy+WkWjzDV/+CaPjWz1a9t9O8Q6dNp8U7x20k9sfMaMMQhb5upGM+9FfpTd+b9qmxc7BvbC+Spxz0zRWyzDF23NXhMNc/Kr9r6GyuvGHwQg1KZodOk8FaLHcuvHlwkt5jHHI+XjPSvrX9pz4MfBLSf2WNV1Cy0XQ9NgtNPEuj6pZRxrcSzcGFRKBucsQARk9T2r47/beUf2r8ICwUf8UDpag9Dkq+OvBHseK+c5NSuri3ignupri2jOUhkkd4xnnIUnA554HHSvThhpVqVKXNZI8aWIjSqVFy3vYrnPc5bvznB7itXwp/yNWh/9f8H/AKMWspmLMSQxPrjr71qeFGH/AAlmhLnBN/BweP8Alov+Ir16nKotJ30PLhdzUrdT95Lz/j8n/wCujfzopbxWa7nIVvvt/CfWiviIydlofaPlufA/jr4a/CP4+aD4B1fWPiTqGgahpfhew0iW1tNKllG6JMt8xTHDMRx6VyZ/Y5+BjMSPjRq6jPAGgyn/ANkoor3/AGUqSXJNr7v8jw+aNWT54Jh/wxz8DP8Aos+rH66DL/8AEVY0z9kr4HaVqlneJ8Y9Wka2uIpwh0OUKxRw2D8nfFFFHLUqaSqP8P8AIUnCnrCCX3/5n2hcftJfDqS4lYeIY2DMSCdPueef+udFFFYLBQ7v+vkb/XanZH//2Q==;" parent="1" vertex="1">
          <mxGeometry x="261.2" y="620.88" width="23.87" height="27.25" as="geometry" />
        </mxCell>
        <mxCell id="cJatEB37gMDstE7g0faB-3" value="" style="shape=image;verticalLabelPosition=bottom;verticalAlign=top;imageAspect=0;image=data:image/jpeg,/9j/4AAQSkZJRgABAQEAYABgAAD/2wBDAAMCAgMCAgMDAwMEAwMEBQgFBQQEBQoHBwYIDAoMDAsKCwsNDhIQDQ4RDgsLEBYQERMUFRUVDA8XGBYUGBIUFRT/2wBDAQMEBAUEBQkFBQkUDQsNFBQUFBQUFBQUFBQUFBQUFBQUFBQUFBQUFBQUFBQUFBQUFBQUFBQUFBQUFBQUFBQUFBT/wAARCAApACkDASIAAhEBAxEB/8QAHwAAAQUBAQEBAQEAAAAAAAAAAAECAwQFBgcICQoL/8QAtRAAAgEDAwIEAwUFBAQAAAF9AQIDAAQRBRIhMUEGE1FhByJxFDKBkaEII0KxwRVS0fAkM2JyggkKFhcYGRolJicoKSo0NTY3ODk6Q0RFRkdISUpTVFVWV1hZWmNkZWZnaGlqc3R1dnd4eXqDhIWGh4iJipKTlJWWl5iZmqKjpKWmp6ipqrKztLW2t7i5usLDxMXGx8jJytLT1NXW19jZ2uHi4+Tl5ufo6erx8vP09fb3+Pn6/8QAHwEAAwEBAQEBAQEBAQAAAAAAAAECAwQFBgcICQoL/8QAtREAAgECBAQDBAcFBAQAAQJ3AAECAxEEBSExBhJBUQdhcRMiMoEIFEKRobHBCSMzUvAVYnLRChYkNOEl8RcYGRomJygpKjU2Nzg5OkNERUZHSElKU1RVVldYWVpjZGVmZ2hpanN0dXZ3eHl6goOEhYaHiImKkpOUlZaXmJmaoqOkpaanqKmqsrO0tba3uLm6wsPExcbHyMnK0tPU1dbX2Nna4uPk5ebn6Onq8vP09fb3+Pn6/9oADAMBAAIRAxEAPwD4qpM7eQCfYdaXB3MuPmU4I7g4zRX6lLZ6n5t1Vz7y8Ofs3fDe7/4J+y/EWfwzFJ4yTQ7m5/tXz5w/mLO6g7VkCn7o6gj2NfBYycH2r9PfCjf8arbr/sXLz/0qf/CvzDBG3r2FeNlspSdXmfU9XGRjGNOy6C0UUma9s8s/QX4G/An9l3xJ8JfCWo+L9f0m28S3GnxSahFceJzA6TlTuDRmT5T2xXdN+zX+x2ysP+Em0PkY/wCRvI/XzOK/L/r94ZHbk/ypcD0H/fIH9a8apl8pyv7V6nqRxsYpJ00fuHp/gP4XQfs7y+GrfUrN/hY1jNE14mqEweQ0jFj9oD9AzEZzwa+e/wDhm39jnp/wk2h4x/0Np/8AjlN8K/8AKKy5wB/yLl5njP8Ay9PX5ggDB+Veg/h/+vXk4PByq89qjVmejisVGCg+RO6P0Z+Kn7P/AOynovwy8Xah4d8Q6PP4gtdKuptOji8UGZ2uVhYxAJ5h3HeF+XHPSvzt8pP7w/OocD0H/fI/xpa+iwtB0E05OV+54desqzTUbBSHoaWnR/6xfqK7HujmP0j8K+NPD8P/AATGutFfXdNTWf7BvIv7Pa7jFxvNzIwXy87slSDjHQ5r82R938qpSf64f9dB/Or1cWGwqoc1ne7udNau6yimtgoooruSscx//9k=;" parent="1" vertex="1">
          <mxGeometry x="321.88" y="620" width="21.25" height="28.13" as="geometry" />
        </mxCell>
        <mxCell id="cJatEB37gMDstE7g0faB-7" value="" style="shape=image;verticalLabelPosition=bottom;verticalAlign=top;imageAspect=0;aspect=fixed;image=data:image/jpeg,/9j/4AAQSkZJRgABAQEAYABgAAD/2wBDAAMCAgMCAgMDAwMEAwMEBQgFBQQEBQoHBwYIDAoMDAsKCwsNDhIQDQ4RDgsLEBYQERMUFRUVDA8XGBYUGBIUFRT/2wBDAQMEBAUEBQkFBQkUDQsNFBQUFBQUFBQUFBQUFBQUFBQUFBQUFBQUFBQUFBQUFBQUFBQUFBQUFBQUFBQUFBQUFBT/wAARCACCAuIDASIAAhEBAxEB/8QAHwAAAQUBAQEBAQEAAAAAAAAAAAECAwQFBgcICQoL/8QAtRAAAgEDAwIEAwUFBAQAAAF9AQIDAAQRBRIhMUEGE1FhByJxFDKBkaEII0KxwRVS0fAkM2JyggkKFhcYGRolJicoKSo0NTY3ODk6Q0RFRkdISUpTVFVWV1hZWmNkZWZnaGlqc3R1dnd4eXqDhIWGh4iJipKTlJWWl5iZmqKjpKWmp6ipqrKztLW2t7i5usLDxMXGx8jJytLT1NXW19jZ2uHi4+Tl5ufo6erx8vP09fb3+Pn6/8QAHwEAAwEBAQEBAQEBAQAAAAAAAAECAwQFBgcICQoL/8QAtREAAgECBAQDBAcFBAQAAQJ3AAECAxEEBSExBhJBUQdhcRMiMoEIFEKRobHBCSMzUvAVYnLRChYkNOEl8RcYGRomJygpKjU2Nzg5OkNERUZHSElKU1RVVldYWVpjZGVmZ2hpanN0dXZ3eHl6goOEhYaHiImKkpOUlZaXmJmaoqOkpaanqKmqsrO0tba3uLm6wsPExcbHyMnK0tPU1dbX2Nna4uPk5ebn6Onq8vP09fb3+Pn6/9oADAMBAAIRAxEAPwD8+uPSjj0ooqyA49KOPSiigA49KOPSiigA49KOPSikHPHfvmgBePSjj0pWUrjKkEnHIIH59P1pOfQfXIIoAOPSjj0pM7hleQOrAgj9DS0AHHpRx6UUUAHHpRx6UUUAHHpRx6UUUAHHpVi3s2mXJ+UfnUAXLBfU4rbVdowOnpXXh6aqbnPWqcpS/ssf89P/AB3/AOvR/ZY/56f+O/8A16vUV2/V6X8pye2kUf7LH/PT/wAd/wDr0f2WP+en/jv/ANer1FH1el/KHtpFH+yx/wA9P/Hf/r0f2WP+en/jv/16vV2nhj4X3viLTVvpLmOwgf7nmqSzenHFdmFyt4yp7OjC79bfizjxOYwwlP2lV2W3f8Fqee/2YOMSZzwPl7+lL/ZY/wCen/jv/wBevY9U+Cscnk/YL1osLtk+0qX3t6jFU/8AhSd9/wBBWH/vy3+NezU4Xx1OfKqX4o8inxJgqlPmdT8H/keTnSwGx5mPfb/9ej+yx/z05/3f/r17HpXwVENwTqF+00ITb5dspQ7vxrE1z4S6hpdnLeQXUV6ka+Y0aKQwUZycc8jHSoqcNYynRdWVP7mnt5IqnxDg6lZU1U++6/Fnm/8AZY/56f8Ajv8A9ej+yx/z0/8AHf8A69XqK+c+r0v5T6H20ij/AGWP+en/AI7/APXo/ssf89P/AB3/AOvV6in9Xpfyh7aRR/ssf89P/Hf/AK9Mm08xrlTv/DFaNGeMUSw8XsHtpGH0OCMGk49Kmvk2XOB6ZqGvJceVtM9GMnJXQcelHHpRRUlBx6UcelFFABx6UcelFWtM0u81rULWx0+2lvb26kEMFvCu55JGOFAHcE5yew5oAq8elLx198becn6ete82v7DPxnuUhdvCiwLIRnzb+AFAe7DfxXe+Jv2efgJ8KdTHhvx18SNbXxPBDG95DYWeIlLoHAAETY4PrQB8k7Tuxty3TaAcg+h9KTj0r618M/AT9nj4mazD4Z8JfEjxAPEV4ClnHd2WYi4BbJBiXdwpPUdK4e+/YW+MlpNcCLw1FeQxsQk1vfQlZOcAj5s4JosB4FwFJ44Gc54H1PrXSeGvh14j8XRiTTNJmmgbpcOPLj/Nsfyr0X4SfA+7uPEN9J4r06ayGlzmF9PuF2s8wGW3D05HrnNfRVvaf6uCCLCk7VWFTjOcYxzk57AV83mGbvDT9nRV3sfr3DPA7zOgsZjZ8lN9Fo/vPk28+BHjOzt/N/suO4H923uY2b8s1wt9Y3Wl3MtveWs1rPGcPHKuGHvj09xX6NeKvhV4j8EeGLDXdUsxZWt4+yONpj5y8ZBZR0/mK8m+Inw+0zx/pLwXSLDfxr/o14B88Z9Pcexrio51WhUUcVHf9T2sdwDgsVhXiMlquTTa76rfY+N+PSjj0q1qumXGi6lcWN2nlXMErRSJ6Y6H8aq19empRUlsz8LqU5UpOM1Zp2+4OPSjj0ooqjMOPSjj0oooAOPSjj0oooAOPSjj0oooAOPSjj0pPc8DGc+3r9K9a+Ev7LvxA+Mdr/aGkaXHYaICAdX1SX7Pbn12Ejc+PUDA7kUAeT8bc474/E9KTj0r65vP2DY5tDs7HTfiL4Vl8WQyyfaImu8JIh+4qgZPHrivCPix8AvHPwTuo4/FWiSWttM7Rw6hAfNtpWHVRIOA3s2D9aAPPePSjj0oGDnnvjHfJ6ZooAOPSjj0oooAOPSjj0oooAOPSjj0oooAOPSjj0oooAOPSjj0oooAOPSjj0oooAOPSjj0pG+XqVHodwGfbnnP4UUALx6UcelJRQAvHpRx6UlHfHRh1U9QPXHXFAC8elHHpRRQAcelHHpRRQAcelHHpRRQAcelFFFABRRRQAUUUUAFFFFAAozjrk9ABzkdQa9m+B/7LuvfGCxl129u7fwr4JtQzXGvap8sRA67ASN+O5zgdM54qh+zP8GP+F2fE600q8ZoPD9nG19q1wGxst0HIz23nAz25ODiu4/aE+MSfGhNV0fw9q1toHgjwsscWk+HQPJW+iRtom4+8QeiHgdevNAG3cX37LHwvkazh0rX/idqCfLJdLJ5Vu/uuxox+lPvPHX7NGqXbadr3wp8R+D3baWurWdmdFYBgcCTPQ56V8tQ6XeT6fPfJaSTWds6iW4VQUj3Z2jPYnH4Va8SeI77xVrM+q6iyveyqqyOiBDtUBRjHPQY60AfQvjj9kWx17wxceMPg54mi8e6HFzNppIGoQeoCgDew/u4DHsDXzRIpjdkcFHU4ZWBDL9R2x3HUV6N8G/GGs/C27vPG+ieI4dFu9NxEtm7MTqgPWEoCMxn+927Yr1n9qbwZofj7wPoPxy8GW62mn62/wBm1uwjx/ot9yA+P7xIIJwAcrx83AB8wUUUUAFFFFABRRRQA5f9cn+9W3WIv+uT/erbr0sJ9o4MSFFFFegcgUUUUAFe033h+88S+BdDgsZlt5EjikZmdxx5eP4c14tXqniy6ubf4d+GxayyQSv5MYMTlCQU6cV9bkU4Qo4hzjePL82fJ51CcquH5JWlzfJDNT+H/ivWPI+16nby+Snlp1Tj32qMms//AIVDr/8A0EIf++3/AMK526t/EVnDJLJdXW1Pvbbokj1/ipY7TxJJGri5uvnAKr9qOTkZ6bq2liMJKWtGpf8Axf8AAMI4bEJaVY29EdfpPw78VaHcmez1S3icrs5ywx9GU810HhXwzqHhvT9VN9cLdyTJuVldz1Dkj5sda8wsYPEGowiaG7uvKYkBmuSM4OP71d98OHujp+txXc0s0sceD5zl8fI/qa9fK62HqVkqUJJvms23poedmdKvGg3UnGSVrpJa6nkNFFFfmUviZ+hR+FBRRRVlBRRRQBlaj/x9f8AqvVjUf+Pr/gFV68Op8Uj16XwhRRRWJYUUUUAFe8/sLwRXH7T3hHzE3+WtzImf4WEEnI98EY9CM14NXvv7Cf8Ayc94U/65XX/pO9AGVrnxl8S6T8fNRv8AUPFOuPpVn4laWeFL2VlNvHcncmzdyu0bcf8A6q9j+JnxE/Ze+K/jHUPE+vN4wOp3nl+Z9mhEMbBECDCjrwPWvFr/AMN6De+LPilruvw3t5b6Xq9wqW9lIEdmkuH5zjp+FYvivwb4eh1LwlPpqara6Trlr5slsqm5uouSPkUYz09utBNj3z4f+Nv2W/hn4w0rxNozeMxqWmyGSAXMPmxgkFfun2Yjr3rxvxN8cvEXiD42X2r6D4r12HSLvXfPsojezRgQtPlFCbsBe2Kz77wF4K0u3M95qPi60t1IUz3GgeWgJ6DLMK5me10C38XaInh/UL7UbVrmBpJL+38oq4l4AwxplrfU+8fileNqHxA16Zjyt00QUjgbPlXHvgA5OelZPhnxRdeEL+LVrIot3CH8qSRN/lsybAyj1A9c1v8AxijttP8Aijr9pFIrOGjuJE6bS6cH3Brj1UCHAG5f7pr8pxilTxMubfmuf2hk/wBXxWUUYRV6bjFW+Vmj1rxXqN1qnwB0C5u7iS6uJNauJHmlYszMVOTn+XYV5G7RvkNkgHPNeh6l4g06b4I6HpMdyj6lBqcs8lr/AMtBGQRnH/168+jk3SYK4OcfWqxbUnGS7JCyKksPRrxcHFKcmumlz5a/aK0+Ox+I7TRphry1jnk+pLAn/wAdB/GvMK7f40eJYvFHxC1G5tn8y0t9trGwOchRjj271xFfo2Ai1ho8+5/KXEdSlXzXESo/CpNoKKKK7T5wKKKKACiiigAooooA9y/ZR+DelfE/xhqes+KXEPgrwvb/ANp6u+cCbusbH0IVzj/ZHrx0/wAS/jFrXx4W8vr7V5PBHwm06b7LY6ZYjZ5+0/InlgqJHI5wQVXoKu/Dlm0X9gj4l31sxS41DW4bSZx1MYMChT7YZh+Jrwjxz4nstU0PwnpWmSMbTTNOVZlK7cXTNukP4Hv6UAUvFVx4T22qeF7HVLYxkmW4v5lYyemFQALj8a9v/Z1/aWmsZIvh98R5P+El+HutbbF11D97JYFziN1Y9I89jkKOV21824A5HX6D+gFBB2nBKkjBx34xg+2Py60AelftCfCGb4J/FTVPDbSPcaen+kadcOcmW3fhM+uDkZ74rzavqX9tCVtW8EfA3XbjDahe+GlS4k7vtELAk/VmP418tUAFFFFABRRRQAUUUUAFFFFABRRRQAUUUUAfZX7G/wCy34J+J3w8uvFfi9J79ri/l06y0+G8a2T5ADgbSGaQ5wORWZ4p1L9mfwV4hvtD1v4W+L9O1OylaGa3mvpQ24dCP9I5HfPQryM9Kpabf3Wk/wDBPuG+sriS0vbfxiZIrmFisiMpQqwI6EdD61v6PrXh/wDbj8IxaBrs9toXxm0q2KWGqH5Y9UjX/lkwBznuy8lG5UnpQScx/wAJ5+yj/wBE78Vf+DCT/wCSKX/hO/2Uv+ideK//AAYSf/JFfOfivwrq/gfX7/RNdtJtN1Wxl8me3myCGzjj1GPmz0I5GeldF8Hfg/4i+N3jO28P+H7cuzHfc3jBjFawg4aRyOg7AdWPTjmgo+n/AIR+G/2dfjZ4si0Dw18MfFM0+zzp7iXUZVht4scu7faOADxjqT0yOa8y/bM+Afhn4L694au/CE8jaHrkE8kdu03mpG8ZQAo/3tp35xnjHU10Xxj+MHh/4FeC7r4S/CS4zIcp4h8VR/626l27Skb/AE4LdFHQZ5qv+11z8E/2fc/9AKYZ7nKWuST69aAPlqiiigAooooAKKKKACiiigAooooAKKKKACiiigD6n+BEz+Cf2PPjL4qtMx6nf3EOjJKo+cRlVU4P0nk/T0r5XAUKRgcnJGRgnPf2xxj8a+p/2bdZ8HeKv2ffiB8NfFni6x8Htfahb3lpeag4Gfu52gld3+pHcfe9uWr+y58Ji2D+0LoI/wC2MX/x6gDzv4P+Irfw78OfGM99aJqOnfabNLu1kGcwyOVdgOzc9a4b4heCx4P1iI2sv2rRdQjW5069HPmRHqD6Mv8AEO1dZ4F0qK7h+Ifg/TbyO+uLqILp0oIQXfkS5+XJ7ryKXVtF1Lw58FZ7DxPbNYztqayaNb3GPOGf+PggAnCH9aAPKlZDhu4wcqRkkf09q+p/2X5v+Ew/Z4+OXgu5JltoNMXWLcNyY5EDMxHvmKM5/wBmuc+H/wCzz8OPFng3StY1f416T4e1O8h8ybS5okaW2b+437wZ+vFeo+HdL+Gv7Ovwl+Kcmj/FHS/Gms65o5sre1tyqSqTvUjG85+/7dKAPitfmXNFC/KuKKACiiigAooooAcv+uT/AHq26xF/1yf71bdelhPtHBiQooor0DkCiiigAr1LxdN5HgHwtKV+5JC4H0TpXlteqeKplh8C+F3k6I8RbPTGyvpsnkvq9e3SP6nzWb/xsOu8v0OUvpLS3i1K4jjvi14rLiaLCLu759qntJrWa6ttSKXnmQwqNixfIfk65/8ArVLczFk1R5NUju7e4ifyYVbJy3TjHarUN9GtxaXC6jGljHEMwA88DHTFdEeXmu5L8N777nPJvksk/v6W22KFj9lutNs43S7U2rPzDGCp+f1rsfAN4L4+I5lRlVjnDcfwPXJ2dxv02yjg1GOzMBJkWRtoOTn0rrPAjR3MniV42zHL09PuPXrZZJvEU7P+uXT7jyMwio4epdf1c8eooor84l8TP0GPwoKKKKssKKKKAMrUf+Pr/gFV6saj/wAfX/AKr14dT4pHr0vhCiiisSwooooAK99/YT/5Oe8Kf9crr/0nevAq99/YT/5Oe8Kf9crr/wBJ3oA4zXvGfiHwn8U/HX9gTSKbnVLpZ0EAmRlWZyCQVOCOlcz4i8e+JdY1uz1PUb64g1C0Xy4JUUQeUuScADGOuOlet6Tezw+LPi9a6Xq9noviGbVpBa3F64TI+0uZAGIP06Vj/EDVtvirwKb7XNIuNYtLPGoak8a3Fur792XCAbvSgDzPWPH3iHXLM2mpa/qGoWrEMYbm5Z1JHQ4PpVPwzIH8Q6SFcY+2RY2sGG7zfbtXsPiT4gjRtLe50/XvBeuXIZFWzt/DhRzu6n5h2rzu48XXfjLxhotze29jbPHcRRKthbLAuPMB6L35oA+if2yvHWo+Af2qr6/sGDo2mWQmt3+5IoTgex96m8K/Gjwt4ohXbqMem3eMva3p2Ff+BfdP51y3/BQX/k5DUP8AsGWX/oNfNm0YAIBAOcEcfl0rycZllHGy55aM+4yHi/MMjh7KD56b+zLofbt1408O6bEZp9ZsUUjaf3yk4rxn4pfH+G/sptK8MNIsco2S6iwwCvpF7+/FeD+Wu3G1f++QacCQc5yT1PrXFhslpUZ+0k7+R7uaeIOPxtF0cNBU092m27dhAu319s+n+PvS0UV9Dyq3Kj8scnrd3b3YUUUVRIUUUUAFFFFABRRWh4c8Paj4u16x0XR7V7/Vb6cW1tbRdZZT0Ue9AH0r4Q/5R7+Nx2PiSL/0O3r5a5/x989a+72/Z08f+Ff2Mb/wRD4fl1LxXrWsrezafayxk20SlDl3Zgv/ACy9f4vbn5z/AOGO/jPx/wAUBqAz0Bnt8nPTH7ygDxyj+HFeyD9jn40MePh/qOO582D/AOOUn/DHfxnOP+Lf6hzjB8+3xz/20oA7/wDa9/5JH+z+TwP+Ed/9kt6+Xa+7vjt+zn8QPiV8C/hMNL8PynxB4b077BqGjSyxrcLxGN6/Ntb/AFfTPfrxXwkylWKnqpwaAEooooAKKKKACiiigAooooAKKKKACiiigD6jT/lHa/8A2Nx57c7K8g+HPh2PQoLfxxrt1cabpFjMslkts3lz3twv3VhIw2B/E2SPXNfTH7NPg3Tfjh+yjd+B47mC41LTvED6jJpzTeWZkG3aA3OAefmwcelc740/Yn+NHjbVhd3UegwW8K+VaWcN/iK1h/55oNnAPc9TQTY0I/GHgn9tbw0NN8XXuneA/idpo/0HWpGVYb6DP+rY5G75exOQ3II6VX8X/HLwL8B9Gj+Fvw+hOraXKrxeJfEttIUubt2TafKkXrjseijgAHmuWb/gnj8WWUBo9DbnPN8Mf+gcGl/4d4/FnAHl6KABgKuoYA+g2daCjw/x34Gk8JzW95ZXH9p6BfDfZalDyHB6q3PyyD+IHr2r3v8Aa6z/AMKU/Z94PGgzHB68Ja9q6XwL+xV8WNBhuNG1ez0XU/Ct9lbuzOofNEe0sXyfIy9v61jft1rpnhrS/hX4Gs9Sh1G88N6VNFcGJwxQEQhdxBIBPkvxmgD5OooooAKKKKACiiigAooooAKKKKACiijFABRRRQAD5cY4AwMAkAAdAMEY70rMSc5I/E0lIG3YwPlIzu7UAOjd4ZA6MUZTkOpIb25Ht19amvL+61CXzbu6mupsbfMnkLnaOg5PT6dagx2GSe+KODxnntmgBDljknPOTwOfr60bensc9AO+aWigAooooAKKKQttzkdBnHf6UALRRRQA5f8AXJ/vVt1iL/rk/wB6tuvSwn2jgxIUUUV6ByBRRRS8xabBXtM+hWvinwXotpLfxWpWGNznDHIGMYyMV4tSrleMtnjgEgcfjXs5dmEcF7SM4c6krdjx8wy+WM9nKE+Vxdz1X/hU9v8A9BuP6mJc/wDodH/Cp4P+g4nv+6XP/odeUbR6L/3yP8KNo9F/75H+Feh/amE/6Bl/4E/8jh/srGf9BH/kq/zPWP8AhVNvx/xO0/79r/8AFVueG9AtvCen6iov4rozRccou04I/vHPWvC9o9F/75H+FGOozwa3o53h6Hv0qFrf3n29DCpk2Irfu61e9/7q/wAxaKUjHr+VJXxkr39T62K09AooorQb0CiiigDK1H/j6/4BVerGo/8AH1/wCq9eHU+KR69L4QooorEsKKKKACvcf2K9Y0/w9+0d4ZvtTvrfT7KOK53XN1IscYzBIBlmI7gfnXh+PemHDfeAbrwVBHPXGc+9AH1z4u/ZB0PxR4r1nVk+NXgmKO/vZbiONrlNy+ZIXIP7znriskfsU6KvT43eCVPTK3CAgegxJ/jXy7tHPAyf4j1o2r6UAfUX/DFGi9P+F2+CMdh56H6dZKtaX+xnoun6paXT/GvwSywTLLj7UnzbSDj/AFntXyptX+7TQoHGOKAPob9uzXdN8RftBX17pWoWup2badaxiezmWVNyjBGVNfPdIqheFCqOMhVAzjp0paACiiigAooooAKKKKACiiigAooooAKtaZql3oupWuoWFxJZ31q4kt7mFtskTjo6ns3vVWjH16Z6UAd8f2gPiYwwfH3iH/wYSHHTsTjsfzrrvhn+0N4y/tq70/XPH+twWmpWj2cd7NeuVtZm+5JnsorxPGM5O3H96jJ7HHGMgcnHQH2FAH0PZ3nxrt9RDat4/wBTsNGifzJtUbWy0Gz1XDZb6Vyvjz9pTx1q/jDU7vRfG2vWelPKyW0aXrqNqptDY9+uK8j8yTYqeY2wfw7iV/AE4/Sm4z15/ljvQB3/APw0B8TOf+K+8Qknqf7Qk/TmuCZizFj1Y5NJQBnI5yPagAooooAKKKKACiiigAooooAKKKKACiiigB0c0kT70kdH7urYY4zgE9xyOPapv7Svf+f25/7/ADf41XooAsf2le/8/tz/AN/m/wAaP7Svf+f25/7/ADf41W68Dn8KWgCw2pXrYzeXDHpkzNkj061A0jSSNI5LyMcszMSWxnGSSSRSUUAFFFFABRRRQAUUUUAFFFFABRRRQB6X8AfgrJ8dvGl14fj1iPRDb6fLftdTQ+au1CgIxuX+/wBc9q7mx/Zd8NeK5zp/g/40eF9f1x/lt9OnikszcOeiIzEjJ+lan/BP9sfGDXwOh8L3ykAZHLxY/KvmpZJbe6E1u7LPFJmJ1Y7g/wDAfXd9KANHxT4X1XwT4g1DRNcspNO1Owl8q4glHKHrx/e4II25zz6VkrIr/cO/nHykEH3Ht719y/tDQSSfHLwRdW3w/tviH4xuvCUMl5pdyrmOK5ztjnlAxuAG4ESEZwORXI/HbwHNq37Ns3jHxN4S8P8AhTxjpOsw2JHh6SERz2sgUhJVjkdVcZYYLD7vvwAfJORhSSOfT3OABnrxzx0r0vXvhAmi/Abw38Rhqkkk2r6nNp8lgYtqxiME+ZvJ6EDoQMV9G3nhOOb4d6DdfCLwP4H+IPhpdHiOsWt1FHLrX2wp+9L5ZZVPfavIrCt/Gtt8P/2LfAuoTeGNK8QXn/CR3y21vrMbSwWjgyZfyww3ttG3DGgD5o+G/hJfH3j7w74ba5+yJql7FZNOgDlC5xnbkZx6ZFP+J3hBfhz8RPEfhdbw3S6XeyWazMArSbX2q2zJxk9gTj1NfT99o+i6t44/Zq+IOm6FYeHb/wAUXm3UrHTYylsZIZUXeq5+Xdv6dsdTWncfELw3rf7WOt/DnU/ht4dudC1nXLiwu7qS3kbUJZXJzP52cKN4zsUDHrQB8TbhtY5+6cHnGDgE5z9SPwoDoy7lYFfXI/n0r6j8FfCvwz8MNP8AjL4y1XSoPFv/AAhepf2RpGn337y3aSSUqJJVH3gAynH61VmbRf2gvgD4+8UXPhjR/DPi7wZJBcpqWh25t4ru3kLAxyRkkFhtPOOeOlAHzMzKpALBSegY4zjqOe4PY0rELnJxj1OOOOcdccjPHFfa3wR0TV9evfCmkX/wP8L6L4A1ONLa7utTUJqF2rIQ1zHJM6zudwDfIpBzwa5/4ceB/B/gfwj8f59d8OweKIfCGtRRafHcn5y0c7CNN/UK2F3dc4oA+SA6nnPy92yMZxkDr19q9J0H4Rxa58AfE3xGGqur6PqkOnJp6xho5TJs+YPuxgb+gznFex+BtY0DxL4R+JXxw1nwR4fmvNGW00vS/D1tbldOinkwvnSRZ5PzA9fXmrl947HxE/Yo+IOozaBo+hXy+I7CKYaNbNbxXDF4W8xoycK4yBlPyoA+SKKKKAHL/rk/3q26w1b94p981u49DxXo4XTmv1ODEiUUUV6Cs3Y43ornR+H/AAXPrVnJf3F1DpmnKdouLj+I+wo1rwnb6fp5vLLWbTUYUIEir8jrn25zW18QdyeH/DEUAxY/ZfM2KPlZ/p3NcGp3Y3ISCQcHA3kHAAx6/SvbxdLDYV/VY0rz/mu/yPFw1TE4pfWHVtH+Wyt940sA23+L+7xmtvT/AA+t/wCG9T1PzmjayKjy8Z37jjrniu60LS21dlsr7w3ZadpdwhCSLxMpAzx/Ef8Avmue0OIx+A/FKZzsliXP/A66qOVRi+aXvLll5aqJyVszlJcsfdfNDz0crHGsMdCpOcYJx+dNDbug/wAK9UutJtfDa2llbW2jyIIg102ozL5jk/jx+tU9P0nRodX8TCKGHUrCCz8+Jd24KcZxu/8ArVLyWUZQg5a9V8r/AJGqzVOMpqOnT77fmecZGcZz6/8A1vWkY7cdDnnr1HqK7tZrbxR4P1meXTrSzn0/bJDJax7PvHGDzSXH2TwZ4a0poNNtb28v4zPNNdJvCqP4UH9ax/svT2vP7lr7dL2/M1/tC79ly+/e3ztf8jA8SeH10GDSpEmMpvrb7RtKkbD/AHff68Vi+oyNw9DkH6GvRPG0i3F14SkXTftkbWeVsYydjHuAc9PerM+kzap4d1n+0tGstOltYTLbC12q647EBjXZXypSrzp0ZWtto/5bnPh8ycaMJ1o3vvqv5rHmXHr0OCe2fT60mfUc16FeX1j4b8MeHrxdJtLy8ubYoTcLlQB3I7t715+x3Puxj2rxMbhVhOSEp80tL/NXX4HqYTEfWuecYcsdbfJ2f4iUUUVw7HoGVqP/AB9f8AqvVnUPmuc57YqtXiVPjkj16Xw2CiiisSwooooA9N+Fvwt8IeONEnu/EPxP0vwVex3HkrYX1q8zuuFO/KsMfeIx7da9L8b/ALIvhT4c3y2HiH42aJpmoPb/AGuO1m02UM8ZBKsMP32kfhXzTDnzE5/i9sdc/wCAr7K/aR8BQfE/9sH4e+GLuV4LXUtJ02KeYN82wCV3Ck9CQpH/AAL2oA+Ms/j6KvJ+v+TS+2QT6Drk9K+t9O8feDdY+Pkfwtl+F/hmPwRNq/8AYCOliRqKsW8lZ/tP3t5bnrwK+cPil4QHw++JHifw0szXMOk6hcWiSN94xqcL9DQB67p/7Lmg2/w48JeLfFHxU0zwnD4jtzcW1veadJJjH3huV+ccc4Fc38Sf2bdR8G+Ej4w8PeINK8d+Dkk8qbVtHkObdj082NuVHI5z6+ld3+0Ymf2X/wBno/NhdPuAcbj/AM8t2MfjU37DBa4uPinpuosf+EXk8MTSahFMP3O//lm2GGM/e546CgD5bZwqhiQFzjJIA+uelOHzdPmHZlwQ30Oa+mGbRP2d/gX8P9fsvCmi+JPFvjJJLyfUdftjcx20CnAihjDAAnI5xxz1xWH+0N4T8P6h8N/hz8T9A0S38OSeKYbiHUdLsvltlnhfa0ka5+UHBOPp60AeB0UUUAFFFFABRRRQB6f8AvgRf/H7XNa0jTNSg0690/TWv4/tCZSdg4QR5yNuSfvYP0rz/VdCvtC1y40fUrd7HUbWc21xDMMGJwcEH+Y9a+gP2Lb6fTLz4sXtnO9rd2/g29ninh4dHV0dTnnoa3PFWmW37WXw7g+IGiQxx/FDw7FCniTS7cAPqduBxdxp3bAJP+6efu7gDxH44fCmX4K/ES88KS6kmryW8MUv2mKExh/MjDjgk4HOM5rgV+fdt+bb97AJx7H0/Gvu3x/8OtD8dftgeNr/AMTWjalofhrwzDrM+mM5C3jpAoVDz93g/T8a8++Fer6D+1O/inwdrHgbw34bvYdIuNS0bUdBsfs0tm8W393JnPmRnceucY70AfPTfDzV4/hyPG7pEmhHUv7KBZ8SmfyvNwFxjAXrzxWnceA9Cg+Dlv4yHi+xfXZNRa1k8Ngfv4olzmZmDdOBgY79a+i0+KSaB+xb4W1VPBfhW9Y+IJLE2N5poe3+WFh55Xd/rjsOWzz6Vg+M9c0fUf2Z/CHxIi8C+FNM19PFRtnistLVbeeKOKTEbpk5B2jPPagDhtR+AfhzwH4T0jUPH/jd9D13WLEahYeH9M057y4SFk3RtMwZVTd0HWvEVYOuQeACScgjA75GeM19zftDfE+20v40+CtBuPA3g/WbfU9N0syz6ppQnlRZTgohLYCr/CMcVzv/AAprwjq37YfxIt9Q0eE+FPCljJrB0S1HlxSeXBG0cYAPC7nJPX7vTmgD48yMkblOBk4YZ9uM8fjSMwXG4hSegY4/nxjNepePPjpb+PtCudNfwB4S0fMyPZXWj2Ztbi0UOGClkYbgQerDpzivpj4N+D9T8ba7pPh/X/gh4Y8K+ANUtTD5lxiPUlPlHbOkkrid2LANuVcDNAHx14W+H2r+MNE8T6tp6RfY/Ddmt9qDTOUKRs4RNoxyWJOAcdK1fAXgHQ/F3g3xjq2peMLHQ9R0S2Waw024UtJqTkEmOIg9Qdo6H71fRPwD8RReCvgn8dLCPw7oWo/8IyFQS3tkJDqAM8iEXHP7wKFG0DGDWP4T8SaL8XvgD8Y9S1DwH4R0jUdB062msrrSdMEMsTO/LEknn5BzQB8q/d5bKj3BB/Lv+GaaWCruY7V4OScYB78/jX1T8QtU0P8AZh0PwR4f0fwT4d8RaxqmjQatq+qa9Y/aXmaT/limMeXGMHke3rXSWvwn8IRftOfBnU9L0S3tfDXjmw/tV9AnXzY7eUwMZFUHPyfOMZ9DQB8Z7huAzzjp0OT04PP6Uds9jyvuD0Oen619lfCvUvCnxN+MHiP4RT/Drw3pnhlkv4LS6tIX+3wyQZ2zeezEluPQVi/ADwvY6t8GZx4J0zwfr/xROqSrfWfiyJJJpbT+BbdZfkY/SgD5QX5hnBPG7pwBnHJ9e9FdX8VLe/s/iBrEeqeGLfwZfrMfO0a0jZIrZgAPkDM2FOcjrXKUAFFFFABRRRQAV6B8CfhJL8cPiRZ+EYdUj0eW4gmn+1TReYq+Wm7GNwzn68V5/X0R+wK4H7TGjds2N5x2/wBV6UAfPt/bix1G6tC4dreSSMtkc7CQTjJI6ZFMtYxdTRxo6ne6plSDyeo/Cvp/4Z2vhzSfgD8VvFmr+FdM8Talo3iSH7FHqCHYrMdg3FcMyjfkrnnHUVD8QF0j4ofs26F8R38MaP4e8T2fiYaJM2iwGCK5hZNwZ0yfmHrQB5P8fvhPF8FPiNceFotVfV44bW3uvtckewN5qbtoG45K9OCc9eK882nk46ckAc+59P1r7e/aT+LukeBf2jYNNm+H/h/xALq30+PU7zWLZ7u5njeMAxw7yViCxnHA5PpWfqPwH8GfDH4pfGbxBdaNFrWheDLC31HTNAuC5gM9ym5A/PKKeCP5UAfGC/Nnbk84OAcD0yelC/vPu5bqQVG4HHXGM8jvX1B4fuNE/aU+FfxGk1PwfoXhvxP4T05dY07U9BsxbCSJN263kTJVgdo49+tdV8OvhT4P/aU8F+G/HVzpMegv4VkktPFVpplkEXVo4ImkVoVUcyNhQwGfve3IB8aKyucKwJ5PBB6d+CaWun+JnjKLx74y1LW7PSrTQ9PnlItdNsohHHFCh/drgAZwvJPHpiuYoAKKKKACiiigAooooAKKKKAPVv2bPjNYfA3x1ea9qGk3Ot2tzpk1k1taTLEw8wod2WHbZ0xznrXXaX8bfgt4MvotW8M/CG9udctj5lo+v62Z7eGQdG2KPmx6E189thuoB9yAT+Zoyfr7ZIH5AigD3nwT+1Bcf8JX8QNR8dWd5r0fjSxFjfS6Vc/ZbmzUHK/Z2P3QMn5ST161R8RfG7ws3wV1r4ceGPCt9pFhdanBqcN/e33nTsyEF2mwqgF8KPlxtx3zXiZUMACNwHYgEfrS9OnHORwOP0oA9/8AAHxx+Gvwv1qx8W+G/AmuWHi+ztfKihbWi+mtKY9hkddnmMO+wnFcp4o+NMPib4E6D4DbTJo9S03WrjVptRLr5Uhl35AXsPn9T0ryraOvf8P54z+tBXOO56biBnHpQB7nbftDafb6N8FLH+w7ppPAF3LdXDeao+275EfanHy42Yzz1rpbf9pb4dab8QNU+JFh8N75fHk00tzbG41Pfp8Urghbgx7M71B9eevFfNHHzDAwevA5pCM56HnJJAyfr60AeufDP4/SeF5vGVl4r0n/AIS3w34v/e6zYmXyZGuASVnRwp2uMnnHp6VpeI/jp4b0X4c3ngr4b+Frvw/pepXcN3ql7rN2t1dXflFSkWVUBYxtHy8555rxLrjIDY7t1/OhQF9vdcKfzAoA+m9a/ah8Dav8TtI+JUvgPWLrxfbNAHt5tVC6dE0ahN8KBA2QoIUZCqTkhq5Kb9oSwm8O/GfTDol3v8eail3bu0yn7EFnMoVxj5uu3PHrjtXh5Vc52jd3Yjk0bR8owMDpwOKAPW/gp8atN+Huh+KfCfijQJfEvg7xJDEt7Z28ywzwyRliskbEHB+Y8fTmtvxF8ePCf/CmPEfw38LeC7rQtLv72C6gvLq9+0XDFHVnM7ED721R8uNuO9eE7eAOgHbAI/XNO49AOwwBwPSgAooooAF4YH0rVt7pGXaThqyqOnTg+ta0qjpGVSmpm9to21g0V2fW/I5vqq7no+i+NIItJfStYsBqembt8YZsPE3+y3Ye1JJ4n0WwVV0nQkjfzUka4u33vhTnC8cZrzoOeuefY4pMkcAso/2TXpRzytGn7Nq/naN/yPOlk1GU7p28ryt+Z61H8QNKt/EI1mLSrmW8YkyGWfITIx8vGR+dYFj4iitdB1nTvJZn1CRXRt2Nu05xXCFmOMk8e5oLMcjOAauefYipLmmu/bqrPp1IhktCnHlh5a69HddT0uTxZpWtW9s2t6fdXV7aoIlmtp9plQdmGOfrVXTfFNppcuuGGwMEOoweRHFG+QnGM9Oa8/Ld+p7ZJoEjDPOM+lZvO68nztflfa3YpZPTUeVPT5979zt9H8RR6ZoOs6c8LM+oKqo2cbdpzV+HxXp19odnY6zps129kCts8MoTKnsRg15yHYZGeDSDue59CaVPOq9NW3VrdNr37FTyehUd9ne9/O1j1U/EeL+1NKu104ItlbPbNGr9A3dTjgiq6+LtMsbXVYLHTp0W+tyjTTShn59OK8y3Nxz0pd3c8ntkmt/9YMVeW3rp2t2Mv7Dw14727a979+53GteIotW0bRrFIGjk0+Mo7M33s96xNtYW88DOQPWkrzauYzry55rXT8FZHfRwEaMeSL01/F3N7bUUtwsIyxH51jUHlccn8axljG+h0/V0PkkMkm7GPamUUVwOTk7s7ElHYKKKKQgooooAVG2sG64Oa9r+L37R03jn4xeHfiB4c0+bRLzQ7O1ht47t1lzJAzMrHGOpY5HpXidH6984AOfXIxQB9Ix/tGfDex8cSfES0+Gd4nj9na7G7VN2lLdsuGn8nZu6/Nt7HvXz74g1298Ua9qOs6jMZtQ1C4a6uZem+Rjkms/A7DH5fz6/rS0AfSMf7Qnwx8TfCnwP4S8Z+Adb1p/C1obeK6stWjgjYn7x4B6+nNc544/aK05/AN74G+G/hGHwH4Wvzu1F/Oae8v8AHRXkIBC8n5cd68R9Mk8HOc80Z/Buzd6APa/DHxw8L6t8M9K8EfEjwte+I9P0OZ5tJ1LSLxbW8t1c5eHLKQyHJ44xx6Vg/Gj4zRfEy18OaJpGir4b8H+HLZrfStL8zzJFLf6yV3wNztgc49eOa8yb5vzyCwBP5kUnrwBnuOtAC0UUUAFFFFABRRRQB6Z8Evi7a/CUeNRc6VPqP/CQaFPosfkyKvlPLj5269MdOM+orA+FHxN1n4PeN9O8TaFNsurVtskLH93cQnh4nHdSAB7YHXArkcD0zxjoOfr60tAH0LrX7Wc8n7Q198RtJ0HZp2o2K6bf6DfzK4ubfYqyIxwPvbRzjjnrVeH48eB/h3ofiBfhh4I1LQNf121awl1PWNSF0LG3b7yQKqDaT6kn6V4Dj2A9sDFKPlxj5QOigAD9KAPbvA/xt8IWvwVPw78b+E9Q12ytNTk1Wwl0y+W2KyMm3bKWRumW5561z+qfF6zvv2edM+HEWl3MV1Za5JrB1DzVaLYyOuzGO2/rnt0rzDaOPlAwc4wCPyOaRV24x2OegoA9h+K3xysfiP8AFLwr4qh0i4sYtFtbG2e1mlUySfZzndnAxu9Oce9a8n7UM9h+0drvxN0vRx/Z+sB7a50K+lBE1s8ao8ROOM7Qc449K8I6ZxgegwMUdcgngjG3Ax/KgD2LXviJ8LNLEdz4K+Huo2GsC+gvVn1vVDcR2nlyiQxxIq/MrEbfmJwvHNegt+1V4AtfjRa/FK38Dazc+KpphJOl9rKm3txsEbfZ1CZJKgj5iVGc7a+XVAXAxx/sgDH0x0oz26euGPP60Ae1/C348aJ4TuviTp3iXw/eaz4Z8aljcw2VysV1DmV5BtYrg4346DpVXw78aPD/AIS8H/Fjw3pPhu+tbDxdDDBYRy3iyNZLGSf3rbRvzn2xXj3p2x2wCP1BpGG7aD0HTgcfpQB7uPjt4J8deEvDenfE7wVqWv6n4ctvsNnq2jaiLWW5th92OYMp3EYHzZ9eOamh/alku/2gPCnju70H7NoPhyNbHT/D+nzKPItljdFQOR1+cnOOcDivAsfjnruAP86McYIGO4wMUAewfCH45WPw3+Pd18Q59IuL+1nkvHFjDKokX7RnjODnbn059qz/AAL4q+F9hptr/wAJP4P166161uWuF1PRdVEDXIL7gsishC4HHy4ry/64x/dwMUMN3Gcj/aw2frnrQB23xk+KF38ZPiNqviy9tI7CS88tI7SJtywRogjVQ2BuO0ckjk81xVFFABRRRQAUUUUAFel/s5/Fq0+B/wAVLLxZfaXPq0VtBNB9kt5FSRvMTbnJ6Y/WvNKbt49PbAI/XNAHrOk/Gaz034L+PvBL6RcNceJNWi1BL3zV8u3VHDbXGOc465/Co7b4xWtv+z2Phx/ZVw14PES65/aPmKI9ipt8vb/e/H8K8sHysG7jgHAyB6Ufz/vYGc+vTrQB9OeK/wBpf4WePviKnjXXvhrqtzq9kIRaRpq6rBP5QHl/ak2HOCM8HnpXJaD+1Jqi/Ejxr4j8R6TBr+jeMopLTWtF8xkjaA/cVGwdpTscflXiGT3Yn0+Y8frSsd2CckgY5NAHt+rfHDwj4Z+HniPwn8NPCWo+Hl8R+XFq2qazerdTtbp0hTag2r1zVm4/amu/DGofD628B6fceHfDvhEeZ/Z1zMHk1GdsiaWcpjdvUsuO2epxXgu0bgcYI/u4H8qTbx6+xAx+mKAOw+K3iLw94u8eatrnhfRbjw/pmoP9p/s+4lWTypWHzhSvRS3OMcdOa5Gj9e+cAHPrkYooAKKKKACiiigAooooAKKKKACiiigAooooAKKKKACiiigAooooAKKKKACiiigAooooAKKKKACiiigAooooAKKKKACiiigAooooAKKKKACiiigAooooAKKKKACiiigAooooAKKKKACiiigAooooAKKKKACiiigAooooAKKKKACiiigAooooAKKKKACiiigAooooAKKKKACiiigAooooAKKKKACiiigAooooAKKKKACiiigAooooAKKKKACiiigAooooAKKKKACiiigAooooAKKKKACiiigAooooAKKKKACiiigAooooAKKKKACiiigAooooAKKKKACiiigAooooAKKKKACiiigAopM9B1J/h6H9cUZ+n5ikOwtFJn6fmKM/T8xQFhaKTP0/MUZ+n5igLC0Umfp+Yoz9PzFAWFopM/T8xRn6fmKAsLRSZ+n5ijP0/MUBYWikz9PzFGfp+YoCwtFJn6fmKM/T8xQFhaKTP0/MUZ+n5igLC0Umfp+Yoz9PzFAWFopM/T8xRn6fmKAsLRSZ+n5ijP0/MUBYWikz9PzFGfp+YoCwtFJn6fmKM/T8xQFhaKTP0/MUZ+n5igLC0Umfp+Yo3fdJ+UH1I/xoCwtFJ1yAQW/u96WmIKKKKACiiigAooooAKKKKACiiigAooooAKKKKACiiigAooooAKKKKACiiigAooooAKKKKACiiigAooooAKKKKACiiigAooooAKKKKACiiigAooooAKKKKACiiigAooooAKKKKACiiigAooooAKKKKACiiigAooooAaxP2qRM/J/d7U/cfU0UVBYbj6mjcfU0UUAG4+po3H1NFFABuPqaNx9TRRQAbj6mjcfU0UUAG4+po3H1NFFABuPqaNx9TRRQAbj6mjcfU0UUAG4+po3H1NFFABuPqaNx9TRRQAbj6mjcfU0UUAG4+po3H1NFFABuPqaNx9TRRQAbj6mjcfU0UUAG4+po3H1NFFABuPqaIvmlbPNFFAENoxks42clj5nVualooqyAooooAKKKKACiiigAooooAKKKKACiiigAooooAKKKKACiiigAooooAKKKKACiiigAooooAKKKKACiiigD/9k=;movable=1;resizable=1;rotatable=1;deletable=1;editable=1;locked=0;connectable=1;" parent="1" vertex="1">
          <mxGeometry x="38.12" y="1063.63" width="321.88" height="56.7" as="geometry" />
        </mxCell>
        <mxCell id="cJatEB37gMDstE7g0faB-11" value="&lt;font style=&quot;font-size: 13px;&quot;&gt;2024&lt;/font&gt;" style="text;html=1;strokeColor=none;fillColor=none;align=center;verticalAlign=middle;whiteSpace=wrap;rounded=0;fontColor=#E6E6E6;" parent="1" vertex="1">
          <mxGeometry x="31.08" y="660" width="61.88" height="30" as="geometry" />
        </mxCell>
        <mxCell id="cJatEB37gMDstE7g0faB-13" value="&lt;b&gt;&lt;font style=&quot;font-size: 23px;&quot;&gt;February&lt;/font&gt;&lt;/b&gt;" style="text;html=1;strokeColor=none;fillColor=none;align=center;verticalAlign=middle;whiteSpace=wrap;rounded=0;fontColor=#FFFFFF;" parent="1" vertex="1">
          <mxGeometry x="38.11999999999999" y="680" width="115.62" height="30" as="geometry" />
        </mxCell>
        <mxCell id="cJatEB37gMDstE7g0faB-15" value="&lt;font style=&quot;font-size: 13px;&quot; color=&quot;#66b2ff&quot;&gt;&lt;u&gt;Calendars&lt;/u&gt;&lt;/font&gt;" style="text;html=1;strokeColor=none;fillColor=none;align=center;verticalAlign=middle;whiteSpace=wrap;rounded=0;" parent="1" vertex="1">
          <mxGeometry x="278.13" y="664.5" width="72.5" height="30" as="geometry" />
        </mxCell>
        <mxCell id="cJatEB37gMDstE7g0faB-16" value="&lt;font color=&quot;#ffffff&quot;&gt;&lt;span style=&quot;font-size: 13px;&quot;&gt;Sun&lt;span style=&quot;white-space: pre;&quot;&gt;&#x9;&lt;/span&gt;&lt;/span&gt;&lt;/font&gt;" style="text;html=1;strokeColor=none;fillColor=none;align=center;verticalAlign=middle;whiteSpace=wrap;rounded=0;" parent="1" vertex="1">
          <mxGeometry x="29.999999999999993" y="710" width="60" height="30" as="geometry" />
        </mxCell>
        <mxCell id="cJatEB37gMDstE7g0faB-18" value="&lt;font color=&quot;#ffffff&quot;&gt;&lt;span style=&quot;font-size: 13px;&quot;&gt;Mon&lt;/span&gt;&lt;/font&gt;" style="text;html=1;strokeColor=none;fillColor=none;align=center;verticalAlign=middle;whiteSpace=wrap;rounded=0;" parent="1" vertex="1">
          <mxGeometry x="74.38" y="710" width="64.38" height="30" as="geometry" />
        </mxCell>
        <mxCell id="cJatEB37gMDstE7g0faB-19" value="&lt;font color=&quot;#ffffff&quot;&gt;&lt;span style=&quot;font-size: 13px;&quot;&gt;Tue&lt;/span&gt;&lt;/font&gt;" style="text;html=1;strokeColor=none;fillColor=none;align=center;verticalAlign=middle;whiteSpace=wrap;rounded=0;" parent="1" vertex="1">
          <mxGeometry x="120" y="710" width="60" height="30" as="geometry" />
        </mxCell>
        <mxCell id="cJatEB37gMDstE7g0faB-20" value="&lt;font color=&quot;#ffffff&quot;&gt;&lt;span style=&quot;font-size: 13px;&quot;&gt;Wed&lt;/span&gt;&lt;/font&gt;" style="text;html=1;strokeColor=none;fillColor=none;align=center;verticalAlign=middle;whiteSpace=wrap;rounded=0;" parent="1" vertex="1">
          <mxGeometry x="170.73000000000002" y="710" width="60.42" height="30" as="geometry" />
        </mxCell>
        <mxCell id="cJatEB37gMDstE7g0faB-25" value="" style="edgeStyle=orthogonalEdgeStyle;rounded=0;orthogonalLoop=1;jettySize=auto;html=1;exitX=0.75;exitY=1;exitDx=0;exitDy=0;entryX=1;entryY=0.5;entryDx=0;entryDy=0;" parent="1" source="cJatEB37gMDstE7g0faB-27" edge="1">
          <mxGeometry relative="1" as="geometry">
            <mxPoint x="149" y="740" as="sourcePoint" />
            <mxPoint x="303.1399999999999" y="725" as="targetPoint" />
          </mxGeometry>
        </mxCell>
        <mxCell id="cJatEB37gMDstE7g0faB-28" value="&lt;font color=&quot;#ffffff&quot;&gt;&lt;span style=&quot;font-size: 13px;&quot;&gt;Sat&lt;/span&gt;&lt;/font&gt;" style="text;html=1;strokeColor=none;fillColor=none;align=center;verticalAlign=middle;whiteSpace=wrap;rounded=0;" parent="1" vertex="1">
          <mxGeometry x="302.62" y="710" width="62.51" height="30" as="geometry" />
        </mxCell>
        <mxCell id="cJatEB37gMDstE7g0faB-27" value="&lt;font color=&quot;#ffffff&quot;&gt;&lt;span style=&quot;font-size: 13px;&quot;&gt;Fri&lt;/span&gt;&lt;/font&gt;" style="text;html=1;strokeColor=none;fillColor=none;align=center;verticalAlign=middle;whiteSpace=wrap;rounded=0;" parent="1" vertex="1">
          <mxGeometry x="262.92" y="710" width="58.96" height="30" as="geometry" />
        </mxCell>
        <mxCell id="cJatEB37gMDstE7g0faB-26" value="&lt;font color=&quot;#ffffff&quot;&gt;&lt;span style=&quot;font-size: 13px;&quot;&gt;Thu&lt;/span&gt;&lt;/font&gt;" style="text;html=1;strokeColor=none;fillColor=none;align=center;verticalAlign=middle;whiteSpace=wrap;rounded=0;" parent="1" vertex="1">
          <mxGeometry x="231.15" y="710" width="34.93" height="30" as="geometry" />
        </mxCell>
        <mxCell id="cJatEB37gMDstE7g0faB-33" value="" style="endArrow=none;html=1;rounded=0;exitX=0;exitY=0.25;exitDx=0;exitDy=0;entryX=1;entryY=0.25;entryDx=0;entryDy=0;strokeColor=#757575;" parent="1" source="tdJTRMH0b5g0XQA7_NEg-13" target="tdJTRMH0b5g0XQA7_NEg-13" edge="1">
          <mxGeometry width="50" height="50" relative="1" as="geometry">
            <mxPoint x="38" y="775" as="sourcePoint" />
            <mxPoint x="361.88" y="869.75" as="targetPoint" />
          </mxGeometry>
        </mxCell>
        <mxCell id="cJatEB37gMDstE7g0faB-38" value="&lt;font style=&quot;font-size: 13px;&quot; color=&quot;#ffffff&quot;&gt;4&lt;/font&gt;" style="text;html=1;strokeColor=none;fillColor=none;align=center;verticalAlign=middle;whiteSpace=wrap;rounded=0;" parent="1" vertex="1">
          <mxGeometry x="30" y="740" width="60" height="30" as="geometry" />
        </mxCell>
        <mxCell id="cJatEB37gMDstE7g0faB-42" value="&lt;font color=&quot;#ffffff&quot;&gt;&lt;span style=&quot;font-size: 13px;&quot;&gt;6&lt;/span&gt;&lt;/font&gt;" style="text;html=1;strokeColor=none;fillColor=none;align=center;verticalAlign=middle;whiteSpace=wrap;rounded=0;" parent="1" vertex="1">
          <mxGeometry x="120" y="740" width="60" height="30" as="geometry" />
        </mxCell>
        <mxCell id="cJatEB37gMDstE7g0faB-46" value="&lt;font color=&quot;#ffffff&quot;&gt;&lt;span style=&quot;font-size: 13px;&quot;&gt;7&lt;/span&gt;&lt;/font&gt;" style="text;html=1;strokeColor=none;fillColor=none;align=center;verticalAlign=middle;whiteSpace=wrap;rounded=0;" parent="1" vertex="1">
          <mxGeometry x="168.14" y="740" width="60" height="30" as="geometry" />
        </mxCell>
        <mxCell id="cJatEB37gMDstE7g0faB-47" value="&lt;font color=&quot;#ffffff&quot;&gt;&lt;span style=&quot;font-size: 13px;&quot;&gt;8&lt;/span&gt;&lt;/font&gt;" style="text;html=1;strokeColor=none;fillColor=none;align=center;verticalAlign=middle;whiteSpace=wrap;rounded=0;" parent="1" vertex="1">
          <mxGeometry x="218.13" y="740" width="60" height="30" as="geometry" />
        </mxCell>
        <mxCell id="cJatEB37gMDstE7g0faB-49" value="&lt;font color=&quot;#ffffff&quot;&gt;&lt;span style=&quot;font-size: 13px;&quot;&gt;9&lt;/span&gt;&lt;/font&gt;" style="text;html=1;strokeColor=none;fillColor=none;align=center;verticalAlign=middle;whiteSpace=wrap;rounded=0;" parent="1" vertex="1">
          <mxGeometry x="261.2" y="740" width="60" height="30" as="geometry" />
        </mxCell>
        <mxCell id="cJatEB37gMDstE7g0faB-52" value="&lt;font color=&quot;#ffffff&quot;&gt;&lt;span style=&quot;font-size: 13px;&quot;&gt;10&lt;/span&gt;&lt;/font&gt;" style="text;html=1;strokeColor=none;fillColor=none;align=center;verticalAlign=middle;whiteSpace=wrap;rounded=0;" parent="1" vertex="1">
          <mxGeometry x="303.88" y="740" width="60" height="30" as="geometry" />
        </mxCell>
        <mxCell id="cJatEB37gMDstE7g0faB-53" value="" style="ellipse;whiteSpace=wrap;html=1;fillColor=#66B2FF;" parent="1" vertex="1">
          <mxGeometry x="90" y="740" width="30" height="30" as="geometry" />
        </mxCell>
        <mxCell id="cJatEB37gMDstE7g0faB-55" value="Text" style="text;html=1;strokeColor=none;fillColor=none;align=center;verticalAlign=middle;whiteSpace=wrap;rounded=0;" parent="1" vertex="1">
          <mxGeometry x="90" y="720" width="60" height="30" as="geometry" />
        </mxCell>
        <mxCell id="cJatEB37gMDstE7g0faB-57" value="&lt;font color=&quot;#ffffff&quot; style=&quot;font-size: 13px;&quot;&gt;5&lt;/font&gt;" style="text;html=1;strokeColor=none;fillColor=none;align=center;verticalAlign=middle;whiteSpace=wrap;rounded=0;" parent="1" vertex="1">
          <mxGeometry x="90" y="745" width="30" height="20" as="geometry" />
        </mxCell>
        <mxCell id="cJatEB37gMDstE7g0faB-59" value="" style="shape=image;verticalLabelPosition=bottom;verticalAlign=top;imageAspect=0;aspect=fixed;image=data:image/jpeg,/9j/4AAQSkZJRgABAQEAYABgAAD/2wBDAAMCAgMCAgMDAwMEAwMEBQgFBQQEBQoHBwYIDAoMDAsKCwsNDhIQDQ4RDgsLEBYQERMUFRUVDA8XGBYUGBIUFRT/2wBDAQMEBAUEBQkFBQkUDQsNFBQUFBQUFBQUFBQUFBQUFBQUFBQUFBQUFBQUFBQUFBQUFBQUFBQUFBQUFBQUFBQUFBT/wAARCAAoACkDASIAAhEBAxEB/8QAHwAAAQUBAQEBAQEAAAAAAAAAAAECAwQFBgcICQoL/8QAtRAAAgEDAwIEAwUFBAQAAAF9AQIDAAQRBRIhMUEGE1FhByJxFDKBkaEII0KxwRVS0fAkM2JyggkKFhcYGRolJicoKSo0NTY3ODk6Q0RFRkdISUpTVFVWV1hZWmNkZWZnaGlqc3R1dnd4eXqDhIWGh4iJipKTlJWWl5iZmqKjpKWmp6ipqrKztLW2t7i5usLDxMXGx8jJytLT1NXW19jZ2uHi4+Tl5ufo6erx8vP09fb3+Pn6/8QAHwEAAwEBAQEBAQEBAQAAAAAAAAECAwQFBgcICQoL/8QAtREAAgECBAQDBAcFBAQAAQJ3AAECAxEEBSExBhJBUQdhcRMiMoEIFEKRobHBCSMzUvAVYnLRChYkNOEl8RcYGRomJygpKjU2Nzg5OkNERUZHSElKU1RVVldYWVpjZGVmZ2hpanN0dXZ3eHl6goOEhYaHiImKkpOUlZaXmJmaoqOkpaanqKmqsrO0tba3uLm6wsPExcbHyMnK0tPU1dbX2Nna4uPk5ebn6Onq8vP09fb3+Pn6/9oADAMBAAIRAxEAPwD448JarZeEvgrFrJ8O6TrF9JrT2pfUrVZCqiMHrjPc96rQ/FO7uI0eP4a+HZUZSQ66SSG56jC1TuAG/Z0twQCB4hkHIzx5I4r0e4/4WKvgDwN/whRuBAdOb7UsRiA37xjO/wBq4ejOTucQ3xMv9rY+GXh/ODj/AIk7f/E10Hw78ZWPjrWtT0u78G+HbER6fdTiS1slSRSowByMg81t+CT8Zv8AhLtI/tv7UdJ+0p9pDvb42Z5zt5/KvM7HxbN4X+LXiS4trBtTlu5Lu0jhRtrfvGxnH6/hUxad9vvYo9TzaM5jT3GaWvR/FHwN1fwt4bXUBcw6ldWqL/aWn2bAzWRIyAw53DBHTGK8y8yP/n7X/vmu+Eo8up0xlG2rPUZgD+zxa55H/CRuSPX9yvH1pvh34f3upaHY3UXj7SNOWaIOLObUHjeIEnhlDDB6cUs3/Ju1vjr/AMJFJjHY+SOapaL8StK0vSbWxl8DaFeyQqI2vLlGMkhz97rjNckW7NJdTCOqfqL4k8L6xoLWCWXi6HxDdXkvkRW2k30ksm7sSMjGTx6c11Uc9r8B4Y2KRaz8RLogtHKTItgh6xk/xSN0x71R+AFtLcXXim4sEtYtfTTiNMeZlBhkdiDsLdxn9Ku2+mwfB5ZNZ1wRa/47ui0lrYpKLgWnPM8mMgnB49DilKTfuik3skdL4o1rQ/hTNc+Jo7W5t/FfiC0+fQZJd0cBcfPLIM8g84VskHHavBf+EmvP+edp/wCA8f8A8TUGrard69qVxqN9O1zeXDmSWVjyzE/54qp+A/IVrCk0i4U9D1jwp/wj/iD4QpoOpeJ7PQrxNXe8xcxs2VMSrjA+tUf+FZ+EuP8Ai5ek8f8ATtL/AI0UVFrN2YctthU+GnhNXBX4maSDnn/R5fXPrXReBNJ8I+BL6/v28eaZqm7Tbi1SFYJNxdlOMZOOw/Kiiny9SVueI/ewc+p5479RS0UV2Q2Oo//Z" parent="1" vertex="1">
          <mxGeometry x="48.129999999999995" y="780" width="20.5" height="20" as="geometry" />
        </mxCell>
        <mxCell id="cJatEB37gMDstE7g0faB-60" value="&lt;font color=&quot;#4d9900&quot; style=&quot;font-size: 10px;&quot;&gt;Lorem-Ipsum&lt;/font&gt;" style="text;html=1;strokeColor=none;fillColor=none;align=center;verticalAlign=middle;whiteSpace=wrap;rounded=0;" parent="1" vertex="1">
          <mxGeometry x="58.14" y="775" width="110" height="30" as="geometry" />
        </mxCell>
        <mxCell id="cJatEB37gMDstE7g0faB-64" value="&lt;font color=&quot;#ffffff&quot;&gt;&lt;span style=&quot;font-size: 13px;&quot;&gt;Lorel ipsum dolor st amet&lt;/span&gt;&lt;/font&gt;" style="text;html=1;strokeColor=none;fillColor=none;align=center;verticalAlign=middle;whiteSpace=wrap;rounded=0;" parent="1" vertex="1">
          <mxGeometry x="74.38" y="790" width="163.27" height="30" as="geometry" />
        </mxCell>
        <mxCell id="cJatEB37gMDstE7g0faB-67" value="&lt;font color=&quot;#808080&quot; style=&quot;font-size: 10px;&quot;&gt;Lorel ipsum dolor st amet&lt;/font&gt;" style="text;html=1;strokeColor=none;fillColor=none;align=center;verticalAlign=middle;whiteSpace=wrap;rounded=0;" parent="1" vertex="1">
          <mxGeometry x="58.14" y="805" width="161.86" height="30" as="geometry" />
        </mxCell>
        <mxCell id="cJatEB37gMDstE7g0faB-68" value="&lt;font color=&quot;#808080&quot;&gt;&amp;gt;&lt;/font&gt;" style="text;html=1;strokeColor=none;fillColor=none;align=center;verticalAlign=middle;whiteSpace=wrap;rounded=0;" parent="1" vertex="1">
          <mxGeometry x="300" y="790" width="60" height="30" as="geometry" />
        </mxCell>
        <mxCell id="cJatEB37gMDstE7g0faB-69" value="" style="rounded=0;whiteSpace=wrap;html=1;fillColor=#FFFFFF;" parent="1" vertex="1">
          <mxGeometry x="400" y="600" width="320" height="500" as="geometry" />
        </mxCell>
        <mxCell id="cJatEB37gMDstE7g0faB-70" value="" style="rounded=0;whiteSpace=wrap;html=1;fillColor=#004785;" parent="1" vertex="1">
          <mxGeometry x="400" y="600" width="321.87" height="64.5" as="geometry" />
        </mxCell>
        <mxCell id="cJatEB37gMDstE7g0faB-71" value="" style="rounded=0;whiteSpace=wrap;html=1;fillColor=#000000;strokeColor=#000000;fontColor=#FFFFFF;" parent="1" vertex="1">
          <mxGeometry x="400" y="660" width="321.87" height="460" as="geometry" />
        </mxCell>
        <mxCell id="cJatEB37gMDstE7g0faB-72" value="" style="shape=image;verticalLabelPosition=bottom;verticalAlign=top;imageAspect=0;aspect=fixed;image=data:image/jpeg,/9j/4AAQSkZJRgABAQEAYABgAAD/2wBDAAMCAgMCAgMDAwMEAwMEBQgFBQQEBQoHBwYIDAoMDAsKCwsNDhIQDQ4RDgsLEBYQERMUFRUVDA8XGBYUGBIUFRT/2wBDAQMEBAUEBQkFBQkUDQsNFBQUFBQUFBQUFBQUFBQUFBQUFBQUFBQUFBQUFBQUFBQUFBQUFBQUFBQUFBQUFBQUFBT/wAARCAAfACkDASIAAhEBAxEB/8QAHwAAAQUBAQEBAQEAAAAAAAAAAAECAwQFBgcICQoL/8QAtRAAAgEDAwIEAwUFBAQAAAF9AQIDAAQRBRIhMUEGE1FhByJxFDKBkaEII0KxwRVS0fAkM2JyggkKFhcYGRolJicoKSo0NTY3ODk6Q0RFRkdISUpTVFVWV1hZWmNkZWZnaGlqc3R1dnd4eXqDhIWGh4iJipKTlJWWl5iZmqKjpKWmp6ipqrKztLW2t7i5usLDxMXGx8jJytLT1NXW19jZ2uHi4+Tl5ufo6erx8vP09fb3+Pn6/8QAHwEAAwEBAQEBAQEBAQAAAAAAAAECAwQFBgcICQoL/8QAtREAAgECBAQDBAcFBAQAAQJ3AAECAxEEBSExBhJBUQdhcRMiMoEIFEKRobHBCSMzUvAVYnLRChYkNOEl8RcYGRomJygpKjU2Nzg5OkNERUZHSElKU1RVVldYWVpjZGVmZ2hpanN0dXZ3eHl6goOEhYaHiImKkpOUlZaXmJmaoqOkpaanqKmqsrO0tba3uLm6wsPExcbHyMnK0tPU1dbX2Nna4uPk5ebn6Onq8vP09fb3+Pn6/9oADAMBAAIRAxEAPwDV+Buh/sjXXwj8MyePrrTIfGMlnnUllvb1JBIWYfdRto4GeK9Abw3+wnuO6/0cHPIW/v8AH/oVfOnww/4J6/EH4sfD/Q/Fuk6t4ft9O1eH7RBHdzSh1B3D5gIzz8p7nrXWH/glf8VSSRrnhfHb/SZ//jVfWVI0OeXNiGj5eLq8q5aFz17/AIRr9hL/AKCGkf8Agff/APxVB8M/sJ9r/SP/AAYX/wD8VXkH/Dq34rf9B3wv/wCBE/8A8app/wCCV/xV/wCg54W/8CJv/jVSlhv+gllN4i2lBHf/ABF8P/sWweA/EZ8Oahpf/CQDTLo6cqX98Wa58pvKADNgndt61+dPm6h/zxk/78rX2H4s/wCCbXxO8FeFdZ1+71vw49rpVnLfTLBcTGRkiQyEKPK64WvkT7TB/wA8Jfyb/wCNV6WDVLkdq7ZwYn2vMr0kj1bwx+0r8V/COg2Wi6F451jTdJsozFb29sR5cCZPAwvqTx2ya1f+GwPjg3J+I3iAE9vMHH/jlfQvwN/4KIeFvhP8JfDHhK/8Dahqt1pFp5Ml0txEFkO7kgEZ7jr6Cu+/4er+D/4fhxqZXsftMHT8q5p1JczSw6ZtGMeVc1do+PP+Gvvjf/0UfxB/38X/AOIo/wCGvPjd/wBFH1//AL+L/wDEV9h/8PWPCH/RN9T/APAmD/Ck/wCHq3hD/omuqf8AgXB/hWfPV6YZFclN/wDL9s+L9Y/ao+MGvaTfaZqXj/W7rT7yCS3uYHddrwuu1w2UzjaTXlPnD/nlF/38X/Cv0D+Iv/BTDwn4y8B+JNAi8A6lZ3WraZc2ccslzCRGZImRW+Udic1+f/2Yf8/Lf98Cu2hKfLrQSOStT97+Jc//2Q==" parent="1" vertex="1">
          <mxGeometry x="410" y="624" width="27.78" height="21" as="geometry" />
        </mxCell>
        <mxCell id="cJatEB37gMDstE7g0faB-73" value="" style="shape=image;verticalLabelPosition=bottom;verticalAlign=top;imageAspect=0;aspect=fixed;image=data:image/jpeg,/9j/4AAQSkZJRgABAQEAYABgAAD/2wBDAAMCAgMCAgMDAwMEAwMEBQgFBQQEBQoHBwYIDAoMDAsKCwsNDhIQDQ4RDgsLEBYQERMUFRUVDA8XGBYUGBIUFRT/2wBDAQMEBAUEBQkFBQkUDQsNFBQUFBQUFBQUFBQUFBQUFBQUFBQUFBQUFBQUFBQUFBQUFBQUFBQUFBQUFBQUFBQUFBT/wAARCABSAFEDASIAAhEBAxEB/8QAHwAAAQUBAQEBAQEAAAAAAAAAAAECAwQFBgcICQoL/8QAtRAAAgEDAwIEAwUFBAQAAAF9AQIDAAQRBRIhMUEGE1FhByJxFDKBkaEII0KxwRVS0fAkM2JyggkKFhcYGRolJicoKSo0NTY3ODk6Q0RFRkdISUpTVFVWV1hZWmNkZWZnaGlqc3R1dnd4eXqDhIWGh4iJipKTlJWWl5iZmqKjpKWmp6ipqrKztLW2t7i5usLDxMXGx8jJytLT1NXW19jZ2uHi4+Tl5ufo6erx8vP09fb3+Pn6/8QAHwEAAwEBAQEBAQEBAQAAAAAAAAECAwQFBgcICQoL/8QAtREAAgECBAQDBAcFBAQAAQJ3AAECAxEEBSExBhJBUQdhcRMiMoEIFEKRobHBCSMzUvAVYnLRChYkNOEl8RcYGRomJygpKjU2Nzg5OkNERUZHSElKU1RVVldYWVpjZGVmZ2hpanN0dXZ3eHl6goOEhYaHiImKkpOUlZaXmJmaoqOkpaanqKmqsrO0tba3uLm6wsPExcbHyMnK0tPU1dbX2Nna4uPk5ebn6Onq8vP09fb3+Pn6/9oADAMBAAIRAxEAPwD9S1hUgDFI0IXoo/KnxtxWfrWu2+g2D3d24SJfzJ9AO9c1fEQoU5VasrRWrZMKXO1CC1ZakaGFSZGVMd24FcfrHxI0jTSVhl+2y9lhU7f++sYP4V5F46+K2pa5qc2l6dAtzdRRNcPbGXyLe1gGT591M+BFHgDr8x5wpwccdJp2mfavCp8Tz6p4utfE93bW9i+lbrPQsyy7WR3Q+c7CMF1aXAfAAAzXyMMdm2da5ZFU6X/PySvf0R6kqOEwXu4iXvdlr956zrH7RVho8jJcTaXYledt5eopwemfm4qnpv7Smmag+IdS0G95+7bX8bHnoOGOTVT4x+HNL+GOh6DJ4Z0ix8LafPqPlanrWn6LHczWkIhlZGCmNt2ZEjU5U/e4xmuX0aTxb8SfGHhDTtT8O6dbacPDtjqHiCG70m1cJcO753Cb58FU6ISyFhkHpXcuH8ydPnWPmn6KxySzGhGfso0I/jc9r0/4uaTcKhuYJbYOcBwA6fgVJz+VdlZ3trqEAltpY5Iz0ZWBB/Gvmb4waH8O/ht4o0TTNOvNR8HahqyTzvdaS5lsrVI42cS3FuxK7G2MqhApJBqxZ+KfEfwv1a1i8QJDaxXTqlrq9rv+wXjMu5UdXGYJCCPkcjPZjXHOtnWUpSxS9tS/mWkku7XU6IxwOLfJT92fnt/wD6bSJW6gH8Kd5SdMVzvhfxhF4isWddsVzHxLA3BXtk+3fPPFdGzHt1r6fB4yljqMa+HleL/rU4alD2UnTmtSt9j/AOmj/p/hRVjbRXqcz7nH7KHYY0iwx7nYBQMnNfOPxQ8c6h4l1y00nR9h1C8aSOwaU5it44wDLdScjKqM/LxklADzXrvxJ1h9O8NgKdstwwhGO3qa+Xbu+8bWPh3VfHHgqwubu8ubmWwWXT4Ibu4tbC3zHEvkScmKW5WV3KBnKRrt7EfDYyjPO80hlXNajC0pr+a/wq/Z9T2qdSOBwf1tfE9I+Xdm34J8ReF9VtdK0jwXDa+NtKuEE3ijw3qtvC99fxu6FdSLNlGZSY28pm+VHACxsoFeheE/DKzeGD4R0CO38S+H9P1Iy2Opa4mbXT1jmV4beIBi1wYGA2MCi7Qo3lgc5Pw98C23iDVLR47Cx0afUtPW61I6G80VrDZysGSG3hdUML3LIzyEKGCp1BII6/4laTqy+JtKi0Pw6txp9vp7xySszxwWuJE2eSsaPiQKJBhQOGANfoSVOm1SpK0V07HziUqi9pN3b69zqJvh7dXyiTWPFetXTqvzR2My2EQ4zwIgG688uar2fgO1uALrQ/FutoBwsqaiL2LcOh2zCRc/QdAfWvF/2hv2kNW8MfD25htNLlsJtVJ0uxu7EpejzpMKXcDBiWMk7gUL542r1rhfFX7SHiX4A+IrRJ5X1jwjr+9jqmqeGp9LfT7lY1G1E2oJlYRhlUYJP8WOa0pYSrUjo9xVMVTpzd09PI9q+I3w5TU7i0vfGGmQ65a2t3b6h/bemwFJVNuXMS3NvljJEDI+fKPOfu143dSQfCPQ7/WfiFfLr/iTxjdPbm1kuB/Z1/AVVpLomIsfsyRgGIeWJUPygMWUn1z4C/E/x38TV03Vb2OG30ieW4aY/wBntFE9sI/3MyTFhudn6gBgAj842sdb4g/DHSLrd4f1BprTwh4in+yuunt5MlpcO6tsRwMxxTbNjqvVsYI301Lkk6NbVdUJw9olVpde+h5v4N1qfwjqmlx2V1dXug6pb/b/AA7qF3G0UtzahFL286uFIdAwYHHzoQRjBr6k0PVItY023vITlJF3V8+fEDS/h7beHJ/AXgzUdNTxxYynVNPsLadrm7N5Apc+eRubcyI8ZaQg4baCOK7X4F+LRrWlQC3bNrd26XkG7qqkAlfwBr8zdJZJnKp0dKOIu7dFJb29T6iEvrmFalrOnrfy/wCAeu0VF5rf3aK+v9tDzPI908h+P2pNp2m+YrYW1tJ7rH+6uRXg03g2OO+8L6fD47uvBGq6lpFjpUMOq6afs1/m0MZ+zXSMMuPtMzCNmOHbO3AAr3P9oPT2v9NljUE/abC4hVe+SnAry3R9Y0Hw3qHhTxPf6T8P7EahBp8w1rXdTkk1Vt0ce/ybfyWEbhlOArheM5rwOHW3m2Yv7ScF8rHXmmuFwyW2v6Hufg/7TH4P8Q63pln/AGhqV9eXc0Fu7eV5/kEwQRs3RcpBGMnI5PHJrz6T9pa+trLRpNQ0/QLCfVIJZorE6ndvcp5TBJlZUsyQ0cnyOOoI9K9V+FqCHwetkWDS2N3d2r555S5kAB98AEH3FeA/tQ+GfEnhPVNG1TwnDazWuraq1xc29yFK2twLScTyIG4Ky2/mlxjl41bq1fc4ZQqV/ZT6nkYhyjSU4HIfGbxtZfFqzhjS80Lwtqls8dxBrlq2pTXtvMjBldALeIEjaR8+78+azV8YtJ4ntdb8QeKdA8draxLGlnrtjfpFbg7xM8ASDajsj43NG2BwMDiunv8A4N2v9gR3aW9neXP9n2V/CkOlWsQb7RuGzHljeVKDpj/WrnbjnldL8C6BrFm1zdNa3niNBcO1lptvbw/ZwlybeNjbLEwKOELH72CRzhgR7UPY+zUY9GeRUjW9pbuep+BfjrpWlpY+HfDWgeGrSO8uGNvbW99fxrLKfnfBNgMMBhiWIwAG9K9P0fxFf/Fr4S6vfXOlw6RPc+eNP8i6a5WTyzmC5VjGhAMgV1+X7qqe+B4LoXgPXLj43r4It5bSLwhbWFyt20Noltcusi2U1xHmNf8AloHhTdljt3gHkY+sdaktPDfhq/vCBHa2FpJJtwMRxohJA9sA4+vpxXjYqMYWcN2enheecWpdD5X8T+NfCHg/4xaLr+vXniTSn1iys73T7XQRbxWc0czoxWaKEi4nJmzksrfePbiu1+Av/El8QXGlIcx2Oqahpyr6Ik820fgoUVhyaP420/XtDm8Pw6ClrZabp9hqF9plhDe67asIowUmWaRAqHIxjLhTkqa3PghjVvGF/fIRJFda1qlyjD+JfOkRWH125/GvieLoqUMHy7+0jt87nsZM+apXXTkf6H0ftFFJtNFevzy7GPKjhfilpRvPD6XQHzWpEp/3cYI/Kvlmx8Fi+v7JPM1efVPCdzJHZabo8NrHugk3y213NczKfJVI/MhVzyhiYLtPX7cnsYry3MMq743VlZT0INfK3xU8Df2NrBuJNKj1yBFEV7pMg+TVrDcHaEnjLLIodcnG7K4IY5+cr4h5HnMcfa1OsuSb7Po38na56KovMMGsPHWcNUvLqd/8G/iNBrd5LdiJbew1u6lgiZZxPCb+3GydY5QqrKkiRrIjgDcUlzjCg3v2iNR0fSbHwfea/dQ2eiR6tL9rlnYBBEdPvA2ScdQccetJpuq6Z4q8J6rJPJodv8NGgtToU2kl0uIGUfOGVRtR0lChFTBBGCM8VO2uWl1odlb+MrS08SeHXCzWmvSWq3FvIuMBrhCp8qTaWBb/AFeOSVyVH3UZLnVaK/4byPAtzwcE/wDh0eBeEfiF4U8bpBpejS6TrF1a28ckqr5IkhCoqMqZt2XLZyBnkkZzUmjTXHw68EpDrGmPYW9rfXEskep28DrvklZ0bYIc5ZCQWV93UAKNoHsXjb4QeD9d0W21/wAIeHfDmoX+ls8sdraWkDQ38DKRNbkoCMun3W6q6qemQcn4c/Cfwbr95N4ru/B9npOgwo9tpVlrViFmeMsDPd3XnAuzuy7VEhyETIPz16v1qKV1DqcnsaqkuZ6mL8DPH3h7xp8WrcaNf293cJp17JPHDGiOiFNNjQEIAEAMUoHfA616p8XfFVjBYR6VdXMdtZMgv9XnYkx2+nxkFyxUE/vGwi8cgv6VWg1PQ9Lnuz8PPDulXOolTFJqttbLBYwKBkiWdF/eAHB2R7mPQ7R81RaXcT23hKLV/C32LxRc32or/bOpawzWpkgWRlnYZU48tVISNsKAvJ5JPmVKilNTeh10/wB3Bx5tT5qbVPAfia+1HxzokNyvjLSbo6iLmFXkttTlnmcwi3u0VAQ0ksKHeOI48bRgmvoj9n/wn/YWn26KxdLC1S0En9+Q/fb6k8/UmvM7e1sfG3i/zfC9h9i8JWl60umW0JYR3l667HvFjztjRQHVCoA5Z+4x9O+F9Bj8PaPBZR9Y0yzerHvXwWNrrOs2p0aDtTw92/NtW/A97C0v7Pwbc/jqafLqbNFLsFFfY8qOYVfur9K57xL4YtPEdiLeZdkuN8cvdG+v+fXrzW8rHaCP5GneWvH3h+FceKwtLF05Ua0eaL0sTSnKm4zg7NdT5T8WeB9a8E6tc3GnhI47u4W5u9PmmaG0vZlYMkscoBMEwIzvAw3Rww4rOtvG9xDqF7daLqieHfFc0xcaPrLi3ku0VjL5InZzDNyghXawwkjv95q+sr7SLXUrdobmMzRkYww6fjXm/iT4JWOsWclvBIJLeTG+3voBMjYORnIyeeevWvlqMM3yJctBKvQW0X8UfJPqd1aOFxz9pP8Adz8tmea61fX9pd3j634D013juIYIdcit2g86GSVozIfLYYI8qRzgjiSPGN1aFrop1O+maw8MaVFNb6ktlML2yuL6WKFpJVDjzSEU5SKTK7/lcDptzGv7Ps2jZj0qO50yI5zHpGpz2ac9TsjkVf0/kMPb4B6nqSGO/k1a8jbqmoa7czg8FRkNKc8Ejn1NdkuKnypvB1E+1r/ic0cqnv7eKXmYnirxRLa2c1n4p1uOx1O5iDRaXYOL2T5owjWy2MJyVO+Q+Yz7QwiYEEnEdxBrnxMaSxk06bQ/D95IJZ9HiYG61SUIq77xlxGgO0ExRkhjncW6V6N4X/Z/sfD0WyAW2lwnBaLT4QhYjPJOOT8x5PrXqOi+FdN0C38u0g2kjDyMMu/1PeuStWzrOo+zUfq9J7t6za7eR2U6WDwb5nL2svTRHP8AgX4f2/hu3WWZUa82bFCABY14+VQOgwAMdscYrtNvP4U/ao6Aj8Kbu9jn6GvocDgaOX0VSox/4PqcVerOvLnkSbaKg+1H0/UUV6nLI5faIlVF8v7o/KnbV/uj8qKKchw2Dav90flVdfvH60UVy1d0ORISaVfvGiijqMZNGqoQFAH0qbav90flRRWsdzOG7Dav90flTfLX+6PyoorWJt0ZS8xv7x/OiiitTlP/2Q==" parent="1" vertex="1">
          <mxGeometry x="537.72" y="609.38" width="44.57" height="45.12" as="geometry" />
        </mxCell>
        <mxCell id="cJatEB37gMDstE7g0faB-88" value="" style="endArrow=none;html=1;rounded=0;exitX=0;exitY=0.25;exitDx=0;exitDy=0;entryX=1;entryY=0.25;entryDx=0;entryDy=0;strokeColor=#757575;" parent="1" edge="1">
          <mxGeometry width="50" height="50" relative="1" as="geometry">
            <mxPoint x="400" y="754.47" as="sourcePoint" />
            <mxPoint x="721.8699999999999" y="754.47" as="targetPoint" />
          </mxGeometry>
        </mxCell>
        <mxCell id="cJatEB37gMDstE7g0faB-103" value="" style="shape=image;verticalLabelPosition=bottom;verticalAlign=top;imageAspect=0;image=data:image/jpeg,/9j/4AAQSkZJRgABAQEAYABgAAD/2wBDAAMCAgMCAgMDAwMEAwMEBQgFBQQEBQoHBwYIDAoMDAsKCwsNDhIQDQ4RDgsLEBYQERMUFRUVDA8XGBYUGBIUFRT/2wBDAQMEBAUEBQkFBQkUDQsNFBQUFBQUFBQUFBQUFBQUFBQUFBQUFBQUFBQUFBQUFBQUFBQUFBQUFBQUFBQUFBQUFBT/wAARCACAAuIDASIAAhEBAxEB/8QAHwAAAQUBAQEBAQEAAAAAAAAAAAECAwQFBgcICQoL/8QAtRAAAgEDAwIEAwUFBAQAAAF9AQIDAAQRBRIhMUEGE1FhByJxFDKBkaEII0KxwRVS0fAkM2JyggkKFhcYGRolJicoKSo0NTY3ODk6Q0RFRkdISUpTVFVWV1hZWmNkZWZnaGlqc3R1dnd4eXqDhIWGh4iJipKTlJWWl5iZmqKjpKWmp6ipqrKztLW2t7i5usLDxMXGx8jJytLT1NXW19jZ2uHi4+Tl5ufo6erx8vP09fb3+Pn6/8QAHwEAAwEBAQEBAQEBAQAAAAAAAAECAwQFBgcICQoL/8QAtREAAgECBAQDBAcFBAQAAQJ3AAECAxEEBSExBhJBUQdhcRMiMoEIFEKRobHBCSMzUvAVYnLRChYkNOEl8RcYGRomJygpKjU2Nzg5OkNERUZHSElKU1RVVldYWVpjZGVmZ2hpanN0dXZ3eHl6goOEhYaHiImKkpOUlZaXmJmaoqOkpaanqKmqsrO0tba3uLm6wsPExcbHyMnK0tPU1dbX2Nna4uPk5ebn6Onq8vP09fb3+Pn6/9oADAMBAAIRAxEAPwD8/wD7TL/z1k/76NH2mX/nrJ/30aioqyCX7TL/AM9ZP++jR9pl/wCesn/fRqKigCX7TL/z1k/76NH2mX/nrJ/30aiooAl+0y/89ZP++jR9pl/56yf99GoqQfNwOT6UATfaZf8AnrJ/30aPtMv/AD1k/wC+jUORkAHLE4Cj735daUgr1Vh9Rj9aAJftMv8Az1k/76NH2mX/AJ6yf99GomyvUHPfIIx+PSigCX7TL/z1k/76NH2mX/nrJ/30aiooAl+0y/8APWT/AL6NH2mX/nrJ/wB9GoqKAJftMv8Az1k/76NH2mX/AJ6yf99GoqKAJftMv/PWT/vo0faZf+esn/fRqKigCX7TL/z1k/76NH2mX/nrJ/30aiooAl+0y/8APWT/AL6NH2mX/nrJ/wB9GoqKAJftMv8Az1k/76NH2mX/AJ6yf99Goq9H+G/7OvxD+LWmTal4X8Nz6hp0TbGunljhj3c8AyMuTwfyoA88a5lXO6SVcHHJI59Pal+0y/8APWT/AL6NfSXiz/gn/wDE/QTpg0W1t/EX2i1SW8+zyR2/2Of/AJaQNvb5setYP/DDfxn/AOhS/wDJ2D/4ugDwr7TKWwJJTxnKkkY9c0v2mX/nrJ/30a+kvBf/AAT/APih4g1c2+vWkHhjThHI/wBvmljuk8wf6uPbG/f8q85+IX7MfxL+F2itrHiDwxPb6UjBXu7eWO4RB/ePlsSB07d6APM/tMv/AD1k/wC+jR9pl/56yf8AfRqKigCX7TL/AM9ZP++jR9pl/wCesn/fRqKigCX7TL/z1k/76NH2mX/nrJ/30aiooAl+0y/89ZP++jTo5JpGwssh/wCBGoK09OiVYQ/rW1Ompzt0MqkuSFxgtbo/8tz/AN9mj7Ldf89z/wB9mrp9qK7/AKrS7HF7eRS+y3X/AD3P/fZo+y3X/Pc/99mrtFH1Wl2H7eRS+y3X/Pc/99mj7Ldf89z/AN9mrtOjjeaRY0RnkYgKqjJP0qlg6crJLcmWJcbuXQofZbr/AJ7n/vs0fZrnr9oz/wADNdZF4C1+Z0UaZMN3c4wPrzXWr8JrC0Ci/wBfSC5wGdWVFGD3GWFexh+HsRXTcIONu+h5FbP8PSaUpKV+x5L9nuf+e5x67zS/Zbr/AJ7n/vs160vwn025UpZ+IYprjGUQGNh0yfusa5S5+H+v20sif2fJJsJG6Mgg49Kqtw5iaMOeUHJeRNHiDDVpckZKL89DkPst1wPOOWGQN56Vb0/w/q+rSbLGK4vG7eSGIP44r0P4X/C+XxfqU76iklvpto/7+PGGlf8AufT8a+jNP0y10a3S0sII7OBeQkQC8Zxkt9eK/Os2zOhl8nQhG8kfufC/BWJzuhHGV5+zpS1TW7R8g3Pw98V2cPmzaXfpH/e2Mf5Vh/ZbpWZWmZSrbDuZhhvQjt+NffepeEdc8P6Baaxe6bdW2n3TbYLiUFRIcZHBOcH1xXlXxD+Ftj4y0+aeGGGz1mNcRzRcCT2cY5+tefhc8p86o4uHJfqj6HNPD5rCyxOU4j2jjpZ63a3Pln7Ldf8APc/99mj7Ldf89z/32a0rm2ls7h4J0MUqMysrdQR61FX3EcPRlFSWzPwiVWpTk4zVmtDKkeeP70kn/fRpn2mX/nrJ/wB9GtK8j3wknGQM1kVw1qfJO3Q6adRzRL9pl/56yf8AfRo+0y/89ZP++jUVFYmxL9pl/wCesn/fRo+0y/8APWT/AL6NRUUAS/aZf+esn/fRo+0y/wDPWT/vo1FRQBL9pl/56yf99Gj7TL/z1k/76NRDmuv+Hfwh8ZfFi7e38KeHb3WfLZVlmhTEMZPQNISFB9s5PYUAcr9ol/56ydcfePX0o+0y/wDPWT/vo19Kaj/wT9+KFr4WtLy2sLW51kSyC605b6MbEH3CCSAWrwTxl4D8RfDvVf7N8TaLeaJenJWK7iK7wO6now+hPvQBjfaZf+esn/fRo+0y/wDPWT/vo1F2znjOB7n0ooAl+0y/89ZP++jR9pl/56yf99GoqKAJftMv/PWT/vo0faZf+esn/fRqKigCX7TL/wA9ZP8Avo0faZf+esn/AH0aiooAl+0y/wDPWT/vo0faZf8AnrJ/30aiooAl+0y/89ZP++jR9pl/56yf99GoqKAJftMv/PWT/vo0faZf+esn/fRqKigCX7TL/wA9ZP8Avo0faZf+esn/AH0ai2tz8pPGeBkY+vSkoAm+0y/89ZP++jR9pl/56yf99GoaKAJvtMv/AD1k/wC+jR9pl/56yf8AfRqGjPy7h93O3PYH3PagCb7TL/z1k/76NH2mX/nrJ/30aiooAl+0y/8APWT/AL6NH2mX/nrJ/wB9GoqKAJftMv8Az1k/76NH2mX/AJ6yf99GoqKAJftMv/PWT/vo0VFRQAUUUUAFFFFABRRRQAdgc4BHHufT616L8G/gB4v+OeqPbeHLEfYYP+PvVLpjFbQ+gZ8Hk+gBOOcY5qP4D/CK++NvxK0vw1au9tbTEzXt4o/1Fug/eP8AUnAHuwyRXt3x6+LE+seGdV8B/CmS30b4c+E1W2vEs5vLuNS+bDSE9WjLdf4mP3uOKAI7z4H/ALP/AMLy1p46+Kt9ruqpxNZ+HoT5aH2bEn86hXwP+yt4kkNnY+OvE/he7cgCfVLY+UM4IJzHtxg5618tRxtGpcRMojYZdAQFznbkjrnHHNbPjDxVL4w1641ea3jtHlSNDHDnYgRVUEAnHQelAHr3xa/ZB8S/DvQX8T+H7608ceDdnmHVNGYEwp3eSME/KO7DIHfFeD5BAIPBwRz1z0/P/wDXivZv2dvih4y+D82o+I9EuYpPDWnsBqml3swFvdZ6rGhB/fejjp3LV0v7VXwn0K20/RPiv4CRf+EJ8VAu9ui/LY3mDlCB0DbXGwEgFTjtkA+daKKKACiiigAooooAKKKKACiiigAooooAK+39a8LfEbxB+yJ8GbX4Zwau03lzT340O48hjkuFd8MM9T+lfEFfYXxO8feJ/Av7I/wKk8Ma5qGjXV5BNHMbKXY0wBYovA96AMjxh4d/ap8bNpJvdH8R239m2a2Uf2C4W38xR/HJskG9j3JrnP8AhUf7Tf8Az5eNP/Bm3/x2ua1L4qfHfR7F72+8SeMbOzQZe4nklRFHYkn1pYPij8ebrThfxeI/GMlmY/NEwkl2lP72fTHP0qiT0TwP4Y/an8B642q2Wj+JL64MElt5erXC3cO1uh2PJjcvY16P8FvCnxU0H4X/ABqh+JsOsrYXPhyd7ZNbuhKrSrFKfly7YOQP++RXzhpPxa+Omv2v2rTPE3jC/ttxUTW8srqSDg4x6V7d+zL8RfGXjPwL8c7PxV4g1XVXsPDE5jt9QndjA5il3nnv6UAfGI5GaKE+5RUlBRRRQAUUUUAFath/x6pWVWrYf8eqV2Yb4jmxPwliiiivWPOCiiigArsvhPCJ/GCM4B2QSuARkAjGMfnXG123wh/5G/8A7dpf/Za9bKEnj6XNqubY8rNpOOAqcr15dzZl+IGq2vjh7Ga8jj05bwxupUYVAccmtHxLpPhXxVqX2y41+JJNipthuI1GB9Sa4jXNNt7vxF4guLqbyIIbpidig5O/61lX+l21vJZ+XeD7LMu7zZFI2/XBP6Zr6OWaYiKqUsRTU4c3d33t+Z87DLMPN06tKo4T5eisu56V4f0Twn4d1SO/t/EcbyoGASW5jZfmXB6YqjcePtS/4TL7HZ3sb6Y10kahVDBlJAPP4iuGTRLOTprVr+IcVf020itNc02OKeO4VriI/ulxg71/wqZZlWajRp01BX6NoccvoxnKpVqOenVJn1PpNulvp0YVFHmfO+0Y3N6n3rofDOuJ4Z1mDUnsYNRMG94oboZi3lMKzD+Ln5sVzujzCayjVTl48I691JJHP5Vbwzfu2Hy+or+Y89Valm1Z1PjUn6Xv+R/olwusJi+HsLDDv906cV8rar1PZvH/AIn1LxV8B9AvdUumu7mTWJ8s33VG04UL2UdlrxdhHJxgAg9Qa9P1a6t5f2fdAhSeOSaPVpmdFYblXBG4r1x+FeYqUbLbeM4/GuHGXcoyW/LH7zr4epww+HrUoJxUakvLqfNXxz0mPT/iBO8Ywt3BHcMO24lgf/QT+Yrz6u8+NGtJrPjy68lxJFaxpbhh0yAc/hkmuDr9fy3nWEp+03SP494mlRqZviPYfCpOwy5/492/3axa2rn/AI92/wB2sWjFfEeRhvhCiiiuE7AooooAKKKKAPXP2aPgevxw8fPaX87af4Z0uE32s3oOAluCPkB/hzyR/ut+Pr3jL4+a547iu/DPwvuLf4cfCrRCYTqUI8pp1B6s4BfLDkKrBiPvE1mfCeR/Cn7DXxV1uzIjv9W1OHTJZlGG8keUu3PpiR/zrxHx3rVpH4R8I+H9LuY5bOGyS9uxEThrt2yd44yy9M+lAFjxN4ufQLy1ufDnxC8RarqO4ma6kklgAx93aWcsfxIr3P4P/tHWvxmtYPhh8aVj1zTNUcwaZ4hmwtzZ3LcKWbuWPAfhs/eL18lY29OfbkfzJpVZ48PG2xxtO7vxwMehHUH1oA7T4xfC/Ufg78SNY8K6k3mvYyHyrgLtFzER+7f69j7iuLr6l/bck/t/Qfg14smUDUtY8Nxi7k7uyeUwP5u1fLVABRRRQAUUUUAFFFFABRRRQAUUUUAFFFFAH1N+yv8Asc6Z8cvBl94q8Q6ze2Gmx3MlpbW2nxxtKxQAtIWdW556AGpL74V/swaXfXNlefEnxba3dtI0U0M1iFaN1OCpBtuuePbqcDmr/g/xZrHgX9g2013Qb6XTdWs/GLSRXELYwQU4I7hh1FX9f8P+H/23vB8viPw5Ba6F8Y9Ltg2oaUCqRapGBgSISMFm6qxwR91xjmgk5r/hXP7LH/RUPFH/AICL/wDI9H/Cuf2WP+ioeKf/AADH/wAjV8x6hp11pV5c2l7bPaXdtIYp4J4wjxOG2lWBHXPUdupwOa2PAvgXWviR4qsPDvh+ya+1O8k2RouAqgfedjjhV/iPbp14oKPqHwT8Af2dPiN4ktdB8OeP/F2q6rc/6uCGyUnbjJYn7PgKB1PbocHivMv2rv2bov2ePE2kR6fqkmq6Tq0Mr28lwgE8bRlQULAkMp3DBxmvTvGnjLw9+xj4Ou/A3ga5t9V+KOoQ7Nb8RKA32DIx5UZ9T/CvQH5mJ6VjfthTy3Xwb+AM80ry3EmiTs8ztuZ2K2pLH3yTQB8r0UUUAFFFFABRRRQAUUUUAFFFFABRRRQAUUUUAfVP7N9y3w7/AGYPjN4+tvk1WUR6Haz/AMUYdQCV/wC/+fqi18rpuTeQXBYYbGckZ+7n07/Wvrr9mPw8Pi5+y98SPh7a6nY6drL6pb3dvJfTCNCPk68E/wDLFugPUfhkL/wT58ZMcf8ACXeD/wDwMk/+N0Aed/CG90e1+HHi5detftOkyXVnDMVwGhEjMvmKfVSelee+OPB9z4J8QSWE7+fFIqS2l4v3LiF/uuvqD+neu08H6HcR6H8TvCsZS91KGKPy0tzvExgmw5T+968dqiuobrUPghI+t28sEulaisOk3FwjJJIkn+uhAYAlV9unagDzPrGqFm8sFW2kErkdsdvrX1P+zzP/AMLA/ZZ+Mngi7bzl0m3TXbBmOfJcZZsDtzEP++m9a5nwD+xX4n+IHg3SvEtn4m8L2FrqMPnRwXl06SoPR02nB/OvZvAXwWuv2YfhD8X9Y8Q+IdF1ObVNCaztU0u48xiWDqcrtB6sOgPegD4XHIzRQvC4ooAKKKKACiiigAooooAKKKKACiiigAr6y+K+oQ6T+zH+zVeXJ2QW9zJM425+VXy35jge9fJtfW3xSEH/AAzP+zV9rKm1+1OZ9/3Qvm4IPtigDhPEnijSbe18fXv/AAnaa5FrVrJDYaYolYxs75XBYbRtHA960tM8caH/AMJRoHiZvHiW2mWenQxT6DiXeziHayYHy1a8bnWm0j4hHXhpB8PfYpv7H8vyfMLb8xFdmDkDr/WtPR/7T/tjw+Lc6H/wr1tMhW6V/s/eHc4OTvzv7+lAHn/h7XtN1bwX4TtovG6+Fp9LuLj7Xat5qmYNLn+Djgcckc16/wDs961aeIpf2ltTsZTNZXWg3EkMhHDjy5R07V514H/t3/hAPCn/AAh/9k+X9ouRqxmWHzD+/wDl3eZyPl54r0v4C/ZFvP2mTY+ULI6DcGPyMeWV8uU4GOgoA+ME+5RQn3KKACiiigAooooAK1bD/j1SsqtWw/49Ursw3xHNifhLFFFFesecFFFFIArtvhD/AMjf/wBu0v8A7LXE123wh/5G/wD7dpf/AGWvXyb/AH6g/wC8jx82/wBxqrtEz9e1h9N8Ua6nlxzxzXTbo5F4+/WZNq9xfXdrOiRRG34RVQFYx9O9dHdRvJr/AIme2iimuBctsWQBv4/eodQtR9s0zzraBLmSPMsYOxc++M12YqjVlOdpfa/X+mclCpS5Ye79n9P6Rn3OsXl5B5MzqY/7qxKP1xRoo/4nWncjb58WCP8AfrUvIbexh8x9N09h/dSVmNUtPuobjXtNaK2S1UXEQ2oSf46I03GrBTmvuFKpzU5Wg/vPQ/EHxAufAfj2GQKbjT57VRcW2f8Abf5l969U0HxhpniqBJtNv7eRG6xs4WRfqDXz/wDGb/kaLf8A69l/9DeuDRjG2+NmRu5UkE/8CFfI8V5HRx+YVqsXytvU/VOAeOMdw/l1LDOCnStonvF+XkfabvDa/vHkSFcbd7NjGep+teW/Ef4z2OkwzWOhTpd6mw2GdR8luPUHua8Ckvbmdds1zNKv92SVm/rUPYD+H+7jgfh3r5LBcM0qNX2lV3R9/m3ibicVQdDBU+RyVnJu7t/mK7tIzOzF5C24s38X1pKKK+4SSXKlY/EpSk5OUndy3Yy5/wCPdv8AdrFrauf+Pdv92sWvNxfxHZhvhCiiiuA7AooooAKKKms7K41G7itbSCS6upW2RwQqXd27KAOpoA+n/CHH/BPfxuDxnxJFj/vu3r5Zx14AycnHv3r7Ji+HPijwb+wfqujX3h/Uzreva8k9vpsNpJLcLGGjJZkUEqP3TfmPw+Xv+FW+NSCf+EN8RYHU/wBk3H/xFAHMUfw4rpv+FXeNCcDwd4gP/cKn/wDiKP8AhV3jXdj/AIQ3xFnjA/sm47/8AoA98/a8/wCSR/s/9h/wjvX/AIBb18u19jftH/DfxT42/Z9+C2r6T4f1K9GkaV9hv7WO0k8+3k2xDLRY3bf3Z6DPI4r452kHBGDnB9qACiiigAooooAKKKKACiiigAooooAKKKKAPqNP+Udrjqf+Etb9dleR/Bex1PRdei8bRatJ4Z0zRJVml1WLh2c/8sUJyHL91xj3FfR/wP8Ah2/xk/Ytn8MWbvLcWXid7y6trUqZ/LXZwASMk9uQPevM/HX7P/xk8VzW1nZfDvUNM8PWAMdhpsbR7Y1PVm+f5pG/vHp2oJPSfEfh3wr+3VotxrvhVLfwv8WNPP8ApmnXbhI9RhB2iTvltvIYcj7pDDmppPGHgX9j3Sh4C0PUWvPHWrQtDr/iyxKsdOJTCrGDnhW5Cjv8xJPFeE2/7J/xns5o57bwTqttPH9ySGRUdfowkz+FNk/ZJ+Mc0jSP4G1RnbkszRsxb1LF8k/Wgo4Hx94V1TwnrkkWpSm9W7BuIdQ3GSO8V/8AlqD3J7g8rX0F+10Qfgn+z6RyBoMxJ+iWtU/Bf7O/xTl0n/hFPFPgHVJ/D05b7PeKYzLpsp6Oh38r6g9a3v26NHfwb4P+DPhO6mSXVNG0i4juFU/MPltwCQcHB8t+v900AfJFFFFABRRRQAUUUUAFFFFABRRRQAUUUUAFFFFACenJI+Udugzjkg56mlON2QB+Q/wopNw3AdyMigC1perXui30d5YXU1pdxk7biGQqwB4OPqOtX/EfjLXPFzRPrOp3GomEYiSVvkQd9qjoT3NY5+Xg9fSjGeByfTNAAMqRjC85O3Iz7deKQ5Pfqfm6/MN2cHJpaKACiiigAoopNwGc8ADJoAWiiigAooooAKKKKACiijvigAr7k1j4E+Kfjt+yZ8FrLwstk8+m200lyt5ciHAZyF6jOcjJ9q+G6sx6xfQxrEl7cRpGNiwrMQqrweg465oA+i/+He3xb4zBop9c6jnP5jil/wCHfHxb248jRcYxg6iD04A+76V87f21qH/QQu/+/wC3+NH9tah/0ELv/v8At/jQB9E/8O9/i2MkQaIMnd/yEcYI46gc8V6/8Ff2cvGHwH+HPxjufFMenRrqXhq6gt/sd0JCzLFL1+tfC/8AbWof9BC7/wC/7f40PrWoNG0Zv7p42G1kMzbWByGBGfQmgCmvC4opCwXGeM9O9LQAUUUUAFFFFABWrYf8eqVlVq2H/HqldmG+I5sT8JYooor1jzgooooEFdt8If8AkcOBn/RZen4f4VxNSQXM1pJvt5ZIXxt3RMVOD1rrwOI+p4mFeWtnsceMofXMNOitLrc9Q1T4Xard61f3sFzbqtxM0i7mZWwWzzhaqt8JdYbrd2rZ4O5nOB7HbXB/29qf/QRu/wDwIk/+Ko/t7U/+gjd/+BEn/wAVX0LzLLZyk3Slr5o+fWX5jDltVjp5M7v/AIVFq2OLizH0Lj/2WrGnfCvVbPULWd7m2KRTJIwVmzgNk4+WvPP7d1P/AKCN3/4ESf8AxVH9u6n/ANBG7/8AAiT/AOKpRx+WwnGcKUtO7KlgcylG3to29Dr/AIzN/wAVPbfKf+PUfozH+tcFUs91PdOrTzSTMo2hpW3nFRV4WOxSxmKnibWUj28BhXhcPDDt3cQooorhPQCiiigBlz/x7t/u1i1tXP8Ax7t/u1i15mL+I7sN8IUUUVwHYFFFFABWp4V8Tah4L8SaZr2jz/Y9V02dbq1uFGdkq9HIPB+lZdHvnjGaAPej+3N8Z2LH/hKo9xGP+PCD24OFBPfvXXfDT9s/4p+Itau9J1LxbbxXN1ZvDp80tnCqx3I+4CcYr5Xx19uvaj0wBnjk85x93jt9aAPq7S/2jv2k73Xl02bUbmzKyfv5p9OhSGNf7xfZjH0rL8efty/FCDxhqcPh/wAUxf2PFKYrcmxibdsTBOSOmelfPtx4y8QXmn/YJ9bv5rIjBt5bhmTHpjuPxrG28YzgdlHQZ60Ae9j9ub40KzOPFUYdv4hYQDH/AI7zXg7SF5Gc9WOTTaOucHOOtABRRRQAUUUUAFFFFABRRRQAUUUUAFFFFAG74U8eeJfAsssvhzxBqWgyS8Stpt08AcDPBCEe3NdN/wANF/FT/oovib/wZy/4155RQB6H/wANF/FT/oovib/wZy/40f8ADRfxU/6KL4m/8Gcv+Ned5HQHJ9BS0AeiN+0Z8VD/AM1F8TZPB26pKMj6Zri9c8Rap4o1OTUdZ1G71S+cBWnvJjK7KM4Xceg5/U1n0UAFFFFABRRRQAUUUUAFFFFABRRRQB3Hwf8Ag9rvxt8UTaB4eks476G0e8Y3sjRp5alQeQrc/MO3rXok/wCxb8QJLed9HvvDHia5hUubLRtZjmnb2VSBuJ9jW5+wCQPjBr4OMHwvfDB5x88WOa+c9J1i+8L6xBqulXMtlf2cvnQ3Fu21g6/dOR0z6GgCG/sbnS765sr23ktLy1fy54J12PE2eQ4P3ccHnHUVAflznqDg8d/T3r7L/agsPB0Pxo8H+IfEvhnUvEF34g8MxX9xomizeS89991TJtBO1geSg/h6GuM+MHwj0S4+AKfEPT/h/qXwy1ax1SPTZ9JumlZLuBwpWaMSKrA/N2H8J/EA+aP8kZBIycDIHTNdxq3wl1PR/hHoXxBe8tX0vWNQl0+K0jyZVkjBJyMY24HBBNfQPi74P+E/h38PvDWo2Pwrv/iP4cvtGiv73xhp2qTb4J3XLhEj3IiqehZTRb614U0H9ivwLe+KvD914nt18Q3otdNW9NsjPmQEzOFLFdg6ADmgD5h8E+FLvxx4u0bw7ZyJbXWqXMdoks2Qiu5wM4BOPoDTvHXhC7+H/jHW/Dd7LFPdaVdPaSTRA7CyttyCQDgnpkA+wr6WXwD4V0v4mfs9eO/CGlzaDpvi6+V5tJkuDN9mmhlVWKueoJYY/HpWzri/CDxt+1F4j8B6x4M1Ca/1nWbi2fxM2qETxXTEsDFDjCxhxgEkn2oA+M+2evIHHPYHt9aCOnfPT3/CvofwP8B/DvhWL4qeJPHsdxrGh+Brw6dHptrIYDqNy0hRN79l5XkevSm6p4L8CfF74J+LvGng7w2/grX/AAlLE9/pi3jXVnd2shIDruA2sNpyM9uM0AfPSqW+783APHJI9QO+KMfKT1AOCRyOcY56c5FfVXwV8I/Dr4lX+heHbf4OeJNQ0e+Atr/xpcXkrva3DId0o2J5KIHHfnHaqPw4+CfgbT/DXxou/HUF3qC+B9Ujt4p7OTZNKiTMGiHO0+ZtXJOMc0AfMY+ZsD03dD0xmu40v4S6nrHwh1/4gpd2yaZot/Fp81o4bz2kk246L0+YZJI717B4Q8K/DPxdpfj74sXvg6403wR4ejtray8KQX7N9qvZAFDPNjcoyw7d+lbt1rvhjxN+xL8QLzwx4Y/4RKIeI7FZ9PhvTdQeazwkPGSNyDBA2txmgD5KooooAKKKKACiiigD0f4T/s++MvjJ9qm0Kyhg0y0OLjVdQmEFpE3GVLnPPI6A1rfEr9l3xn8MfDZ8R3Mmk674fjdY59S0K+W5ht2Y4USHAK57cV6X+1FdSeCfgL8FvB+jP9l8PX2kNql4sR2rd3LeVudyCNxHmNx/t+1fL1vfPDA1uZ5o7CSRXuIo5GCyBGzuxkKCByMg0AQ7Tu29T1+Xnj147V2/hf4S6n4q+Gfivxra3lrDp3hySGO4t33eZIZCAu3CkHrzkivoX4S/DP4ffGrUP+EX074QeI9C0a4s5vsvjS8upZJRMsZ8tn+UQ7SwxgZHvXKfCO3a1/ZM+O9ryzx3tjGceolVf5igD5sLAdx37j8Ppn3o/hyATxngE8euemK+0b39m3Tvhvb6Boy/CbUPiZdXVlFPrOs/2o1sIGlGWito0ZcbexasbQ/2b/BGg/Ez4w6H4ghvdZ0Lw7oq6xYTWs2y8jQjzMDHBlCfuy2Me1AHyPuHQkA5xgnH4fWhmC9SBjruIAHtk96+j5vDHw7+LXwF8deJ/DPg6fwVrXg1raYbdSluku4JWKlH3Yw+R97FLceE/AHwN+EHgnXPFHhd/G3ijxfbzX6wSajJZ2+n2g24C+X95/mHPXg0AeT/ABI+E+pfDHR/CGo397aXcfifSV1S1Fs3KRttwGyAA3zDgE9DXD569BjPUgZ4z+H44r63/agufC73HwCmvtO1ZvCR8MJIdOs7hTeC3ynlxCTGCxypyOeDxVa9+FXhn4ifBvx1rtn8LNY+GV74bsl1PTry7uLiRNRgUtvjfzAu5gF++P7woA+UsHjg8gMMjGQemPX8KMfl619T3nhf4R/Cn4SfDDxf4i8IXXiXVvEGnStNpkF6baGaQSDfcyNyQQD8oUY+lfLUzK8rtGgjUvkLntQA2iiigArVsP8Aj1SsqtWx+W1SuzDfHY5sT8JYooor1Lo80KKKKLoDd0HwhdeILV54LqzhCtt2XEuxj9OK07j4X6paKTNd6dEcEhXuQCR6jiuQXDSDIzzkA+teheOtKOu+PNLsVO0zW0StIeQoOc8Y9jX0mDoYathp1FRvJOKXvdWeBjMRiaOJhT9raLTb93pE88z+H4Gl2noeDjOK7uK38Lz682hDS5onaT7Mt8JiX35x930rj9W09tJ1O7sXbc1vKY930ry8Rg3SjzuXMr2079j0cPjI1Zcqjyu19e3c3LP4eajeabbXv2mxt4bhSyCefaePwqnrng3U/D8C3FzGj2zHas8L70J9Pr9a2/GOP+EH8JA7seU27PP58VP8M1a+sdbsLgs9nJaeayt0Rv73PSvblg8JKt9TUXz8l+a+l+W+x48Mbio0vrrkmue1rf3rHAnjnrzzgdPejjnnp1/wrsIdP0nw74f0/UNRsm1K8vgXjj80osUY75HWqnivRbG307TdW01JILS+VswSHd5Ei9QPWvHqZfOlBz5tUk2vJ2s/xR6sMfCrNQ5dG2k/Nbo5qiiivMuj0Qooop3XcBlz/wAe7f7tYtbVz/x7v9MVi15uL+I78N8J3Pwn+DXiT406lq2n+GIoLi+06xbUHgmkKNIgIXanBBbJ6Ege9cXJaTQ3htZY2iuVkMTRSDaysDgg56EV9IfsQ6tc+HtY+KOq2DrDe2PhC7uoJGXeA6SI6/L6Zqz8XPCum/HnwTbfGrwbaJBqcLxR+MdDtxn7PPjBukUclGPJI7A8fK2OA7Dw34p/DPV/g/4yuvDGuvavqVvGkj/ZJTIh3oHUDIBJwfSuS9OnPTkc19t/Fj4T6Z8Vv2v/ABWuvXFxB4Z0Lw/Bq+pi1IWZ444FAiRscE89PQ1574H8M/DP9o618U+H/C3g2XwJ4ksNNm1LS7uPVZLpLxYtu6K4ViPm+YYYY6GgD59HhPVz4VPiX7DJ/YP2oWX27jZ5xTeExnOSvPTp1xXR3Hwj1W2+ENr8RXvtP/sq41BtPSz8/wD0sMudzGPHCDHXPccV9Ep4o8C6Z+xf4Zvr/wAANqmnTeIpI3sDq88bPdCBla68wDPzBSNmMAd65Hxh4f8Ahq3wA8L/ABJ0vwE2mpN4kNheaPJq9xNHcwpE5YbieCxUcgUAcNb/ALOOqWvguw8TeKPE/h/wZaalAbnTbTWbsi6u4wu7cIlRiAR03YzXknt0POQwwRjr1r7i/aM174fH4v8AgvQ9d+Hb61cX2k6ZDDeDW7i3+zQyHakaomMhPXPNcB/wzh4V1L9qrxv4VP2jSvAfhi2bUrqC2kLSm3jiRxGGOSSzSDOcdDzQB8u7G/utjBOdpP5Y6/hSL82Mck9AOSfw/wAivUfHvjj4ZeItDuoPD/w2n8L6gsyfYtQg1WSfzYxIMiZJAwYkHjBA969o+Dnw7+Hfxi1az8L2Pwf8TWuh3tuYk8a3d3LLJDcCMkO+1fIALjhPSgD5b0Xwrq3iKw1a902xkvLTSbf7VfSxlcQRbgu5snoWOBjNdJ4F+Eeq+PvB/jHxFZX2nWtt4XtlurmG7uRFNMrAnEa4+cjHIz3FfQf7Psnhjwv8Efjja6p4V/te60aGO21eb+0JY/7TjE7qicf6oIV3DbnJ61zugaH8Mvib8E/ilr+jeAJPC2q+GrGC4tZk1qe4V2dsFirY7J0PrQB8yAhgTkYHU54H19PxxQvzdPUe/Xoa+lvFPhv4b/s8+HvB1l4n8Hy+O/FOu6ZFqt9JLqklrFZxSfdhhCk5frlm9DWtD+zv4Ph/aM+GNhaxT6l8PvG9p/aVrZ30h82JGhZmgZhgtsLLg0AfKnG3cDlcZ3DlfzHFJ3x37DufoK+tPAHgb4SfEr4keIfhVYeC9Q02/t0vFsvFVxqhluftEGfmaLaE2cfdGayPg38H9FvvgXceLrTwKfip4oXUpbS90ePUXg/s+2X7jiGJlcmgD5iBBwM8kZAHJxnGfalre8cPpreLNSGkaLeeG9PMrBNJ1CZpZbYjAKMzKpPzHvisGgAooooAKKKKACuw+E/wt1n4zeNLbwt4fa2XU7iKWZftchRAsa7iCQpOcdOK4+voj9gfaf2mNGyAc2N5w3P/ACy9aAPn28tXsrqe3kH7yF3jYgHblSQ2CewxTIoWmlSNRyxVQe3P+e1fRnw78A+BLr4P/Evxz4u0S71a50HxDHHDHY3RgkmVyV8p35AQswyQM47GofH3gvwR4p+Bug/FDwl4ak8HXcXiD+xb3S0vGuIZWZdyyqWAKnHagDyr4wfCrU/gx43uPC2q3lrfX0FvDcySWuQgSVdy5JAII6EEZz61xf8ALjPcj8BzX23+0v4k+FujftDQ6f4s8GXfie6vbWwhvLyTUzbxWUbxhV8iKIDewQ7iWPXpmuRf9mHwv4H+KXxTm8STXuoeB/BFnFqMdlDOEuLzz13QwM4HTHegD5RyNwG5ckkAZ5/KlbC8MQpxnDccevPX8K+jrPwn8P8A47fDDxxqvhPwrL4E8TeEbNdTNvFqEt1a39mu7eGDYIf5TyDnkVueFP2f/B3xy8N+FPGHhVo/Cej6eXtvG1p58jCx8qNpJJotzHiQL07bhx6AHysVK9QR1+8COnXrSV0vxI1Xw7q3jTU7rwhoy6H4cEhhs7YOXcxocKzMSfmYcnGeO9c1QAUUUUAFFFFABRRRQAUUUUAe0/sm/Fbw58HfiNqGseJ5buLTLrSLiy3WMHnPukZCpxkcfKc8+lbulTfs2+DtQh1dbrxp41ubVhNDpN3Zw2sEjjoJWzkr+FfPPHYe2eRx9ARSbR6cei4H6kGgD6h8F/tU2fiD4i+PvEPjSe88PXniHSl03SdX0a3W4k0JUbKiNTjI5PIwenFY/jT4x+Dbr4A+IvAGl614i8Satd6zb6kmr63GALvaR5mFLOUUADaGJ6nOK+dsc5zz3IyCfxBFLnrnn/ez09DzyKAPpz4O/Fb4Y/BPVrbxPonjDxlceXbZuPCFxaReRd3Bi2/vJg+zZu7hd2K4nxl8XNC8R/s3+GfBlus6eI7HxBdalcQiEiBY5d/yq3/Ah1A714zz/eP65/nj9KQ59cnoTyAR9M0AfRdp8dPClvoP7P1o0l6Z/BF7Ncaxi34CPKjgR8/McKfTtXQ23xY+Cmm/GTU/i3Hd+KNR1wXs1/ZeG5rWNYmuTuEchnD52c5K46+tfKu78+xyePp6Uhycj+997kgEemOwoA91+G/x70mW3+ImgfEG3u5PDnjiYX91daSB59leK25JEVmwV/2c9hVrU/ih4A+G3wl17wT8P5tV8SzeJLqCTVtW1i2W0Q28TAiBIwzZzg5Y4PzHivAPzz3IOM/hQPc4P97k/oTQB9i61+0n8Obz4m+GvG0fijxgmnaYLeOHwPZ2yxWlgUQIRv8AMKlAMttCkuepWuAuPjn4Wm8K/HzTxLefaPGuqx3ekf6PgFVuGkzJz8rbTjvz37188nPHzMe+NxCg+w7UnP49ScnJPv60Ae2fAn4qeFND8D+Nfh947F/D4Z8TLBMuo6ZF5k1ncxMSG25G4cj/AL5FbWufFD4a6J+z54q+HHhSfXL+7vtSt7yHVNUt1T7YyuhchFJ8rARduc++K+ecHOc89y2ST+IIpc7s5+nJJyPf1oAKKKKACiiigAooooA+hfAfxw8D+LvhVpvw6+Ldjqjado7+ZoviHRubmxz96Mqeqct69vSqd9rfwF8Cw2T+HtP8QeO9UF/bXDXmsAWlvBDHKjsgiyfM3KGU7sdRXg3fP57skn8QRSf3s5O7vk/yJNAH2nZ/tNfDvS/jtB4+m8ZeNNesppWEOgtaCG00mJo2QgoXKyYBwFVVGOc54rxXwf8AFjQND+CPxY8K3L3iaz4nvLe403ZDlGVJd5DNn5TjpXi3oAOB0yAcfTjilzgYHGfvdcH6jPNAH0h4q+JHwq+O9poeteOdW8QeEvFen2MNhqLaTZJd2+oLGuFlUFxtc9+Kx/hz8UvAfw8uPi5aWCazBo3iPQG03Rlv0Wa4dyP+WpQqqjPseO1eDHPbn3JII/Klz6fLnltueT7880Aeu/Cn4oaF4O+CfxX8Lak9yNY8T29pFpyxwlkYxOzNub+EYPH9K6yT4n/DL4q/CXwboHj++1/QNf8ACUTW1rcaRbJdJf2/G1cFl2NwMk1868qMA9fvYyAfqM80vP8AeOCeVYk8e5BGaAPrcftO/DpfiR8I9aj0fUP7G8K6FPpMtvcRrNNYyEAQzISdsjKAOTjnsay4/jt4I8PeFviZpX/CY+L/ABzqnirR5LaLVtXiKwpMc7YlTzCQTuOXBHQfKa+W29h9OvH054pWZmzlieNvLE5Hpjt9aAPX/i58UtC8bfCL4TeHNNe5bUvDFjNb6kkkBVVLspAU9WHHpXkFJzjA6A8ZySB7HPFLQAUUUUAFXtPnUAxscelUaT3zzVwqOL5jOceaNjdzTtprE86T++aX7RL/AM9H/wC+q9D60uxyfVja2mjaaxftEv8Az0f/AL6o+0S/89H/AO+qPrS7B9WNpVKsD6V2HiLxlDceLtP1bT90n2WNE2yLjcRuz0z615r9ol/56P8A99UoupRxvY/jiuyjmkqMJRh3T+446mWxrTjKfZr7z1OPXPDEOtnXFa9NyH89dPMYx5uO75zjPtXHaleyapqFxdy/6yZ2dvxrnftU3/PR8em7+tJ9ol/56P8A99VeKzmeKjyTjpe+nczw+Uww0ueDu7W17Hqc2t+HdY8NaRY6jd31vPYoynyYMhs/U1WuvFGlaRpNzp2gQTn7UMT3lz9/b/dGCeK81FzMP+Whz68n+tJ9olPWRiPTNdMs/qS1UVzW5ea2trW+8545HTjvL3b35el73PRrfW9J1jQLLS9YkuLKax3LDc26BwUP8JXNVPFPiC01C103TNPjlGn2KnaZOGdm+8xxmuF+0SrwJWx7cUfaZegkYD61jPO6sqbhbVpK/krf5G0MmpRqKd9E20vN/wDDs2tpo2msX7RL/wA9H/76o+0S/wDPR/8AvqvN+tLsel9WNraaSsb7RL/z0f8A76pftD/89H/Oj60uwfVi9fTr5ZQHJNZlGTuznNFefVm5yudkIKMbHrn7PXxQ0H4Yr8QRrhuV/tzw1c6VZ+TCXzPJt256YHHPf2rG+A/xl1L4H+OrfWrVPtmnSoLXUtNk5S7tSMMh9wOh9fTJz54O/wDTIyfXrwaKgs+p9d/aq8PL+0trnjGwsL3V/BOvaSujajaSReVO0JRVcpzwQVO3n+I9Kx/DXxK+FnwHsfEeq/D/AFLxD4m8V6vYSaXYnWLNLSLToZMb3YhiZH4HUfjXzeeW3fxe5JP55p244xnK+hJOfxJNAHv/AIJ+I/w61z9nmL4d+NtQ1vRLrT9Zl1a0uNKs1uTdKyFQhy67Tlm647Vz+sfFHQLr9l3Rvh/BJdHxDZ+I5dUaN4P3YgZHUfNnrlh2x7149j64J5DEnI9yMZoXKrtz8vdecEenXpQB7t8aPjF4b+IHxi8F+J9Je8bS9Js9Ot7hpoNr7rdsuQueh7Zx74roW/aZ0PS/2pPF/jm1sbrVvBXiOCTTby1ZPLne1kiVGI5++CvHOPevmj+IsRub/azk/U5ob5jk46ccEkH65oA9h1y3+CXhcJfeHNR8SeLL77dbzx2epWcVrBDAkitJFMckyZQbBgDjnivcj+018O7b43ab8QG8XeNNT01HC2/hVbQQ2elxmMRkFfM2uAMsFVRz/FXxaO2SQfXJOPzPNJtVsZHI6E4OPpxxQB9A/CX4veDNPHxd8P8Aiy41HT9C8asxh1TT7cTSW/795BmPcOzDoTzmqHgz4leCPA/w9+NHhewutUuofEttb22jTXVoqvMI2YnzQGOzrxjNeHZ5B/Pdkn8wRQ2W789zzz9eeaAPojWviZ8MPjZ4Z8KP8QNS8QeGPE/h6wXS57vSLNLuHUYE+42CwKP9Bjk81pQftNeHLj9ov4eeIhY3ukeAvB1sumafCYvOuhCInTeRnG8llzz/AA9a+Zeemcj6kY/I0D5TkfKTySpIP55oA91+B/xi8N/D/wDaWvfHWrveLoE0uoOjQw7pMT7tmVz2zzz9M1l/CrVvh9osFnqt3478XeC/E9tdPLK+kWqzQXMe/KrGFkBU467s146vy9Bt/wB3IP55pSzc4bJ9eRn8jxQB6F+0B8TbX4xfFjXPFVlYvp1leeWkMEuPM2pGqb5MEgs2Nx56157RRQAUUUUAFFFFABXrf7KnxN0H4QfGbTvFHiRrldKt7a4hdrWEyuWkTauF9M9a8kpOd27+L/ayT+YIoA9r0T4seHrH4BfErwhK14Na8Ra3De2KiH92Y0dWO5s/KcD0qKz+K2g2/wCy+vgFmuj4jXxUmshRCfK+zhNpO7PXPbFeNZ6g8g8EHOGHuM80ueMfjnnGfXGf0oA+r/iL8TvgV8VPi3F441XVfFlsbNbZTp0Onoyal5IXbhy+Ys4weOlYFh+1VYeIviV8SLvxjpl03g7x3bfYLq1s3U3FlGnEDoTgFlHvXzb65/kP145p2fwGOQoxk0AfQP8Awsz4c/Cb4a+MfD/w81DWvEmu+LIY7G61XWLNbSO0tBncqKHOWbJyTWvpP7UOkfCGPwL4f+H0E134T01mufEUl9bCGTWp5QUm3Kc4QITtz3AyBXzNzuzuIHccnP5mkOS24nLe2QfzJNAHXfFZvCMnjzVbjwLNdy+GbhjcWkd7B5T24YfNDjJGAeAc9PSuSoz/AI5XI5+hJooAKKKKACiiigAooooAKKKKACiiigAooooAKKKKACiiigAooooAKKKKACiiigAooooAKKKKACiiigAooooAKKKKACiiigAooooAKKKKACiiigAooooAKKKKACiiigAooooAKKKKACiiigAooooAKKKKACiiigAooooAKKKKACiiigAooooAKKKKACiiigAooooAKKKKACiiigAooooAKKKKACiiigAooooAKKKKACiiigAooooAKKKKACiiigAooooAKKKKACiiigAooooAKKKKACiiigAooooAKKKKACiiigAooooAKKKKACiiigAooooAKKKKACiiigAooooAKKKKACiiigAopPQjnPTbyfyFLg+h/KkMKKMH0P5UYPofyoAKKMH0P5UYPofyoAKKMH0P5UYPofyoAKKMH0P5UYPofyoAKKMH0P5UYPofyoAKKMH0P5UYPofyoAKKMH0P5UYPofyoAKKMH0P5UYPofyoAKKMH0P5UYPofyoAKKMH0P5UYPofyoAKKMH0P5UYPofyoAKKMH0P5UYPofyoAKKMH0P5UYPofyoAKKMH0P5UYPofyoAKKMH0P5ULlsEBsHvg0AFFHYkc464NFMQUUUUAFFFFABRRRQAUUUUAFFFFABRRRQAUUUUAFFFFABRRRQAUUUUAFFFFABRRRQAUUUUAFFFFABRRRQB//2Q==;" parent="1" vertex="1">
          <mxGeometry x="400" y="1070" width="321.87" height="50" as="geometry" />
        </mxCell>
        <mxCell id="cJatEB37gMDstE7g0faB-105" value="&lt;span style=&quot;font-size: 23px;&quot;&gt;&lt;b&gt;To Do&#39;s&lt;/b&gt;&lt;/span&gt;" style="text;html=1;strokeColor=none;fillColor=none;align=center;verticalAlign=middle;whiteSpace=wrap;rounded=0;fontColor=#FFFFFF;" parent="1" vertex="1">
          <mxGeometry x="392.19" y="664.5" width="115.62" height="30" as="geometry" />
        </mxCell>
        <mxCell id="cJatEB37gMDstE7g0faB-107" value="" style="shape=image;verticalLabelPosition=bottom;verticalAlign=top;imageAspect=0;aspect=fixed;image=data:image/jpeg,/9j/4AAQSkZJRgABAQEAYABgAAD/2wBDAAMCAgMCAgMDAwMEAwMEBQgFBQQEBQoHBwYIDAoMDAsKCwsNDhIQDQ4RDgsLEBYQERMUFRUVDA8XGBYUGBIUFRT/2wBDAQMEBAUEBQkFBQkUDQsNFBQUFBQUFBQUFBQUFBQUFBQUFBQUFBQUFBQUFBQUFBQUFBQUFBQUFBQUFBQUFBQUFBT/wAARCAAoACkDASIAAhEBAxEB/8QAHwAAAQUBAQEBAQEAAAAAAAAAAAECAwQFBgcICQoL/8QAtRAAAgEDAwIEAwUFBAQAAAF9AQIDAAQRBRIhMUEGE1FhByJxFDKBkaEII0KxwRVS0fAkM2JyggkKFhcYGRolJicoKSo0NTY3ODk6Q0RFRkdISUpTVFVWV1hZWmNkZWZnaGlqc3R1dnd4eXqDhIWGh4iJipKTlJWWl5iZmqKjpKWmp6ipqrKztLW2t7i5usLDxMXGx8jJytLT1NXW19jZ2uHi4+Tl5ufo6erx8vP09fb3+Pn6/8QAHwEAAwEBAQEBAQEBAQAAAAAAAAECAwQFBgcICQoL/8QAtREAAgECBAQDBAcFBAQAAQJ3AAECAxEEBSExBhJBUQdhcRMiMoEIFEKRobHBCSMzUvAVYnLRChYkNOEl8RcYGRomJygpKjU2Nzg5OkNERUZHSElKU1RVVldYWVpjZGVmZ2hpanN0dXZ3eHl6goOEhYaHiImKkpOUlZaXmJmaoqOkpaanqKmqsrO0tba3uLm6wsPExcbHyMnK0tPU1dbX2Nna4uPk5ebn6Onq8vP09fb3+Pn6/9oADAMBAAIRAxEAPwD448JarZeEvgrFrJ8O6TrF9JrT2pfUrVZCqiMHrjPc96rQ/FO7uI0eP4a+HZUZSQ66SSG56jC1TuAG/Z0twQCB4hkHIzx5I4r0e4/4WKvgDwN/whRuBAdOb7UsRiA37xjO/wBq4ejOTucQ3xMv9rY+GXh/ODj/AIk7f/E10Hw78ZWPjrWtT0u78G+HbER6fdTiS1slSRSowByMg81t+CT8Zv8AhLtI/tv7UdJ+0p9pDvb42Z5zt5/KvM7HxbN4X+LXiS4trBtTlu5Lu0jhRtrfvGxnH6/hUxad9vvYo9TzaM5jT3GaWvR/FHwN1fwt4bXUBcw6ldWqL/aWn2bAzWRIyAw53DBHTGK8y8yP/n7X/vmu+Eo8up0xlG2rPUZgD+zxa55H/CRuSPX9yvH1pvh34f3upaHY3UXj7SNOWaIOLObUHjeIEnhlDDB6cUs3/Ju1vjr/AMJFJjHY+SOapaL8StK0vSbWxl8DaFeyQqI2vLlGMkhz97rjNckW7NJdTCOqfqL4k8L6xoLWCWXi6HxDdXkvkRW2k30ksm7sSMjGTx6c11Uc9r8B4Y2KRaz8RLogtHKTItgh6xk/xSN0x71R+AFtLcXXim4sEtYtfTTiNMeZlBhkdiDsLdxn9Ku2+mwfB5ZNZ1wRa/47ui0lrYpKLgWnPM8mMgnB49DilKTfuik3skdL4o1rQ/hTNc+Jo7W5t/FfiC0+fQZJd0cBcfPLIM8g84VskHHavBf+EmvP+edp/wCA8f8A8TUGrard69qVxqN9O1zeXDmSWVjyzE/54qp+A/IVrCk0i4U9D1jwp/wj/iD4QpoOpeJ7PQrxNXe8xcxs2VMSrjA+tUf+FZ+EuP8Ai5ek8f8ATtL/AI0UVFrN2YctthU+GnhNXBX4maSDnn/R5fXPrXReBNJ8I+BL6/v28eaZqm7Tbi1SFYJNxdlOMZOOw/Kiiny9SVueI/ewc+p5479RS0UV2Q2Oo//Z" parent="1" vertex="1">
          <mxGeometry x="410" y="697.5" width="20.5" height="20" as="geometry" />
        </mxCell>
        <mxCell id="cJatEB37gMDstE7g0faB-108" value="&lt;font color=&quot;#ffffff&quot;&gt;&lt;span style=&quot;font-size: 13px;&quot;&gt;Lorel ipsum dolor st amet&lt;/span&gt;&lt;/font&gt;" style="text;html=1;strokeColor=none;fillColor=none;align=center;verticalAlign=middle;whiteSpace=wrap;rounded=0;" parent="1" vertex="1">
          <mxGeometry x="436.25" y="707.5" width="163.27" height="30" as="geometry" />
        </mxCell>
        <mxCell id="cJatEB37gMDstE7g0faB-109" value="&lt;font color=&quot;#808080&quot; style=&quot;font-size: 10px;&quot;&gt;Lorel ipsum dolor st amet&lt;/font&gt;" style="text;html=1;strokeColor=none;fillColor=none;align=center;verticalAlign=middle;whiteSpace=wrap;rounded=0;" parent="1" vertex="1">
          <mxGeometry x="420.01" y="722.5" width="161.86" height="30" as="geometry" />
        </mxCell>
        <mxCell id="cJatEB37gMDstE7g0faB-110" value="&lt;font color=&quot;#808080&quot;&gt;&amp;gt;&lt;/font&gt;" style="text;html=1;strokeColor=none;fillColor=none;align=center;verticalAlign=middle;whiteSpace=wrap;rounded=0;" parent="1" vertex="1">
          <mxGeometry x="661.87" y="707.5" width="60" height="30" as="geometry" />
        </mxCell>
        <mxCell id="cJatEB37gMDstE7g0faB-111" value="&lt;font color=&quot;#4d9900&quot; style=&quot;font-size: 10px;&quot;&gt;Lorem-Ipsum&lt;/font&gt;" style="text;html=1;strokeColor=none;fillColor=none;align=center;verticalAlign=middle;whiteSpace=wrap;rounded=0;" parent="1" vertex="1">
          <mxGeometry x="420" y="690" width="110" height="30" as="geometry" />
        </mxCell>
        <mxCell id="cJatEB37gMDstE7g0faB-112" value="" style="endArrow=none;html=1;rounded=0;exitX=0;exitY=0.25;exitDx=0;exitDy=0;entryX=1;entryY=0.25;entryDx=0;entryDy=0;strokeColor=#757575;" parent="1" edge="1">
          <mxGeometry width="50" height="50" relative="1" as="geometry">
            <mxPoint x="400" y="821.97" as="sourcePoint" />
            <mxPoint x="721.8699999999999" y="821.97" as="targetPoint" />
          </mxGeometry>
        </mxCell>
        <mxCell id="cJatEB37gMDstE7g0faB-113" value="" style="shape=image;verticalLabelPosition=bottom;verticalAlign=top;imageAspect=0;aspect=fixed;image=data:image/jpeg,/9j/4AAQSkZJRgABAQEAYABgAAD/2wBDAAMCAgMCAgMDAwMEAwMEBQgFBQQEBQoHBwYIDAoMDAsKCwsNDhIQDQ4RDgsLEBYQERMUFRUVDA8XGBYUGBIUFRT/2wBDAQMEBAUEBQkFBQkUDQsNFBQUFBQUFBQUFBQUFBQUFBQUFBQUFBQUFBQUFBQUFBQUFBQUFBQUFBQUFBQUFBQUFBT/wAARCAAoACkDASIAAhEBAxEB/8QAHwAAAQUBAQEBAQEAAAAAAAAAAAECAwQFBgcICQoL/8QAtRAAAgEDAwIEAwUFBAQAAAF9AQIDAAQRBRIhMUEGE1FhByJxFDKBkaEII0KxwRVS0fAkM2JyggkKFhcYGRolJicoKSo0NTY3ODk6Q0RFRkdISUpTVFVWV1hZWmNkZWZnaGlqc3R1dnd4eXqDhIWGh4iJipKTlJWWl5iZmqKjpKWmp6ipqrKztLW2t7i5usLDxMXGx8jJytLT1NXW19jZ2uHi4+Tl5ufo6erx8vP09fb3+Pn6/8QAHwEAAwEBAQEBAQEBAQAAAAAAAAECAwQFBgcICQoL/8QAtREAAgECBAQDBAcFBAQAAQJ3AAECAxEEBSExBhJBUQdhcRMiMoEIFEKRobHBCSMzUvAVYnLRChYkNOEl8RcYGRomJygpKjU2Nzg5OkNERUZHSElKU1RVVldYWVpjZGVmZ2hpanN0dXZ3eHl6goOEhYaHiImKkpOUlZaXmJmaoqOkpaanqKmqsrO0tba3uLm6wsPExcbHyMnK0tPU1dbX2Nna4uPk5ebn6Onq8vP09fb3+Pn6/9oADAMBAAIRAxEAPwD448JarZeEvgrFrJ8O6TrF9JrT2pfUrVZCqiMHrjPc96rQ/FO7uI0eP4a+HZUZSQ66SSG56jC1TuAG/Z0twQCB4hkHIzx5I4r0e4/4WKvgDwN/whRuBAdOb7UsRiA37xjO/wBq4ejOTucQ3xMv9rY+GXh/ODj/AIk7f/E10Hw78ZWPjrWtT0u78G+HbER6fdTiS1slSRSowByMg81t+CT8Zv8AhLtI/tv7UdJ+0p9pDvb42Z5zt5/KvM7HxbN4X+LXiS4trBtTlu5Lu0jhRtrfvGxnH6/hUxad9vvYo9TzaM5jT3GaWvR/FHwN1fwt4bXUBcw6ldWqL/aWn2bAzWRIyAw53DBHTGK8y8yP/n7X/vmu+Eo8up0xlG2rPUZgD+zxa55H/CRuSPX9yvH1pvh34f3upaHY3UXj7SNOWaIOLObUHjeIEnhlDDB6cUs3/Ju1vjr/AMJFJjHY+SOapaL8StK0vSbWxl8DaFeyQqI2vLlGMkhz97rjNckW7NJdTCOqfqL4k8L6xoLWCWXi6HxDdXkvkRW2k30ksm7sSMjGTx6c11Uc9r8B4Y2KRaz8RLogtHKTItgh6xk/xSN0x71R+AFtLcXXim4sEtYtfTTiNMeZlBhkdiDsLdxn9Ku2+mwfB5ZNZ1wRa/47ui0lrYpKLgWnPM8mMgnB49DilKTfuik3skdL4o1rQ/hTNc+Jo7W5t/FfiC0+fQZJd0cBcfPLIM8g84VskHHavBf+EmvP+edp/wCA8f8A8TUGrard69qVxqN9O1zeXDmSWVjyzE/54qp+A/IVrCk0i4U9D1jwp/wj/iD4QpoOpeJ7PQrxNXe8xcxs2VMSrjA+tUf+FZ+EuP8Ai5ek8f8ATtL/AI0UVFrN2YctthU+GnhNXBX4maSDnn/R5fXPrXReBNJ8I+BL6/v28eaZqm7Tbi1SFYJNxdlOMZOOw/Kiiny9SVueI/ewc+p5479RS0UV2Q2Oo//Z" parent="1" vertex="1">
          <mxGeometry x="410" y="765" width="20.5" height="20" as="geometry" />
        </mxCell>
        <mxCell id="cJatEB37gMDstE7g0faB-114" value="&lt;font color=&quot;#ffffff&quot;&gt;&lt;span style=&quot;font-size: 13px;&quot;&gt;Lorel ipsum dolor st amet&lt;/span&gt;&lt;/font&gt;" style="text;html=1;strokeColor=none;fillColor=none;align=center;verticalAlign=middle;whiteSpace=wrap;rounded=0;" parent="1" vertex="1">
          <mxGeometry x="436.25" y="775" width="163.27" height="30" as="geometry" />
        </mxCell>
        <mxCell id="cJatEB37gMDstE7g0faB-115" value="&lt;font color=&quot;#808080&quot; style=&quot;font-size: 10px;&quot;&gt;Lorel ipsum dolor st amet&lt;/font&gt;" style="text;html=1;strokeColor=none;fillColor=none;align=center;verticalAlign=middle;whiteSpace=wrap;rounded=0;" parent="1" vertex="1">
          <mxGeometry x="420.01" y="790" width="161.86" height="30" as="geometry" />
        </mxCell>
        <mxCell id="cJatEB37gMDstE7g0faB-116" value="&lt;font color=&quot;#808080&quot;&gt;&amp;gt;&lt;/font&gt;" style="text;html=1;strokeColor=none;fillColor=none;align=center;verticalAlign=middle;whiteSpace=wrap;rounded=0;" parent="1" vertex="1">
          <mxGeometry x="661.87" y="775" width="60" height="30" as="geometry" />
        </mxCell>
        <mxCell id="cJatEB37gMDstE7g0faB-117" value="&lt;font color=&quot;#ff0000&quot; style=&quot;font-size: 10px;&quot;&gt;Lorem-Ipsum&lt;/font&gt;" style="text;html=1;strokeColor=none;fillColor=none;align=center;verticalAlign=middle;whiteSpace=wrap;rounded=0;" parent="1" vertex="1">
          <mxGeometry x="420" y="755" width="110" height="30" as="geometry" />
        </mxCell>
        <mxCell id="cJatEB37gMDstE7g0faB-118" value="" style="endArrow=none;html=1;rounded=0;exitX=0;exitY=0.25;exitDx=0;exitDy=0;entryX=1;entryY=0.25;entryDx=0;entryDy=0;strokeColor=#757575;" parent="1" edge="1">
          <mxGeometry width="50" height="50" relative="1" as="geometry">
            <mxPoint x="398.13" y="886.97" as="sourcePoint" />
            <mxPoint x="719.9999999999999" y="886.97" as="targetPoint" />
          </mxGeometry>
        </mxCell>
        <mxCell id="cJatEB37gMDstE7g0faB-119" value="" style="shape=image;verticalLabelPosition=bottom;verticalAlign=top;imageAspect=0;aspect=fixed;image=data:image/jpeg,/9j/4AAQSkZJRgABAQEAYABgAAD/2wBDAAMCAgMCAgMDAwMEAwMEBQgFBQQEBQoHBwYIDAoMDAsKCwsNDhIQDQ4RDgsLEBYQERMUFRUVDA8XGBYUGBIUFRT/2wBDAQMEBAUEBQkFBQkUDQsNFBQUFBQUFBQUFBQUFBQUFBQUFBQUFBQUFBQUFBQUFBQUFBQUFBQUFBQUFBQUFBQUFBT/wAARCAAoACkDASIAAhEBAxEB/8QAHwAAAQUBAQEBAQEAAAAAAAAAAAECAwQFBgcICQoL/8QAtRAAAgEDAwIEAwUFBAQAAAF9AQIDAAQRBRIhMUEGE1FhByJxFDKBkaEII0KxwRVS0fAkM2JyggkKFhcYGRolJicoKSo0NTY3ODk6Q0RFRkdISUpTVFVWV1hZWmNkZWZnaGlqc3R1dnd4eXqDhIWGh4iJipKTlJWWl5iZmqKjpKWmp6ipqrKztLW2t7i5usLDxMXGx8jJytLT1NXW19jZ2uHi4+Tl5ufo6erx8vP09fb3+Pn6/8QAHwEAAwEBAQEBAQEBAQAAAAAAAAECAwQFBgcICQoL/8QAtREAAgECBAQDBAcFBAQAAQJ3AAECAxEEBSExBhJBUQdhcRMiMoEIFEKRobHBCSMzUvAVYnLRChYkNOEl8RcYGRomJygpKjU2Nzg5OkNERUZHSElKU1RVVldYWVpjZGVmZ2hpanN0dXZ3eHl6goOEhYaHiImKkpOUlZaXmJmaoqOkpaanqKmqsrO0tba3uLm6wsPExcbHyMnK0tPU1dbX2Nna4uPk5ebn6Onq8vP09fb3+Pn6/9oADAMBAAIRAxEAPwD448JarZeEvgrFrJ8O6TrF9JrT2pfUrVZCqiMHrjPc96rQ/FO7uI0eP4a+HZUZSQ66SSG56jC1TuAG/Z0twQCB4hkHIzx5I4r0e4/4WKvgDwN/whRuBAdOb7UsRiA37xjO/wBq4ejOTucQ3xMv9rY+GXh/ODj/AIk7f/E10Hw78ZWPjrWtT0u78G+HbER6fdTiS1slSRSowByMg81t+CT8Zv8AhLtI/tv7UdJ+0p9pDvb42Z5zt5/KvM7HxbN4X+LXiS4trBtTlu5Lu0jhRtrfvGxnH6/hUxad9vvYo9TzaM5jT3GaWvR/FHwN1fwt4bXUBcw6ldWqL/aWn2bAzWRIyAw53DBHTGK8y8yP/n7X/vmu+Eo8up0xlG2rPUZgD+zxa55H/CRuSPX9yvH1pvh34f3upaHY3UXj7SNOWaIOLObUHjeIEnhlDDB6cUs3/Ju1vjr/AMJFJjHY+SOapaL8StK0vSbWxl8DaFeyQqI2vLlGMkhz97rjNckW7NJdTCOqfqL4k8L6xoLWCWXi6HxDdXkvkRW2k30ksm7sSMjGTx6c11Uc9r8B4Y2KRaz8RLogtHKTItgh6xk/xSN0x71R+AFtLcXXim4sEtYtfTTiNMeZlBhkdiDsLdxn9Ku2+mwfB5ZNZ1wRa/47ui0lrYpKLgWnPM8mMgnB49DilKTfuik3skdL4o1rQ/hTNc+Jo7W5t/FfiC0+fQZJd0cBcfPLIM8g84VskHHavBf+EmvP+edp/wCA8f8A8TUGrard69qVxqN9O1zeXDmSWVjyzE/54qp+A/IVrCk0i4U9D1jwp/wj/iD4QpoOpeJ7PQrxNXe8xcxs2VMSrjA+tUf+FZ+EuP8Ai5ek8f8ATtL/AI0UVFrN2YctthU+GnhNXBX4maSDnn/R5fXPrXReBNJ8I+BL6/v28eaZqm7Tbi1SFYJNxdlOMZOOw/Kiiny9SVueI/ewc+p5479RS0UV2Q2Oo//Z" parent="1" vertex="1">
          <mxGeometry x="408.13" y="830" width="20.5" height="20" as="geometry" />
        </mxCell>
        <mxCell id="cJatEB37gMDstE7g0faB-120" value="&lt;font color=&quot;#ffffff&quot;&gt;&lt;span style=&quot;font-size: 13px;&quot;&gt;Lorel ipsum dolor st amet&lt;/span&gt;&lt;/font&gt;" style="text;html=1;strokeColor=none;fillColor=none;align=center;verticalAlign=middle;whiteSpace=wrap;rounded=0;" parent="1" vertex="1">
          <mxGeometry x="434.38" y="840" width="163.27" height="30" as="geometry" />
        </mxCell>
        <mxCell id="cJatEB37gMDstE7g0faB-121" value="&lt;font color=&quot;#808080&quot; style=&quot;font-size: 10px;&quot;&gt;Lorel ipsum dolor st amet&lt;/font&gt;" style="text;html=1;strokeColor=none;fillColor=none;align=center;verticalAlign=middle;whiteSpace=wrap;rounded=0;" parent="1" vertex="1">
          <mxGeometry x="418.14" y="855" width="161.86" height="30" as="geometry" />
        </mxCell>
        <mxCell id="cJatEB37gMDstE7g0faB-122" value="&lt;font color=&quot;#808080&quot;&gt;&amp;gt;&lt;/font&gt;" style="text;html=1;strokeColor=none;fillColor=none;align=center;verticalAlign=middle;whiteSpace=wrap;rounded=0;" parent="1" vertex="1">
          <mxGeometry x="660" y="840" width="60" height="30" as="geometry" />
        </mxCell>
        <mxCell id="cJatEB37gMDstE7g0faB-123" value="&lt;font color=&quot;#cc00cc&quot; style=&quot;font-size: 10px;&quot;&gt;Lorem-Ipsum&lt;/font&gt;" style="text;html=1;strokeColor=none;fillColor=none;align=center;verticalAlign=middle;whiteSpace=wrap;rounded=0;" parent="1" vertex="1">
          <mxGeometry x="418.14" y="820" width="110" height="30" as="geometry" />
        </mxCell>
        <mxCell id="cJatEB37gMDstE7g0faB-125" value="&lt;span style=&quot;background-color: rgb(255, 0, 0);&quot;&gt;&lt;font color=&quot;#ffffff&quot;&gt;3&lt;/font&gt;&lt;/span&gt;" style="ellipse;whiteSpace=wrap;html=1;fillColor=#FF0000;" parent="1" vertex="1">
          <mxGeometry x="565" y="1070" width="22.71" height="20" as="geometry" />
        </mxCell>
        <mxCell id="cJatEB37gMDstE7g0faB-126" value="&lt;span style=&quot;background-color: rgb(255, 0, 0);&quot;&gt;&lt;font color=&quot;#ffffff&quot;&gt;3&lt;/font&gt;&lt;/span&gt;" style="ellipse;whiteSpace=wrap;html=1;fillColor=#FF0000;" parent="1" vertex="1">
          <mxGeometry x="205.43" y="1063.63" width="22.71" height="20" as="geometry" />
        </mxCell>
        <mxCell id="cJatEB37gMDstE7g0faB-127" value="&lt;span style=&quot;background-color: rgb(255, 0, 0);&quot;&gt;&lt;font color=&quot;#ffffff&quot;&gt;3&lt;/font&gt;&lt;/span&gt;" style="ellipse;whiteSpace=wrap;html=1;fillColor=#FF0000;" parent="1" vertex="1">
          <mxGeometry x="565" y="504.06" width="22.71" height="20" as="geometry" />
        </mxCell>
        <mxCell id="cJatEB37gMDstE7g0faB-128" value="" style="rounded=0;whiteSpace=wrap;html=1;fillColor=#FFFFFF;" parent="1" vertex="1">
          <mxGeometry x="45.93" y="1160" width="320" height="500" as="geometry" />
        </mxCell>
        <mxCell id="cJatEB37gMDstE7g0faB-129" value="" style="rounded=0;whiteSpace=wrap;html=1;fillColor=#4D9900;" parent="1" vertex="1">
          <mxGeometry x="45.93" y="1160" width="321.87" height="64.5" as="geometry" />
        </mxCell>
        <mxCell id="cJatEB37gMDstE7g0faB-130" value="" style="rounded=0;whiteSpace=wrap;html=1;fillColor=#000000;strokeColor=#000000;fontColor=#FFFFFF;" parent="1" vertex="1">
          <mxGeometry x="45.93" y="1220" width="321.87" height="460" as="geometry" />
        </mxCell>
        <mxCell id="cJatEB37gMDstE7g0faB-134" value="" style="shape=image;verticalLabelPosition=bottom;verticalAlign=top;imageAspect=0;image=data:image/jpeg,/9j/4AAQSkZJRgABAQEAYABgAAD/2wBDAAMCAgMCAgMDAwMEAwMEBQgFBQQEBQoHBwYIDAoMDAsKCwsNDhIQDQ4RDgsLEBYQERMUFRUVDA8XGBYUGBIUFRT/2wBDAQMEBAUEBQkFBQkUDQsNFBQUFBQUFBQUFBQUFBQUFBQUFBQUFBQUFBQUFBQUFBQUFBQUFBQUFBQUFBQUFBQUFBT/wAARCACAAuIDASIAAhEBAxEB/8QAHwAAAQUBAQEBAQEAAAAAAAAAAAECAwQFBgcICQoL/8QAtRAAAgEDAwIEAwUFBAQAAAF9AQIDAAQRBRIhMUEGE1FhByJxFDKBkaEII0KxwRVS0fAkM2JyggkKFhcYGRolJicoKSo0NTY3ODk6Q0RFRkdISUpTVFVWV1hZWmNkZWZnaGlqc3R1dnd4eXqDhIWGh4iJipKTlJWWl5iZmqKjpKWmp6ipqrKztLW2t7i5usLDxMXGx8jJytLT1NXW19jZ2uHi4+Tl5ufo6erx8vP09fb3+Pn6/8QAHwEAAwEBAQEBAQEBAQAAAAAAAAECAwQFBgcICQoL/8QAtREAAgECBAQDBAcFBAQAAQJ3AAECAxEEBSExBhJBUQdhcRMiMoEIFEKRobHBCSMzUvAVYnLRChYkNOEl8RcYGRomJygpKjU2Nzg5OkNERUZHSElKU1RVVldYWVpjZGVmZ2hpanN0dXZ3eHl6goOEhYaHiImKkpOUlZaXmJmaoqOkpaanqKmqsrO0tba3uLm6wsPExcbHyMnK0tPU1dbX2Nna4uPk5ebn6Onq8vP09fb3+Pn6/9oADAMBAAIRAxEAPwD8/wD7TL/z1k/76NH2mX/nrJ/30aioqyCX7TL/AM9ZP++jR9pl/wCesn/fRqKigCX7TL/z1k/76NH2mX/nrJ/30aiooAl+0y/89ZP++jR9pl/56yf99GoqQfNwOT6UATfaZf8AnrJ/30aPtMv/AD1k/wC+jUORkAHLE4Cj735daUgr1Vh9Rj9aAJftMv8Az1k/76NH2mX/AJ6yf99GomyvUHPfIIx+PSigCX7TL/z1k/76NH2mX/nrJ/30aiooAl+0y/8APWT/AL6NH2mX/nrJ/wB9GoqKAJftMv8Az1k/76NH2mX/AJ6yf99GoqKAJftMv/PWT/vo0faZf+esn/fRqKigCX7TL/z1k/76NH2mX/nrJ/30aiooAl+0y/8APWT/AL6NH2mX/nrJ/wB9GoqKAJftMv8Az1k/76NH2mX/AJ6yf99Goq9H+G/7OvxD+LWmTal4X8Nz6hp0TbGunljhj3c8AyMuTwfyoA88a5lXO6SVcHHJI59Pal+0y/8APWT/AL6NfSXiz/gn/wDE/QTpg0W1t/EX2i1SW8+zyR2/2Of/AJaQNvb5setYP/DDfxn/AOhS/wDJ2D/4ugDwr7TKWwJJTxnKkkY9c0v2mX/nrJ/30a+kvBf/AAT/APih4g1c2+vWkHhjThHI/wBvmljuk8wf6uPbG/f8q85+IX7MfxL+F2itrHiDwxPb6UjBXu7eWO4RB/ePlsSB07d6APM/tMv/AD1k/wC+jR9pl/56yf8AfRqKigCX7TL/AM9ZP++jR9pl/wCesn/fRqKigCX7TL/z1k/76NH2mX/nrJ/30aiooAl+0y/89ZP++jTo5JpGwssh/wCBGoK09OiVYQ/rW1Ompzt0MqkuSFxgtbo/8tz/AN9mj7Ldf89z/wB9mrp9qK7/AKrS7HF7eRS+y3X/AD3P/fZo+y3X/Pc/99mrtFH1Wl2H7eRS+y3X/Pc/99mj7Ldf89z/AN9mrtOjjeaRY0RnkYgKqjJP0qlg6crJLcmWJcbuXQofZbr/AJ7n/vs0fZrnr9oz/wADNdZF4C1+Z0UaZMN3c4wPrzXWr8JrC0Ci/wBfSC5wGdWVFGD3GWFexh+HsRXTcIONu+h5FbP8PSaUpKV+x5L9nuf+e5x67zS/Zbr/AJ7n/vs160vwn025UpZ+IYprjGUQGNh0yfusa5S5+H+v20sif2fJJsJG6Mgg49Kqtw5iaMOeUHJeRNHiDDVpckZKL89DkPst1wPOOWGQN56Vb0/w/q+rSbLGK4vG7eSGIP44r0P4X/C+XxfqU76iklvpto/7+PGGlf8AufT8a+jNP0y10a3S0sII7OBeQkQC8Zxkt9eK/Os2zOhl8nQhG8kfufC/BWJzuhHGV5+zpS1TW7R8g3Pw98V2cPmzaXfpH/e2Mf5Vh/ZbpWZWmZSrbDuZhhvQjt+NffepeEdc8P6Baaxe6bdW2n3TbYLiUFRIcZHBOcH1xXlXxD+Ftj4y0+aeGGGz1mNcRzRcCT2cY5+tefhc8p86o4uHJfqj6HNPD5rCyxOU4j2jjpZ63a3Pln7Ldf8APc/99mj7Ldf89z/32a0rm2ls7h4J0MUqMysrdQR61FX3EcPRlFSWzPwiVWpTk4zVmtDKkeeP70kn/fRpn2mX/nrJ/wB9GtK8j3wknGQM1kVw1qfJO3Q6adRzRL9pl/56yf8AfRo+0y/89ZP++jUVFYmxL9pl/wCesn/fRo+0y/8APWT/AL6NRUUAS/aZf+esn/fRo+0y/wDPWT/vo1FRQBL9pl/56yf99Gj7TL/z1k/76NRDmuv+Hfwh8ZfFi7e38KeHb3WfLZVlmhTEMZPQNISFB9s5PYUAcr9ol/56ydcfePX0o+0y/wDPWT/vo19Kaj/wT9+KFr4WtLy2sLW51kSyC605b6MbEH3CCSAWrwTxl4D8RfDvVf7N8TaLeaJenJWK7iK7wO6now+hPvQBjfaZf+esn/fRo+0y/wDPWT/vo1F2znjOB7n0ooAl+0y/89ZP++jR9pl/56yf99GoqKAJftMv/PWT/vo0faZf+esn/fRqKigCX7TL/wA9ZP8Avo0faZf+esn/AH0aiooAl+0y/wDPWT/vo0faZf8AnrJ/30aiooAl+0y/89ZP++jR9pl/56yf99GoqKAJftMv/PWT/vo0faZf+esn/fRqKigCX7TL/wA9ZP8Avo0faZf+esn/AH0ai2tz8pPGeBkY+vSkoAm+0y/89ZP++jR9pl/56yf99GoaKAJvtMv/AD1k/wC+jR9pl/56yf8AfRqGjPy7h93O3PYH3PagCb7TL/z1k/76NH2mX/nrJ/30aiooAl+0y/8APWT/AL6NH2mX/nrJ/wB9GoqKAJftMv8Az1k/76NH2mX/AJ6yf99GoqKAJftMv/PWT/vo0VFRQAUUUUAFFFFABRRRQAdgc4BHHufT616L8G/gB4v+OeqPbeHLEfYYP+PvVLpjFbQ+gZ8Hk+gBOOcY5qP4D/CK++NvxK0vw1au9tbTEzXt4o/1Fug/eP8AUnAHuwyRXt3x6+LE+seGdV8B/CmS30b4c+E1W2vEs5vLuNS+bDSE9WjLdf4mP3uOKAI7z4H/ALP/AMLy1p46+Kt9ruqpxNZ+HoT5aH2bEn86hXwP+yt4kkNnY+OvE/he7cgCfVLY+UM4IJzHtxg5618tRxtGpcRMojYZdAQFznbkjrnHHNbPjDxVL4w1641ea3jtHlSNDHDnYgRVUEAnHQelAHr3xa/ZB8S/DvQX8T+H7608ceDdnmHVNGYEwp3eSME/KO7DIHfFeD5BAIPBwRz1z0/P/wDXivZv2dvih4y+D82o+I9EuYpPDWnsBqml3swFvdZ6rGhB/fejjp3LV0v7VXwn0K20/RPiv4CRf+EJ8VAu9ui/LY3mDlCB0DbXGwEgFTjtkA+daKKKACiiigAooooAKKKKACiiigAooooAK+39a8LfEbxB+yJ8GbX4Zwau03lzT340O48hjkuFd8MM9T+lfEFfYXxO8feJ/Av7I/wKk8Ma5qGjXV5BNHMbKXY0wBYovA96AMjxh4d/ap8bNpJvdH8R239m2a2Uf2C4W38xR/HJskG9j3JrnP8AhUf7Tf8Az5eNP/Bm3/x2ua1L4qfHfR7F72+8SeMbOzQZe4nklRFHYkn1pYPij8ebrThfxeI/GMlmY/NEwkl2lP72fTHP0qiT0TwP4Y/an8B642q2Wj+JL64MElt5erXC3cO1uh2PJjcvY16P8FvCnxU0H4X/ABqh+JsOsrYXPhyd7ZNbuhKrSrFKfly7YOQP++RXzhpPxa+Omv2v2rTPE3jC/ttxUTW8srqSDg4x6V7d+zL8RfGXjPwL8c7PxV4g1XVXsPDE5jt9QndjA5il3nnv6UAfGI5GaKE+5RUlBRRRQAUUUUAFath/x6pWVWrYf8eqV2Yb4jmxPwliiiivWPOCiiigArsvhPCJ/GCM4B2QSuARkAjGMfnXG123wh/5G/8A7dpf/Za9bKEnj6XNqubY8rNpOOAqcr15dzZl+IGq2vjh7Ga8jj05bwxupUYVAccmtHxLpPhXxVqX2y41+JJNipthuI1GB9Sa4jXNNt7vxF4guLqbyIIbpidig5O/61lX+l21vJZ+XeD7LMu7zZFI2/XBP6Zr6OWaYiKqUsRTU4c3d33t+Z87DLMPN06tKo4T5eisu56V4f0Twn4d1SO/t/EcbyoGASW5jZfmXB6YqjcePtS/4TL7HZ3sb6Y10kahVDBlJAPP4iuGTRLOTprVr+IcVf020itNc02OKeO4VriI/ulxg71/wqZZlWajRp01BX6NoccvoxnKpVqOenVJn1PpNulvp0YVFHmfO+0Y3N6n3rofDOuJ4Z1mDUnsYNRMG94oboZi3lMKzD+Ln5sVzujzCayjVTl48I691JJHP5Vbwzfu2Hy+or+Y89Valm1Z1PjUn6Xv+R/olwusJi+HsLDDv906cV8rar1PZvH/AIn1LxV8B9AvdUumu7mTWJ8s33VG04UL2UdlrxdhHJxgAg9Qa9P1a6t5f2fdAhSeOSaPVpmdFYblXBG4r1x+FeYqUbLbeM4/GuHGXcoyW/LH7zr4epww+HrUoJxUakvLqfNXxz0mPT/iBO8Ywt3BHcMO24lgf/QT+Yrz6u8+NGtJrPjy68lxJFaxpbhh0yAc/hkmuDr9fy3nWEp+03SP494mlRqZviPYfCpOwy5/492/3axa2rn/AI92/wB2sWjFfEeRhvhCiiiuE7AooooAKKKKAPXP2aPgevxw8fPaX87af4Z0uE32s3oOAluCPkB/hzyR/ut+Pr3jL4+a547iu/DPwvuLf4cfCrRCYTqUI8pp1B6s4BfLDkKrBiPvE1mfCeR/Cn7DXxV1uzIjv9W1OHTJZlGG8keUu3PpiR/zrxHx3rVpH4R8I+H9LuY5bOGyS9uxEThrt2yd44yy9M+lAFjxN4ufQLy1ufDnxC8RarqO4ma6kklgAx93aWcsfxIr3P4P/tHWvxmtYPhh8aVj1zTNUcwaZ4hmwtzZ3LcKWbuWPAfhs/eL18lY29OfbkfzJpVZ48PG2xxtO7vxwMehHUH1oA7T4xfC/Ufg78SNY8K6k3mvYyHyrgLtFzER+7f69j7iuLr6l/bck/t/Qfg14smUDUtY8Nxi7k7uyeUwP5u1fLVABRRRQAUUUUAFFFFABRRRQAUUUUAFFFFAH1N+yv8Asc6Z8cvBl94q8Q6ze2Gmx3MlpbW2nxxtKxQAtIWdW556AGpL74V/swaXfXNlefEnxba3dtI0U0M1iFaN1OCpBtuuePbqcDmr/g/xZrHgX9g2013Qb6XTdWs/GLSRXELYwQU4I7hh1FX9f8P+H/23vB8viPw5Ba6F8Y9Ltg2oaUCqRapGBgSISMFm6qxwR91xjmgk5r/hXP7LH/RUPFH/AICL/wDI9H/Cuf2WP+ioeKf/AADH/wAjV8x6hp11pV5c2l7bPaXdtIYp4J4wjxOG2lWBHXPUdupwOa2PAvgXWviR4qsPDvh+ya+1O8k2RouAqgfedjjhV/iPbp14oKPqHwT8Af2dPiN4ktdB8OeP/F2q6rc/6uCGyUnbjJYn7PgKB1PbocHivMv2rv2bov2ePE2kR6fqkmq6Tq0Mr28lwgE8bRlQULAkMp3DBxmvTvGnjLw9+xj4Ou/A3ga5t9V+KOoQ7Nb8RKA32DIx5UZ9T/CvQH5mJ6VjfthTy3Xwb+AM80ry3EmiTs8ztuZ2K2pLH3yTQB8r0UUUAFFFFABRRRQAUUUUAFFFFABRRRQAUUUUAfVP7N9y3w7/AGYPjN4+tvk1WUR6Haz/AMUYdQCV/wC/+fqi18rpuTeQXBYYbGckZ+7n07/Wvrr9mPw8Pi5+y98SPh7a6nY6drL6pb3dvJfTCNCPk68E/wDLFugPUfhkL/wT58ZMcf8ACXeD/wDwMk/+N0Aed/CG90e1+HHi5detftOkyXVnDMVwGhEjMvmKfVSelee+OPB9z4J8QSWE7+fFIqS2l4v3LiF/uuvqD+neu08H6HcR6H8TvCsZS91KGKPy0tzvExgmw5T+968dqiuobrUPghI+t28sEulaisOk3FwjJJIkn+uhAYAlV9unagDzPrGqFm8sFW2kErkdsdvrX1P+zzP/AMLA/ZZ+Mngi7bzl0m3TXbBmOfJcZZsDtzEP++m9a5nwD+xX4n+IHg3SvEtn4m8L2FrqMPnRwXl06SoPR02nB/OvZvAXwWuv2YfhD8X9Y8Q+IdF1ObVNCaztU0u48xiWDqcrtB6sOgPegD4XHIzRQvC4ooAKKKKACiiigAooooAKKKKACiiigAr6y+K+oQ6T+zH+zVeXJ2QW9zJM425+VXy35jge9fJtfW3xSEH/AAzP+zV9rKm1+1OZ9/3Qvm4IPtigDhPEnijSbe18fXv/AAnaa5FrVrJDYaYolYxs75XBYbRtHA960tM8caH/AMJRoHiZvHiW2mWenQxT6DiXeziHayYHy1a8bnWm0j4hHXhpB8PfYpv7H8vyfMLb8xFdmDkDr/WtPR/7T/tjw+Lc6H/wr1tMhW6V/s/eHc4OTvzv7+lAHn/h7XtN1bwX4TtovG6+Fp9LuLj7Xat5qmYNLn+Djgcckc16/wDs961aeIpf2ltTsZTNZXWg3EkMhHDjy5R07V514H/t3/hAPCn/AAh/9k+X9ouRqxmWHzD+/wDl3eZyPl54r0v4C/ZFvP2mTY+ULI6DcGPyMeWV8uU4GOgoA+ME+5RQn3KKACiiigAooooAK1bD/j1SsqtWw/49Ursw3xHNifhLFFFFesecFFFFIArtvhD/AMjf/wBu0v8A7LXE123wh/5G/wD7dpf/AGWvXyb/AH6g/wC8jx82/wBxqrtEz9e1h9N8Ua6nlxzxzXTbo5F4+/WZNq9xfXdrOiRRG34RVQFYx9O9dHdRvJr/AIme2iimuBctsWQBv4/eodQtR9s0zzraBLmSPMsYOxc++M12YqjVlOdpfa/X+mclCpS5Ye79n9P6Rn3OsXl5B5MzqY/7qxKP1xRoo/4nWncjb58WCP8AfrUvIbexh8x9N09h/dSVmNUtPuobjXtNaK2S1UXEQ2oSf46I03GrBTmvuFKpzU5Wg/vPQ/EHxAufAfj2GQKbjT57VRcW2f8Abf5l969U0HxhpniqBJtNv7eRG6xs4WRfqDXz/wDGb/kaLf8A69l/9DeuDRjG2+NmRu5UkE/8CFfI8V5HRx+YVqsXytvU/VOAeOMdw/l1LDOCnStonvF+XkfabvDa/vHkSFcbd7NjGep+teW/Ef4z2OkwzWOhTpd6mw2GdR8luPUHua8Ckvbmdds1zNKv92SVm/rUPYD+H+7jgfh3r5LBcM0qNX2lV3R9/m3ibicVQdDBU+RyVnJu7t/mK7tIzOzF5C24s38X1pKKK+4SSXKlY/EpSk5OUndy3Yy5/wCPdv8AdrFrauf+Pdv92sWvNxfxHZhvhCiiiuA7AooooAKKKms7K41G7itbSCS6upW2RwQqXd27KAOpoA+n/CHH/BPfxuDxnxJFj/vu3r5Zx14AycnHv3r7Ji+HPijwb+wfqujX3h/Uzreva8k9vpsNpJLcLGGjJZkUEqP3TfmPw+Xv+FW+NSCf+EN8RYHU/wBk3H/xFAHMUfw4rpv+FXeNCcDwd4gP/cKn/wDiKP8AhV3jXdj/AIQ3xFnjA/sm47/8AoA98/a8/wCSR/s/9h/wjvX/AIBb18u19jftH/DfxT42/Z9+C2r6T4f1K9GkaV9hv7WO0k8+3k2xDLRY3bf3Z6DPI4r452kHBGDnB9qACiiigAooooAKKKKACiiigAooooAKKKKAPqNP+Udrjqf+Etb9dleR/Bex1PRdei8bRatJ4Z0zRJVml1WLh2c/8sUJyHL91xj3FfR/wP8Ah2/xk/Ytn8MWbvLcWXid7y6trUqZ/LXZwASMk9uQPevM/HX7P/xk8VzW1nZfDvUNM8PWAMdhpsbR7Y1PVm+f5pG/vHp2oJPSfEfh3wr+3VotxrvhVLfwv8WNPP8ApmnXbhI9RhB2iTvltvIYcj7pDDmppPGHgX9j3Sh4C0PUWvPHWrQtDr/iyxKsdOJTCrGDnhW5Cjv8xJPFeE2/7J/xns5o57bwTqttPH9ySGRUdfowkz+FNk/ZJ+Mc0jSP4G1RnbkszRsxb1LF8k/Wgo4Hx94V1TwnrkkWpSm9W7BuIdQ3GSO8V/8AlqD3J7g8rX0F+10Qfgn+z6RyBoMxJ+iWtU/Bf7O/xTl0n/hFPFPgHVJ/D05b7PeKYzLpsp6Oh38r6g9a3v26NHfwb4P+DPhO6mSXVNG0i4juFU/MPltwCQcHB8t+v900AfJFFFFABRRRQAUUUUAFFFFABRRRQAUUUUAFFFFACenJI+Udugzjkg56mlON2QB+Q/wopNw3AdyMigC1perXui30d5YXU1pdxk7biGQqwB4OPqOtX/EfjLXPFzRPrOp3GomEYiSVvkQd9qjoT3NY5+Xg9fSjGeByfTNAAMqRjC85O3Iz7deKQ5Pfqfm6/MN2cHJpaKACiiigAoopNwGc8ADJoAWiiigAooooAKKKKACiijvigAr7k1j4E+Kfjt+yZ8FrLwstk8+m200lyt5ciHAZyF6jOcjJ9q+G6sx6xfQxrEl7cRpGNiwrMQqrweg465oA+i/+He3xb4zBop9c6jnP5jil/wCHfHxb248jRcYxg6iD04A+76V87f21qH/QQu/+/wC3+NH9tah/0ELv/v8At/jQB9E/8O9/i2MkQaIMnd/yEcYI46gc8V6/8Ff2cvGHwH+HPxjufFMenRrqXhq6gt/sd0JCzLFL1+tfC/8AbWof9BC7/wC/7f40PrWoNG0Zv7p42G1kMzbWByGBGfQmgCmvC4opCwXGeM9O9LQAUUUUAFFFFABWrYf8eqVlVq2H/HqldmG+I5sT8JYooor1jzgooooEFdt8If8AkcOBn/RZen4f4VxNSQXM1pJvt5ZIXxt3RMVOD1rrwOI+p4mFeWtnsceMofXMNOitLrc9Q1T4Xard61f3sFzbqtxM0i7mZWwWzzhaqt8JdYbrd2rZ4O5nOB7HbXB/29qf/QRu/wDwIk/+Ko/t7U/+gjd/+BEn/wAVX0LzLLZyk3Slr5o+fWX5jDltVjp5M7v/AIVFq2OLizH0Lj/2WrGnfCvVbPULWd7m2KRTJIwVmzgNk4+WvPP7d1P/AKCN3/4ESf8AxVH9u6n/ANBG7/8AAiT/AOKpRx+WwnGcKUtO7KlgcylG3to29Dr/AIzN/wAVPbfKf+PUfozH+tcFUs91PdOrTzSTMo2hpW3nFRV4WOxSxmKnibWUj28BhXhcPDDt3cQooorhPQCiiigBlz/x7t/u1i1tXP8Ax7t/u1i15mL+I7sN8IUUUVwHYFFFFABWp4V8Tah4L8SaZr2jz/Y9V02dbq1uFGdkq9HIPB+lZdHvnjGaAPej+3N8Z2LH/hKo9xGP+PCD24OFBPfvXXfDT9s/4p+Itau9J1LxbbxXN1ZvDp80tnCqx3I+4CcYr5Xx19uvaj0wBnjk85x93jt9aAPq7S/2jv2k73Xl02bUbmzKyfv5p9OhSGNf7xfZjH0rL8efty/FCDxhqcPh/wAUxf2PFKYrcmxibdsTBOSOmelfPtx4y8QXmn/YJ9bv5rIjBt5bhmTHpjuPxrG28YzgdlHQZ60Ae9j9ub40KzOPFUYdv4hYQDH/AI7zXg7SF5Gc9WOTTaOucHOOtABRRRQAUUUUAFFFFABRRRQAUUUUAFFFFAG74U8eeJfAsssvhzxBqWgyS8Stpt08AcDPBCEe3NdN/wANF/FT/oovib/wZy/4155RQB6H/wANF/FT/oovib/wZy/40f8ADRfxU/6KL4m/8Gcv+Ned5HQHJ9BS0AeiN+0Z8VD/AM1F8TZPB26pKMj6Zri9c8Rap4o1OTUdZ1G71S+cBWnvJjK7KM4Xceg5/U1n0UAFFFFABRRRQAUUUUAFFFFABRRRQB3Hwf8Ag9rvxt8UTaB4eks476G0e8Y3sjRp5alQeQrc/MO3rXok/wCxb8QJLed9HvvDHia5hUubLRtZjmnb2VSBuJ9jW5+wCQPjBr4OMHwvfDB5x88WOa+c9J1i+8L6xBqulXMtlf2cvnQ3Fu21g6/dOR0z6GgCG/sbnS765sr23ktLy1fy54J12PE2eQ4P3ccHnHUVAflznqDg8d/T3r7L/agsPB0Pxo8H+IfEvhnUvEF34g8MxX9xomizeS89991TJtBO1geSg/h6GuM+MHwj0S4+AKfEPT/h/qXwy1ax1SPTZ9JumlZLuBwpWaMSKrA/N2H8J/EA+aP8kZBIycDIHTNdxq3wl1PR/hHoXxBe8tX0vWNQl0+K0jyZVkjBJyMY24HBBNfQPi74P+E/h38PvDWo2Pwrv/iP4cvtGiv73xhp2qTb4J3XLhEj3IiqehZTRb614U0H9ivwLe+KvD914nt18Q3otdNW9NsjPmQEzOFLFdg6ADmgD5h8E+FLvxx4u0bw7ZyJbXWqXMdoks2Qiu5wM4BOPoDTvHXhC7+H/jHW/Dd7LFPdaVdPaSTRA7CyttyCQDgnpkA+wr6WXwD4V0v4mfs9eO/CGlzaDpvi6+V5tJkuDN9mmhlVWKueoJYY/HpWzri/CDxt+1F4j8B6x4M1Ca/1nWbi2fxM2qETxXTEsDFDjCxhxgEkn2oA+M+2evIHHPYHt9aCOnfPT3/CvofwP8B/DvhWL4qeJPHsdxrGh+Brw6dHptrIYDqNy0hRN79l5XkevSm6p4L8CfF74J+LvGng7w2/grX/AAlLE9/pi3jXVnd2shIDruA2sNpyM9uM0AfPSqW+783APHJI9QO+KMfKT1AOCRyOcY56c5FfVXwV8I/Dr4lX+heHbf4OeJNQ0e+Atr/xpcXkrva3DId0o2J5KIHHfnHaqPw4+CfgbT/DXxou/HUF3qC+B9Ujt4p7OTZNKiTMGiHO0+ZtXJOMc0AfMY+ZsD03dD0xmu40v4S6nrHwh1/4gpd2yaZot/Fp81o4bz2kk246L0+YZJI717B4Q8K/DPxdpfj74sXvg6403wR4ejtray8KQX7N9qvZAFDPNjcoyw7d+lbt1rvhjxN+xL8QLzwx4Y/4RKIeI7FZ9PhvTdQeazwkPGSNyDBA2txmgD5KooooAKKKKACiiigD0f4T/s++MvjJ9qm0Kyhg0y0OLjVdQmEFpE3GVLnPPI6A1rfEr9l3xn8MfDZ8R3Mmk674fjdY59S0K+W5ht2Y4USHAK57cV6X+1FdSeCfgL8FvB+jP9l8PX2kNql4sR2rd3LeVudyCNxHmNx/t+1fL1vfPDA1uZ5o7CSRXuIo5GCyBGzuxkKCByMg0AQ7Tu29T1+Xnj147V2/hf4S6n4q+Gfivxra3lrDp3hySGO4t33eZIZCAu3CkHrzkivoX4S/DP4ffGrUP+EX074QeI9C0a4s5vsvjS8upZJRMsZ8tn+UQ7SwxgZHvXKfCO3a1/ZM+O9ryzx3tjGceolVf5igD5sLAdx37j8Ppn3o/hyATxngE8euemK+0b39m3Tvhvb6Boy/CbUPiZdXVlFPrOs/2o1sIGlGWito0ZcbexasbQ/2b/BGg/Ez4w6H4ghvdZ0Lw7oq6xYTWs2y8jQjzMDHBlCfuy2Me1AHyPuHQkA5xgnH4fWhmC9SBjruIAHtk96+j5vDHw7+LXwF8deJ/DPg6fwVrXg1raYbdSluku4JWKlH3Yw+R97FLceE/AHwN+EHgnXPFHhd/G3ijxfbzX6wSajJZ2+n2g24C+X95/mHPXg0AeT/ABI+E+pfDHR/CGo397aXcfifSV1S1Fs3KRttwGyAA3zDgE9DXD569BjPUgZ4z+H44r63/agufC73HwCmvtO1ZvCR8MJIdOs7hTeC3ynlxCTGCxypyOeDxVa9+FXhn4ifBvx1rtn8LNY+GV74bsl1PTry7uLiRNRgUtvjfzAu5gF++P7woA+UsHjg8gMMjGQemPX8KMfl619T3nhf4R/Cn4SfDDxf4i8IXXiXVvEGnStNpkF6baGaQSDfcyNyQQD8oUY+lfLUzK8rtGgjUvkLntQA2iiigArVsP8Aj1SsqtWx+W1SuzDfHY5sT8JYooor1Lo80KKKKLoDd0HwhdeILV54LqzhCtt2XEuxj9OK07j4X6paKTNd6dEcEhXuQCR6jiuQXDSDIzzkA+teheOtKOu+PNLsVO0zW0StIeQoOc8Y9jX0mDoYathp1FRvJOKXvdWeBjMRiaOJhT9raLTb93pE88z+H4Gl2noeDjOK7uK38Lz682hDS5onaT7Mt8JiX35x930rj9W09tJ1O7sXbc1vKY930ry8Rg3SjzuXMr2079j0cPjI1Zcqjyu19e3c3LP4eajeabbXv2mxt4bhSyCefaePwqnrng3U/D8C3FzGj2zHas8L70J9Pr9a2/GOP+EH8JA7seU27PP58VP8M1a+sdbsLgs9nJaeayt0Rv73PSvblg8JKt9TUXz8l+a+l+W+x48Mbio0vrrkmue1rf3rHAnjnrzzgdPejjnnp1/wrsIdP0nw74f0/UNRsm1K8vgXjj80osUY75HWqnivRbG307TdW01JILS+VswSHd5Ei9QPWvHqZfOlBz5tUk2vJ2s/xR6sMfCrNQ5dG2k/Nbo5qiiivMuj0Qooop3XcBlz/wAe7f7tYtbVz/x7v9MVi15uL+I78N8J3Pwn+DXiT406lq2n+GIoLi+06xbUHgmkKNIgIXanBBbJ6Ege9cXJaTQ3htZY2iuVkMTRSDaysDgg56EV9IfsQ6tc+HtY+KOq2DrDe2PhC7uoJGXeA6SI6/L6Zqz8XPCum/HnwTbfGrwbaJBqcLxR+MdDtxn7PPjBukUclGPJI7A8fK2OA7Dw34p/DPV/g/4yuvDGuvavqVvGkj/ZJTIh3oHUDIBJwfSuS9OnPTkc19t/Fj4T6Z8Vv2v/ABWuvXFxB4Z0Lw/Bq+pi1IWZ444FAiRscE89PQ1574H8M/DP9o618U+H/C3g2XwJ4ksNNm1LS7uPVZLpLxYtu6K4ViPm+YYYY6GgD59HhPVz4VPiX7DJ/YP2oWX27jZ5xTeExnOSvPTp1xXR3Hwj1W2+ENr8RXvtP/sq41BtPSz8/wD0sMudzGPHCDHXPccV9Ep4o8C6Z+xf4Zvr/wAANqmnTeIpI3sDq88bPdCBla68wDPzBSNmMAd65Hxh4f8Ahq3wA8L/ABJ0vwE2mpN4kNheaPJq9xNHcwpE5YbieCxUcgUAcNb/ALOOqWvguw8TeKPE/h/wZaalAbnTbTWbsi6u4wu7cIlRiAR03YzXknt0POQwwRjr1r7i/aM174fH4v8AgvQ9d+Hb61cX2k6ZDDeDW7i3+zQyHakaomMhPXPNcB/wzh4V1L9qrxv4VP2jSvAfhi2bUrqC2kLSm3jiRxGGOSSzSDOcdDzQB8u7G/utjBOdpP5Y6/hSL82Mck9AOSfw/wAivUfHvjj4ZeItDuoPD/w2n8L6gsyfYtQg1WSfzYxIMiZJAwYkHjBA969o+Dnw7+Hfxi1az8L2Pwf8TWuh3tuYk8a3d3LLJDcCMkO+1fIALjhPSgD5b0Xwrq3iKw1a902xkvLTSbf7VfSxlcQRbgu5snoWOBjNdJ4F+Eeq+PvB/jHxFZX2nWtt4XtlurmG7uRFNMrAnEa4+cjHIz3FfQf7Psnhjwv8Efjja6p4V/te60aGO21eb+0JY/7TjE7qicf6oIV3DbnJ61zugaH8Mvib8E/ilr+jeAJPC2q+GrGC4tZk1qe4V2dsFirY7J0PrQB8yAhgTkYHU54H19PxxQvzdPUe/Xoa+lvFPhv4b/s8+HvB1l4n8Hy+O/FOu6ZFqt9JLqklrFZxSfdhhCk5frlm9DWtD+zv4Ph/aM+GNhaxT6l8PvG9p/aVrZ30h82JGhZmgZhgtsLLg0AfKnG3cDlcZ3DlfzHFJ3x37DufoK+tPAHgb4SfEr4keIfhVYeC9Q02/t0vFsvFVxqhluftEGfmaLaE2cfdGayPg38H9FvvgXceLrTwKfip4oXUpbS90ePUXg/s+2X7jiGJlcmgD5iBBwM8kZAHJxnGfalre8cPpreLNSGkaLeeG9PMrBNJ1CZpZbYjAKMzKpPzHvisGgAooooAKKKKACuw+E/wt1n4zeNLbwt4fa2XU7iKWZftchRAsa7iCQpOcdOK4+voj9gfaf2mNGyAc2N5w3P/ACy9aAPn28tXsrqe3kH7yF3jYgHblSQ2CewxTIoWmlSNRyxVQe3P+e1fRnw78A+BLr4P/Evxz4u0S71a50HxDHHDHY3RgkmVyV8p35AQswyQM47GofH3gvwR4p+Bug/FDwl4ak8HXcXiD+xb3S0vGuIZWZdyyqWAKnHagDyr4wfCrU/gx43uPC2q3lrfX0FvDcySWuQgSVdy5JAII6EEZz61xf8ALjPcj8BzX23+0v4k+FujftDQ6f4s8GXfie6vbWwhvLyTUzbxWUbxhV8iKIDewQ7iWPXpmuRf9mHwv4H+KXxTm8STXuoeB/BFnFqMdlDOEuLzz13QwM4HTHegD5RyNwG5ckkAZ5/KlbC8MQpxnDccevPX8K+jrPwn8P8A47fDDxxqvhPwrL4E8TeEbNdTNvFqEt1a39mu7eGDYIf5TyDnkVueFP2f/B3xy8N+FPGHhVo/Cej6eXtvG1p58jCx8qNpJJotzHiQL07bhx6AHysVK9QR1+8COnXrSV0vxI1Xw7q3jTU7rwhoy6H4cEhhs7YOXcxocKzMSfmYcnGeO9c1QAUUUUAFFFFABRRRQAUUUUAe0/sm/Fbw58HfiNqGseJ5buLTLrSLiy3WMHnPukZCpxkcfKc8+lbulTfs2+DtQh1dbrxp41ubVhNDpN3Zw2sEjjoJWzkr+FfPPHYe2eRx9ARSbR6cei4H6kGgD6h8F/tU2fiD4i+PvEPjSe88PXniHSl03SdX0a3W4k0JUbKiNTjI5PIwenFY/jT4x+Dbr4A+IvAGl614i8Satd6zb6kmr63GALvaR5mFLOUUADaGJ6nOK+dsc5zz3IyCfxBFLnrnn/ez09DzyKAPpz4O/Fb4Y/BPVrbxPonjDxlceXbZuPCFxaReRd3Bi2/vJg+zZu7hd2K4nxl8XNC8R/s3+GfBlus6eI7HxBdalcQiEiBY5d/yq3/Ah1A714zz/eP65/nj9KQ59cnoTyAR9M0AfRdp8dPClvoP7P1o0l6Z/BF7Ncaxi34CPKjgR8/McKfTtXQ23xY+Cmm/GTU/i3Hd+KNR1wXs1/ZeG5rWNYmuTuEchnD52c5K46+tfKu78+xyePp6Uhycj+997kgEemOwoA91+G/x70mW3+ImgfEG3u5PDnjiYX91daSB59leK25JEVmwV/2c9hVrU/ih4A+G3wl17wT8P5tV8SzeJLqCTVtW1i2W0Q28TAiBIwzZzg5Y4PzHivAPzz3IOM/hQPc4P97k/oTQB9i61+0n8Obz4m+GvG0fijxgmnaYLeOHwPZ2yxWlgUQIRv8AMKlAMttCkuepWuAuPjn4Wm8K/HzTxLefaPGuqx3ekf6PgFVuGkzJz8rbTjvz37188nPHzMe+NxCg+w7UnP49ScnJPv60Ae2fAn4qeFND8D+Nfh947F/D4Z8TLBMuo6ZF5k1ncxMSG25G4cj/AL5FbWufFD4a6J+z54q+HHhSfXL+7vtSt7yHVNUt1T7YyuhchFJ8rARduc++K+ecHOc89y2ST+IIpc7s5+nJJyPf1oAKKKKACiiigAooooA+hfAfxw8D+LvhVpvw6+Ldjqjado7+ZoviHRubmxz96Mqeqct69vSqd9rfwF8Cw2T+HtP8QeO9UF/bXDXmsAWlvBDHKjsgiyfM3KGU7sdRXg3fP57skn8QRSf3s5O7vk/yJNAH2nZ/tNfDvS/jtB4+m8ZeNNesppWEOgtaCG00mJo2QgoXKyYBwFVVGOc54rxXwf8AFjQND+CPxY8K3L3iaz4nvLe403ZDlGVJd5DNn5TjpXi3oAOB0yAcfTjilzgYHGfvdcH6jPNAH0h4q+JHwq+O9poeteOdW8QeEvFen2MNhqLaTZJd2+oLGuFlUFxtc9+Kx/hz8UvAfw8uPi5aWCazBo3iPQG03Rlv0Wa4dyP+WpQqqjPseO1eDHPbn3JII/Klz6fLnltueT7880Aeu/Cn4oaF4O+CfxX8Lak9yNY8T29pFpyxwlkYxOzNub+EYPH9K6yT4n/DL4q/CXwboHj++1/QNf8ACUTW1rcaRbJdJf2/G1cFl2NwMk1868qMA9fvYyAfqM80vP8AeOCeVYk8e5BGaAPrcftO/DpfiR8I9aj0fUP7G8K6FPpMtvcRrNNYyEAQzISdsjKAOTjnsay4/jt4I8PeFviZpX/CY+L/ABzqnirR5LaLVtXiKwpMc7YlTzCQTuOXBHQfKa+W29h9OvH054pWZmzlieNvLE5Hpjt9aAPX/i58UtC8bfCL4TeHNNe5bUvDFjNb6kkkBVVLspAU9WHHpXkFJzjA6A8ZySB7HPFLQAUUUUAFXtPnUAxscelUaT3zzVwqOL5jOceaNjdzTtprE86T++aX7RL/AM9H/wC+q9D60uxyfVja2mjaaxftEv8Az0f/AL6o+0S/89H/AO+qPrS7B9WNpVKsD6V2HiLxlDceLtP1bT90n2WNE2yLjcRuz0z615r9ol/56P8A99UoupRxvY/jiuyjmkqMJRh3T+446mWxrTjKfZr7z1OPXPDEOtnXFa9NyH89dPMYx5uO75zjPtXHaleyapqFxdy/6yZ2dvxrnftU3/PR8em7+tJ9ol/56P8A99VeKzmeKjyTjpe+nczw+Uww0ueDu7W17Hqc2t+HdY8NaRY6jd31vPYoynyYMhs/U1WuvFGlaRpNzp2gQTn7UMT3lz9/b/dGCeK81FzMP+Whz68n+tJ9olPWRiPTNdMs/qS1UVzW5ea2trW+8545HTjvL3b35el73PRrfW9J1jQLLS9YkuLKax3LDc26BwUP8JXNVPFPiC01C103TNPjlGn2KnaZOGdm+8xxmuF+0SrwJWx7cUfaZegkYD61jPO6sqbhbVpK/krf5G0MmpRqKd9E20vN/wDDs2tpo2msX7RL/wA9H/76o+0S/wDPR/8AvqvN+tLsel9WNraaSsb7RL/z0f8A76pftD/89H/Oj60uwfVi9fTr5ZQHJNZlGTuznNFefVm5yudkIKMbHrn7PXxQ0H4Yr8QRrhuV/tzw1c6VZ+TCXzPJt256YHHPf2rG+A/xl1L4H+OrfWrVPtmnSoLXUtNk5S7tSMMh9wOh9fTJz54O/wDTIyfXrwaKgs+p9d/aq8PL+0trnjGwsL3V/BOvaSujajaSReVO0JRVcpzwQVO3n+I9Kx/DXxK+FnwHsfEeq/D/AFLxD4m8V6vYSaXYnWLNLSLToZMb3YhiZH4HUfjXzeeW3fxe5JP55p244xnK+hJOfxJNAHv/AIJ+I/w61z9nmL4d+NtQ1vRLrT9Zl1a0uNKs1uTdKyFQhy67Tlm647Vz+sfFHQLr9l3Rvh/BJdHxDZ+I5dUaN4P3YgZHUfNnrlh2x7149j64J5DEnI9yMZoXKrtz8vdecEenXpQB7t8aPjF4b+IHxi8F+J9Je8bS9Js9Ot7hpoNr7rdsuQueh7Zx74roW/aZ0PS/2pPF/jm1sbrVvBXiOCTTby1ZPLne1kiVGI5++CvHOPevmj+IsRub/azk/U5ob5jk46ccEkH65oA9h1y3+CXhcJfeHNR8SeLL77dbzx2epWcVrBDAkitJFMckyZQbBgDjnivcj+018O7b43ab8QG8XeNNT01HC2/hVbQQ2elxmMRkFfM2uAMsFVRz/FXxaO2SQfXJOPzPNJtVsZHI6E4OPpxxQB9A/CX4veDNPHxd8P8Aiy41HT9C8asxh1TT7cTSW/795BmPcOzDoTzmqHgz4leCPA/w9+NHhewutUuofEttb22jTXVoqvMI2YnzQGOzrxjNeHZ5B/Pdkn8wRQ2W789zzz9eeaAPojWviZ8MPjZ4Z8KP8QNS8QeGPE/h6wXS57vSLNLuHUYE+42CwKP9Bjk81pQftNeHLj9ov4eeIhY3ukeAvB1sumafCYvOuhCInTeRnG8llzz/AA9a+Zeemcj6kY/I0D5TkfKTySpIP55oA91+B/xi8N/D/wDaWvfHWrveLoE0uoOjQw7pMT7tmVz2zzz9M1l/CrVvh9osFnqt3478XeC/E9tdPLK+kWqzQXMe/KrGFkBU467s146vy9Bt/wB3IP55pSzc4bJ9eRn8jxQB6F+0B8TbX4xfFjXPFVlYvp1leeWkMEuPM2pGqb5MEgs2Nx56157RRQAUUUUAFFFFABXrf7KnxN0H4QfGbTvFHiRrldKt7a4hdrWEyuWkTauF9M9a8kpOd27+L/ayT+YIoA9r0T4seHrH4BfErwhK14Na8Ra3De2KiH92Y0dWO5s/KcD0qKz+K2g2/wCy+vgFmuj4jXxUmshRCfK+zhNpO7PXPbFeNZ6g8g8EHOGHuM80ueMfjnnGfXGf0oA+r/iL8TvgV8VPi3F441XVfFlsbNbZTp0Onoyal5IXbhy+Ys4weOlYFh+1VYeIviV8SLvxjpl03g7x3bfYLq1s3U3FlGnEDoTgFlHvXzb65/kP145p2fwGOQoxk0AfQP8Awsz4c/Cb4a+MfD/w81DWvEmu+LIY7G61XWLNbSO0tBncqKHOWbJyTWvpP7UOkfCGPwL4f+H0E134T01mufEUl9bCGTWp5QUm3Kc4QITtz3AyBXzNzuzuIHccnP5mkOS24nLe2QfzJNAHXfFZvCMnjzVbjwLNdy+GbhjcWkd7B5T24YfNDjJGAeAc9PSuSoz/AI5XI5+hJooAKKKKACiiigAooooAKKKKACiiigAooooAKKKKACiiigAooooAKKKKACiiigAooooAKKKKACiiigAooooAKKKKACiiigAooooAKKKKACiiigAooooAKKKKACiiigAooooAKKKKACiiigAooooAKKKKACiiigAooooAKKKKACiiigAooooAKKKKACiiigAooooAKKKKACiiigAooooAKKKKACiiigAooooAKKKKACiiigAooooAKKKKACiiigAooooAKKKKACiiigAooooAKKKKACiiigAooooAKKKKACiiigAooooAKKKKACiiigAooooAKKKKACiiigAooooAKKKKACiiigAopPQjnPTbyfyFLg+h/KkMKKMH0P5UYPofyoAKKMH0P5UYPofyoAKKMH0P5UYPofyoAKKMH0P5UYPofyoAKKMH0P5UYPofyoAKKMH0P5UYPofyoAKKMH0P5UYPofyoAKKMH0P5UYPofyoAKKMH0P5UYPofyoAKKMH0P5UYPofyoAKKMH0P5UYPofyoAKKMH0P5UYPofyoAKKMH0P5UYPofyoAKKMH0P5UYPofyoAKKMH0P5ULlsEBsHvg0AFFHYkc464NFMQUUUUAFFFFABRRRQAUUUUAFFFFABRRRQAUUUUAFFFFABRRRQAUUUUAFFFFABRRRQAUUUUAFFFFABRRRQB//2Q==;" parent="1" vertex="1">
          <mxGeometry x="45.93" y="1630" width="321.87" height="50" as="geometry" />
        </mxCell>
        <mxCell id="cJatEB37gMDstE7g0faB-153" value="&lt;span style=&quot;background-color: rgb(255, 0, 0);&quot;&gt;&lt;font color=&quot;#ffffff&quot;&gt;3&lt;/font&gt;&lt;/span&gt;" style="ellipse;whiteSpace=wrap;html=1;fillColor=#FF0000;" parent="1" vertex="1">
          <mxGeometry x="210.93" y="1630" width="22.71" height="20" as="geometry" />
        </mxCell>
        <mxCell id="cJatEB37gMDstE7g0faB-154" value="&lt;font style=&quot;font-size: 13px;&quot; color=&quot;#ffffff&quot;&gt;&amp;lt; &lt;u&gt;Back&lt;/u&gt;&lt;/font&gt;" style="text;html=1;strokeColor=none;fillColor=none;align=center;verticalAlign=middle;whiteSpace=wrap;rounded=0;" parent="1" vertex="1">
          <mxGeometry x="45.63" y="1177.25" width="54.37" height="32.75" as="geometry" />
        </mxCell>
        <mxCell id="cJatEB37gMDstE7g0faB-155" value="&lt;b&gt;&lt;font style=&quot;font-size: 12px;&quot; color=&quot;#ffffff&quot;&gt;Assignment Details&lt;/font&gt;&lt;/b&gt;" style="text;html=1;strokeColor=none;fillColor=none;align=center;verticalAlign=middle;whiteSpace=wrap;rounded=0;" parent="1" vertex="1">
          <mxGeometry x="143.66" y="1170" width="146.26" height="32.75" as="geometry" />
        </mxCell>
        <mxCell id="cJatEB37gMDstE7g0faB-156" value="&lt;font color=&quot;#ffffff&quot; style=&quot;font-size: 9px;&quot;&gt;Lorem-Ipsum dolor&lt;/font&gt;" style="text;html=1;strokeColor=none;fillColor=none;align=center;verticalAlign=middle;whiteSpace=wrap;rounded=0;" parent="1" vertex="1">
          <mxGeometry x="164.38" y="1190" width="108.06" height="30" as="geometry" />
        </mxCell>
        <mxCell id="cJatEB37gMDstE7g0faB-159" value="&lt;font style=&quot;font-size: 14px;&quot; color=&quot;#ffffff&quot;&gt;&lt;b&gt;Lorem-Ipsum&lt;/b&gt;&lt;/font&gt;" style="text;html=1;strokeColor=none;fillColor=none;align=center;verticalAlign=middle;whiteSpace=wrap;rounded=0;" parent="1" vertex="1">
          <mxGeometry x="56.56999999999999" y="1220" width="100" height="30" as="geometry" />
        </mxCell>
        <mxCell id="cJatEB37gMDstE7g0faB-160" value="&lt;b style=&quot;border-color: var(--border-color); font-size: 10px;&quot;&gt;&lt;font style=&quot;border-color: var(--border-color);&quot; color=&quot;#b3b3b3&quot;&gt;100 pts&lt;/font&gt;&lt;/b&gt;" style="text;html=1;strokeColor=none;fillColor=none;align=center;verticalAlign=middle;whiteSpace=wrap;rounded=0;" parent="1" vertex="1">
          <mxGeometry x="59.07" y="1240" width="40.93" height="30" as="geometry" />
        </mxCell>
        <mxCell id="cJatEB37gMDstE7g0faB-161" value="" style="endArrow=none;html=1;rounded=0;exitX=0;exitY=0.25;exitDx=0;exitDy=0;entryX=1;entryY=0.25;entryDx=0;entryDy=0;strokeColor=#757575;" parent="1" edge="1">
          <mxGeometry width="50" height="50" relative="1" as="geometry">
            <mxPoint x="45.92999999999999" y="1269.26" as="sourcePoint" />
            <mxPoint x="367.7999999999999" y="1269.26" as="targetPoint" />
          </mxGeometry>
        </mxCell>
        <mxCell id="cJatEB37gMDstE7g0faB-162" value="&lt;font color=&quot;#b3b3b3&quot;&gt;&lt;span style=&quot;font-size: 10px;&quot;&gt;&lt;b&gt;Not Submitted&lt;/b&gt;&lt;/span&gt;&lt;/font&gt;" style="text;html=1;strokeColor=none;fillColor=none;align=center;verticalAlign=middle;whiteSpace=wrap;rounded=0;" parent="1" vertex="1">
          <mxGeometry x="100" y="1240" width="100.93" height="30" as="geometry" />
        </mxCell>
        <mxCell id="cJatEB37gMDstE7g0faB-167" value="&lt;font color=&quot;#b3b3b3&quot; size=&quot;1&quot;&gt;&lt;b style=&quot;font-size: 12px;&quot;&gt;Due&lt;/b&gt;&lt;/font&gt;" style="text;html=1;strokeColor=none;fillColor=none;align=left;verticalAlign=middle;whiteSpace=wrap;rounded=0;" parent="1" vertex="1">
          <mxGeometry x="62.5" y="1270" width="37.5" height="30" as="geometry" />
        </mxCell>
        <mxCell id="cJatEB37gMDstE7g0faB-169" value="" style="endArrow=none;html=1;rounded=0;exitX=0;exitY=0.25;exitDx=0;exitDy=0;entryX=1;entryY=0.25;entryDx=0;entryDy=0;strokeColor=#757575;" parent="1" edge="1">
          <mxGeometry width="50" height="50" relative="1" as="geometry">
            <mxPoint x="45.92999999999999" y="1319.26" as="sourcePoint" />
            <mxPoint x="367.7999999999999" y="1319.26" as="targetPoint" />
            <Array as="points">
              <mxPoint x="210" y="1319" />
            </Array>
          </mxGeometry>
        </mxCell>
        <mxCell id="cJatEB37gMDstE7g0faB-170" value="&lt;span style=&quot;font-size: 10px;&quot;&gt;&lt;b style=&quot;&quot;&gt;&lt;font color=&quot;#ffffff&quot;&gt;Lorel Ipsum dolor&lt;/font&gt;&lt;/b&gt;&lt;/span&gt;" style="text;html=1;strokeColor=none;fillColor=none;align=left;verticalAlign=middle;whiteSpace=wrap;rounded=0;" parent="1" vertex="1">
          <mxGeometry x="62.5" y="1285" width="161.87" height="30" as="geometry" />
        </mxCell>
        <mxCell id="cJatEB37gMDstE7g0faB-172" value="" style="endArrow=none;html=1;rounded=0;exitX=0;exitY=0.25;exitDx=0;exitDy=0;entryX=1;entryY=0.25;entryDx=0;entryDy=0;strokeColor=#757575;" parent="1" edge="1">
          <mxGeometry width="50" height="50" relative="1" as="geometry">
            <mxPoint x="45.92999999999999" y="1364.26" as="sourcePoint" />
            <mxPoint x="367.7999999999999" y="1364.26" as="targetPoint" />
          </mxGeometry>
        </mxCell>
        <mxCell id="cJatEB37gMDstE7g0faB-173" value="&lt;span style=&quot;font-size: 10px;&quot;&gt;&lt;b style=&quot;&quot;&gt;&lt;font color=&quot;#ffffff&quot;&gt;Lorel Ipsum dolor&lt;/font&gt;&lt;/b&gt;&lt;/span&gt;" style="text;html=1;strokeColor=none;fillColor=none;align=left;verticalAlign=middle;whiteSpace=wrap;rounded=0;" parent="1" vertex="1">
          <mxGeometry x="62.5" y="1330" width="161.87" height="30" as="geometry" />
        </mxCell>
        <mxCell id="cJatEB37gMDstE7g0faB-176" value="&lt;font color=&quot;#b3b3b3&quot;&gt;&lt;b&gt;Submission Types&lt;/b&gt;&lt;/font&gt;" style="text;html=1;strokeColor=none;fillColor=none;align=left;verticalAlign=middle;whiteSpace=wrap;rounded=0;" parent="1" vertex="1">
          <mxGeometry x="64.38" y="1315" width="115.62" height="30" as="geometry" />
        </mxCell>
        <mxCell id="cJatEB37gMDstE7g0faB-177" value="" style="endArrow=none;html=1;rounded=0;exitX=0;exitY=0.25;exitDx=0;exitDy=0;entryX=1;entryY=0.25;entryDx=0;entryDy=0;strokeColor=#757575;" parent="1" edge="1">
          <mxGeometry width="50" height="50" relative="1" as="geometry">
            <mxPoint x="45.92999999999999" y="1414.26" as="sourcePoint" />
            <mxPoint x="367.7999999999999" y="1414.26" as="targetPoint" />
          </mxGeometry>
        </mxCell>
        <mxCell id="cJatEB37gMDstE7g0faB-178" value="&lt;span style=&quot;font-size: 10px;&quot;&gt;&lt;b style=&quot;&quot;&gt;&lt;font color=&quot;#ffffff&quot;&gt;Lorel Ipsum dolor&lt;/font&gt;&lt;/b&gt;&lt;/span&gt;" style="text;html=1;strokeColor=none;fillColor=none;align=left;verticalAlign=middle;whiteSpace=wrap;rounded=0;" parent="1" vertex="1">
          <mxGeometry x="64.38" y="1380" width="161.87" height="30" as="geometry" />
        </mxCell>
        <mxCell id="cJatEB37gMDstE7g0faB-179" value="&lt;font color=&quot;#b3b3b3&quot;&gt;&lt;b&gt;File Types&lt;/b&gt;&lt;/font&gt;" style="text;html=1;strokeColor=none;fillColor=none;align=left;verticalAlign=middle;whiteSpace=wrap;rounded=0;" parent="1" vertex="1">
          <mxGeometry x="62.49999999999999" y="1360" width="115.62" height="30" as="geometry" />
        </mxCell>
        <mxCell id="cJatEB37gMDstE7g0faB-185" value="" style="endArrow=none;html=1;rounded=0;exitX=0;exitY=0.25;exitDx=0;exitDy=0;entryX=1;entryY=0.25;entryDx=0;entryDy=0;strokeColor=#757575;" parent="1" edge="1">
          <mxGeometry width="50" height="50" relative="1" as="geometry">
            <mxPoint x="45.92999999999999" y="1449.57" as="sourcePoint" />
            <mxPoint x="367.7999999999999" y="1449.57" as="targetPoint" />
          </mxGeometry>
        </mxCell>
        <mxCell id="cJatEB37gMDstE7g0faB-187" value="&lt;font color=&quot;#66b2ff&quot;&gt;&lt;u&gt;Submission &amp;amp; Rubric&lt;/u&gt;&amp;nbsp; &amp;nbsp; &amp;nbsp; &amp;nbsp; &amp;nbsp; &amp;nbsp; &amp;nbsp; &amp;nbsp; &amp;nbsp; &amp;nbsp; &amp;nbsp; &amp;nbsp; &amp;nbsp; &amp;nbsp; &amp;nbsp; &amp;nbsp; &amp;nbsp; &amp;nbsp; &amp;nbsp; &amp;nbsp; &amp;nbsp; &amp;nbsp; &amp;nbsp; &amp;nbsp; &amp;nbsp; &amp;nbsp; &amp;nbsp; &lt;b&gt;&amp;gt;&lt;/b&gt;&lt;/font&gt;" style="text;html=1;strokeColor=none;fillColor=none;align=left;verticalAlign=middle;whiteSpace=wrap;rounded=0;" parent="1" vertex="1">
          <mxGeometry x="59.07" y="1420" width="303.44" height="30" as="geometry" />
        </mxCell>
        <mxCell id="cJatEB37gMDstE7g0faB-195" value="&lt;font size=&quot;1&quot; color=&quot;#b3b3b3&quot;&gt;&lt;b style=&quot;&quot;&gt;Description&lt;/b&gt;&lt;/font&gt;" style="text;html=1;strokeColor=none;fillColor=none;align=left;verticalAlign=middle;whiteSpace=wrap;rounded=0;" parent="1" vertex="1">
          <mxGeometry x="58.14" y="1450" width="81.86" height="20" as="geometry" />
        </mxCell>
        <mxCell id="cJatEB37gMDstE7g0faB-197" value="&lt;h1&gt;&lt;font color=&quot;#ffffff&quot;&gt;Lorem Ipsum&lt;/font&gt;&lt;/h1&gt;&lt;p&gt;&lt;font color=&quot;#ffffff&quot;&gt;Lorem ipsum dolor sit amet, consectetur adipisicing elit, sed do eiusmod tempor incididunt ut labore et dolore magna aliqua.&lt;/font&gt;&lt;/p&gt;&lt;font color=&quot;#ffffff&quot;&gt;Lorem ipsum dolor sit amet, consectetur adipisicing elit, sed do eiusmod tempor incididunt ut labore et dolore magna aliqua.&lt;/font&gt;" style="text;html=1;strokeColor=none;fillColor=none;spacing=5;spacingTop=-20;whiteSpace=wrap;overflow=hidden;rounded=0;" parent="1" vertex="1">
          <mxGeometry x="56.57" y="1500" width="287.5" height="120" as="geometry" />
        </mxCell>
        <mxCell id="cJatEB37gMDstE7g0faB-201" value="" style="edgeStyle=orthogonalEdgeStyle;rounded=0;orthogonalLoop=1;jettySize=auto;html=1;" parent="1" source="cJatEB37gMDstE7g0faB-197" target="cJatEB37gMDstE7g0faB-200" edge="1">
          <mxGeometry relative="1" as="geometry">
            <mxPoint x="200" y="1500" as="sourcePoint" />
            <mxPoint x="211" y="1450" as="targetPoint" />
          </mxGeometry>
        </mxCell>
        <mxCell id="cJatEB37gMDstE7g0faB-200" value="" style="shape=image;verticalLabelPosition=bottom;verticalAlign=top;imageAspect=0;image=data:image/jpeg,/9j/4AAQSkZJRgABAQEAYABgAAD/2wBDAAMCAgMCAgMDAwMEAwMEBQgFBQQEBQoHBwYIDAoMDAsKCwsNDhIQDQ4RDgsLEBYQERMUFRUVDA8XGBYUGBIUFRT/2wBDAQMEBAUEBQkFBQkUDQsNFBQUFBQUFBQUFBQUFBQUFBQUFBQUFBQUFBQUFBQUFBQUFBQUFBQUFBQUFBQUFBQUFBT/wAARCABXAqkDASIAAhEBAxEB/8QAHwAAAQUBAQEBAQEAAAAAAAAAAAECAwQFBgcICQoL/8QAtRAAAgEDAwIEAwUFBAQAAAF9AQIDAAQRBRIhMUEGE1FhByJxFDKBkaEII0KxwRVS0fAkM2JyggkKFhcYGRolJicoKSo0NTY3ODk6Q0RFRkdISUpTVFVWV1hZWmNkZWZnaGlqc3R1dnd4eXqDhIWGh4iJipKTlJWWl5iZmqKjpKWmp6ipqrKztLW2t7i5usLDxMXGx8jJytLT1NXW19jZ2uHi4+Tl5ufo6erx8vP09fb3+Pn6/8QAHwEAAwEBAQEBAQEBAQAAAAAAAAECAwQFBgcICQoL/8QAtREAAgECBAQDBAcFBAQAAQJ3AAECAxEEBSExBhJBUQdhcRMiMoEIFEKRobHBCSMzUvAVYnLRChYkNOEl8RcYGRomJygpKjU2Nzg5OkNERUZHSElKU1RVVldYWVpjZGVmZ2hpanN0dXZ3eHl6goOEhYaHiImKkpOUlZaXmJmaoqOkpaanqKmqsrO0tba3uLm6wsPExcbHyMnK0tPU1dbX2Nna4uPk5ebn6Onq8vP09fb3+Pn6/9oADAMBAAIRAxEAPwD82qPWirWl6Vea7qVrp+nWk99f3Uiw29vbIzySOxwFUKCST0/GgCpuB6Hvj8aGZV+8cV9RD9nz4cfACztr747+ILq/8TTR+ZD8OvC0itdRrwdt7cglYD0yi88jNVJP21F8HHyPhb8JvBHw/to/9XeXGnrq2ot6Fp5xjPsBQB8+WPhnWdVC/YtG1G8Dcj7PayPn8hW5b/Bv4gXKhoPAniaUHoU0e4IP/jlenal+3t8f9UY5+JWoWKE58vTre3tF/KNB+WcViT/tjfHKbO/4s+LCT3j1J0/ligDnIv2ffincDMfw08YSD1XQbo/+06l/4Zx+LPX/AIVf4z/8J+7/APjdaD/tXfGmRiT8WPGef9nXLhf5MKZ/w1P8Z+p+Lfjf6f8ACQXf/wAcoApf8M4/Fn/ol/jP/wAJ+7/+N0f8M4/Fn/ol/jP/AMJ+7/8AjdXf+GqPjN/0Vrxv/wCFBd//AByj/hqj4zf9Fa8b/wDhQXf/AMcoApf8M4/Fn/ol/jP/AMJ+7/8AjdH/AAzj8Wf+iX+M/wDwn7v/AON1d/4ao+M3/RWvG/8A4UF3/wDHKP8Ahqj4zf8ARWvG/wD4UF3/APHKAKX/AAzj8Wf+iX+M/wDwn7v/AON0f8M4/Fn/AKJf4z/8J+7/APjdXf8Ahqj4zf8ARWvG/wD4UF3/APHKP+GqPjN/0Vrxv/4UF3/8coApf8M4/Fn/AKJf4z/8J+7/APjdH/DOPxZ/6Jf4z/8ACfu//jdXf+GqPjN/0Vrxv/4UF3/8co/4ao+M3/RWvG//AIUF3/8AHKAKX/DOPxZ/6Jf4z/8ACfu//jdH/DOPxZ/6Jf4z/wDCfu//AI3V3/hqj4zf9Fa8b/8AhQXf/wAco/4ao+M3/RWvG/8A4UF3/wDHKAKX/DOPxZ/6Jf4z/wDCfu//AI3R/wAM4/Fn/ol/jP8A8J+7/wDjdXf+GqPjN/0Vrxv/AOFBd/8Axyj/AIao+M3/AEVrxv8A+FBd/wDxygCl/wAM4/Fn/ol/jP8A8J+7/wDjdH/DOPxZ/wCiX+M//Cfu/wD43V3/AIao+M3/AEVrxv8A+FBd/wDxyj/hqj4zf9Fa8b/+FBd//HKAKX/DOPxZ/wCiX+M//Cfu/wD43R/wzj8Wf+iX+M//AAn7v/43V3/hqj4zf9Fa8b/+FBd//HKP+GqPjN/0Vrxv/wCFBd//ABygCl/wzj8Wf+iX+M//AAn7v/43R/wzj8Wf+iX+M/8Awn7v/wCN1d/4ao+M3/RWvG//AIUF3/8AHKP+GqPjN/0Vrxv/AOFBd/8AxygCl/wzj8Wf+iX+M/8Awn7v/wCN0f8ADOPxZ/6Jf4z/APCfu/8A43V3/hqj4zf9Fa8b/wDhQXf/AMco/wCGqPjN/wBFa8b/APhQXf8A8coApf8ADOPxZ/6Jf4z/APCfu/8A43R/wzj8Wf8Aol/jP/wn7v8A+N1d/wCGqPjN/wBFa8b/APhQXf8A8co/4ao+M3/RWvG//hQXf/xygCl/wzj8Wf8Aol/jP/wn7v8A+N0f8M4/Fn/ol/jP/wAJ+7/+N1d/4ao+M3/RWvG//hQXf/xyj/hqj4zf9Fa8b/8AhQXf/wAcoApf8M4/Fn/ol/jP/wAJ+7/+N0f8M4/Fn/ol/jP/AMJ+7/8AjdXf+GqPjN/0Vrxv/wCFBd//AByj/hqj4zf9Fa8b/wDhQXf/AMcoApf8M4/Fn/ol/jP/AMJ+7/8AjdH/AAzj8Wf+iX+M/wDwn7v/AON1d/4ao+M3/RWvG/8A4UF3/wDHKP8Ahqj4zf8ARWvG/wD4UF3/APHKAKX/AAzj8Wf+iX+M/wDwn7v/AON0f8M4/Fn/AKJf4z/8J+7/APjdXf8Ahqj4zf8ARWvG/wD4UF3/APHKP+GqPjN/0Vrxv/4UF3/8coApf8M4/Fn/AKJf4z/8J+7/APjdH/DOPxZ/6Jf4z/8ACfu//jdXf+GqPjN/0Vrxv/4UF3/8co/4ao+M3/RWvG//AIUF3/8AHKAKX/DOPxZ/6Jf4z/8ACfu//jdH/DOPxZ/6Jf4z/wDCfu//AI3V3/hqj4zf9Fa8b/8AhQXf/wAco/4ao+M3/RWvG/8A4UF3/wDHKAKX/DOPxZ/6Jf4z/wDCfu//AI3R/wAM4/Fn/ol/jP8A8J+7/wDjdXf+GqPjN/0Vrxv/AOFBd/8Axyj/AIao+M3/AEVrxv8A+FBd/wDxygCl/wAM4/Fn/ol/jP8A8J+7/wDjdH/DOPxZ/wCiX+M//Cfu/wD43V3/AIao+M3/AEVrxv8A+FBd/wDxyj/hqj4zf9Fa8b/+FBd//HKAKX/DOPxZ/wCiX+M//Cfu/wD43R/wzj8Wf+iX+M//AAn7v/43V3/hqj4zf9Fa8b/+FBd//HKP+GqPjN/0Vrxv/wCFBd//ABygCl/wzj8Wf+iX+M//AAn7v/43R/wzj8Wf+iX+M/8Awn7v/wCN1d/4ao+M3/RWvG//AIUF3/8AHKP+GqPjN/0Vrxv/AOFBd/8AxygCl/wzj8Wf+iX+M/8Awn7v/wCN0f8ADOPxZ/6Jf4z/APCfu/8A43V3/hqj4zf9Fa8b/wDhQXf/AMco/wCGqPjN/wBFa8b/APhQXf8A8coApf8ADOPxZ/6Jf4z/APCfu/8A43R/wzj8Wf8Aol/jP/wn7v8A+N1d/wCGqPjN/wBFa8b/APhQXf8A8co/4ao+M3/RWvG//hQXf/xygCl/wzj8Wf8Aol/jP/wn7v8A+N0f8M4/Fn/ol/jP/wAJ+7/+N1d/4ao+M3/RWvG//hQXf/xyj/hqj4zf9Fa8b/8AhQXf/wAcoApf8M4/Fn/ol/jP/wAJ+7/+N0f8M4/Fn/ol/jP/AMJ+7/8AjdXf+GqPjN/0Vrxv/wCFBd//AByj/hqj4zf9Fa8b/wDhQXf/AMcoApf8M4/Fn/ol/jP/AMJ+7/8AjdH/AAzj8Wf+iX+M/wDwn7v/AON1d/4ao+M3/RWvG/8A4UF3/wDHKP8Ahqj4zf8ARWvG/wD4UF3/APHKAKX/AAzj8Wf+iX+M/wDwn7v/AON0f8M4/Fn/AKJf4z/8J+7/APjdXf8Ahqj4zf8ARWvG/wD4UF3/APHKP+GqPjN/0Vrxv/4UF3/8coApf8M4/Fn/AKJf4z/8J+7/APjdH/DOPxZ/6Jf4z/8ACfu//jdXf+GqPjN/0Vrxv/4UF3/8co/4ao+M3/RWvG//AIUF3/8AHKAKX/DOPxZ/6Jf4z/8ACfu//jdH/DOPxZ/6Jf4z/wDCfu//AI3V3/hqj4zf9Fa8b/8AhQXf/wAco/4ao+M3/RWvG/8A4UF3/wDHKAKX/DOPxZ/6Jf4z/wDCfu//AI3R/wAM4/Fn/ol/jP8A8J+7/wDjdXf+GqPjN/0Vrxv/AOFBd/8Axyj/AIao+M3/AEVrxv8A+FBd/wDxygCl/wAM4/Fn/ol/jP8A8J+7/wDjdH/DOPxZ/wCiX+M//Cfu/wD43V3/AIao+M3/AEVrxv8A+FBd/wDxyj/hqj4zf9Fa8b/+FBd//HKAKX/DOPxZ/wCiX+M//Cfu/wD43R/wzj8Wf+iX+M//AAn7v/43V3/hqj4zf9Fa8b/+FBd//HKP+GqPjN/0Vrxv/wCFBd//ABygCl/wzj8Wf+iX+M//AAn7v/43R/wzj8Wf+iX+M/8Awn7v/wCN1d/4ao+M3/RWvG//AIUF3/8AHKP+GqPjN/0Vrxv/AOFBd/8AxygCl/wzj8Wf+iX+M/8Awn7v/wCN0f8ADOPxZ/6Jf4z/APCfu/8A43V3/hqj4zf9Fa8b/wDhQXf/AMco/wCGqPjN/wBFa8b/APhQXf8A8coApf8ADOPxZ/6Jf4z/APCfu/8A43R/wzl8Wf8Aol/jP/wn7v8A+N1d/wCGqPjN/wBFa8b/APhQXf8A8co/4ao+M/b4t+N//Cgu/wD45QBQb9nX4rxjJ+GHjID30C7/APjdUpvgf8SIMiX4e+Kkx/e0W5H/ALJW5/w1R8aBz/wtrxqfrr10383NW4v2vPjfDwnxZ8Yf8D1aR/5k0AcFe/D3xVpYZr3wtrVoq9TPp8yAfmtYUym3mEUqNDL12SDafyNe3WX7cPx709laH4reIm2/8/E6Sg+2GRhXR2//AAUC+KN9H9n8W2nhT4hWLcSWfibw9bTCQe7oqkHGeaAPmzvjv0pOoBHI9a+n11z9nb48R/Y9S0K6+BHimQbItW0uVr3QpHPTzYD88K5I5XgV5P8AGv4C+LfgRrkFp4it4rnTr1PN03XtPlE9hqMXaSKUcHjHyk5FAHnNFFFADokeSRFjRpXc7VijGWcnjC+/PH5d6+uZLq1/YT8B28VnHBdftAeJLETTXjoGHhSzkXKKgPS5kQqScZUE9M1xf7F/hXSV8WeIvil4otUvfC/w40z+3Jrd1yt3fFttnAR7yYbHfZivFPHHjTVviL4u1jxPr10b3WdVunurqY5wzsc/KOygFQB2AoAyr6+utSvJry8uZby7uG8ya4nkLyTMedzE9W5PJ9agoooAKKKKACiiigAooooAKKKKACiiigAooooAKKKKACiiigApCQuc8bevtS8+meC2MDOAMnBPAwMnPtX03+z/AP8ABPD4tfH3SbXWrOxt/C3hmdd0Oq66XjM8ZH344VG9gfXhT1zQB8yD5sgckcGjocHr6V9ZfFX9gVPhf4qh8I3nxj8GJ4xngW6i0fVhcaesquSFCXLo8YyUwAzL354r5y+IPwz8TfCfxLP4f8WaNcaJq0QV/JmAKyxsflkidcrIjdmBwaAOaopP/wBdLQAmcdeKKM9s85xjGT9K7GP4N+PpNHOqp4G8RHSwnmfbBpVx5e3Gd27ZjbgE5oA4+ijBG7cMFTgg9jRg+lABRQPmDEchTg+x9Kms7O41C8t7W1ga5uriRYoYEUs0rsQoUDuSSKAIenXiiun+Inwv8V/CLxB/YXjLQrzw9rHkrcfZb5RvMbZ2tuX5WHBHHTBFcvuBUkEYHU0ALR14HJo9PfpScFtpxn3zx70ALzwaK6W6+Gfimz8B2vjW40K8h8KXU5tYNXkjAgeUZygYd+D+Vczu+XkY9zQAtFKAeD0z096vadoOrawrPYaTfX6L1a1tXlA+u0GgChg+lFbf/CCeJu/hnWgMA/8AIMm79P4ap6l4d1XRY0k1DSb7T43O1Xu7SSFWOM4BYDJxQBQopM9Pc4FL0oAKKdHC9xIsccbyyMQqpGpLMScAADqc1Je6fdaZdPb3tpcWNymN0NzE0brkZGQRnpzQBDRSH9Bz/wDW/Hp+Ndf4++EfjP4Vx6S3i7w3feHl1a3F5Yi8QKJ4yASRt443LnPzDcOOaAORoALHAGTR0ODwaVVLkL03d8/5z/8AXoATpjPFFdLJ8NPFNv4Dg8anQrqLwnNcm0j1YxgW5nGf3ef73B4/+tXMj16bqAFoprOqKCzBR1yTTsEZyMYODQAlFKFZiFUEsTgBRkn2Aq1qOk3+jTLBqFjd6fMy71ivIGicjJGQGAOOD+VAFWil6e1W10XUH01tRXTbz+z1bYbzyH8kNnG3fjGcnpmgCnRR6e/Sj+IL/Ee3egAo7gdz0opY0aRwiKXLELtXqSTgD06460AJRXR+Ovhv4n+GGtR6T4r0K60DVJoFultrqPY7RNna4A4wcHn2Nc516c8ZoAKKCCpwRg0UAFFFFABRRRQAUUUUAFFFFABRRRQAUUUUAFFFFABRRRQAdxj73Y5IwenUdK99/Z7/AGgtO0TSZfhl8UIZvEPwi1h/KlhlO6bRJjwt3ak8ptJ5UHDBmPavAqN2znGf9nuT2A9Of0zQB6N8fPgpqfwH+Id14evbhdT06aOO90jWIB+51Gylz5U6ducYOO4rzmvqPwvcD9oT9kLxF4cuyLjxl8KN2s6RcYLSS6NIQLyDPVhExDj0yDXy9tf+8v50AfSUjDwP/wAE+rcxEpeeOvGridl+UtaWMHyp7jzXz9a+al4yPTGPy/8ArV9IfFJvtX7CvwKki4S28Q+IoJl/6aNLE65/4BXzeO9AC0UUUAFFFFABRRRQAUUUUAFFFFABRRRQAUUUUAFFFFABR1wM4BIz9MiijOO+P/10AfVn/BN/9nOx+P8A8djPr1qLnw34at01S8tHBKXMxcCGFv8AZz8xHfy8V+4NnCLaFIVTakabVwgUBewwOPwHQCvy+/4Iu+ILK31/4o6HIVTUbiCxvIlbG7y42lRwPXBlTP1HrX6lsRtPPagD8X/+CuwLftTWwGMnw5aDn/rtcZ/TNedfBPXJf2gvh5rPwZ8SM2papYWF1q3gfUbg77izuIIzLNYeYfmMM8ayAA52sFx0r0b/AIK5/wDJ1Fqe3/COWh/8i3FeQfsNQPH+054S1dhtsNCS81i/lJwsdrBaStIW9iCF5/vj1oA8G3FuT1bk9jnJBGOwBz+dI2drEdVBPt0NS3MyzTySJwkjs6ZGCRuP5Y/rUa53DAyen58f1oA+y/8Agmb4B0XxF8QPHnijUNJh8Sar4R0NtQ0bSrhdySXJ3YcpkbyMDjn74I5wa5i9/wCCkv7QA8YS6r/wlUdjiYt/Yr6fCtvEFbmIoY9wxjk53epJxXiPwg+MHiz4H+NLXxV4N1KTT9ThXymbYHinQEEpKh4KnA/Livqxf26vhH8X5IV+NHwA0jUb6cstxr3hsmG4kYgjcASkhOTyDL347CgDgv2hPFngj9r74qfD64+H2lx+FvHXiFRY69DfJ9lsDfEgCRXVnyNxZc4BOEJxkZ8D+JPwx1z4XfELWfBOtwQtrumXf2KZISGjkk4wUIXkEMD83PIr6E/a0+APhn4Dy/Dz4q/CjWLq/wDBXibZe6Wbpi89rNEVk2bz8zDBwAeQVYEmvc/iZ8LbH4z/ALdPwY8ZwxRv4d8Y6LaeJ71lwE22kZa4yenOxAfqKAPjT9oD9mjxr+zbq2h2HjJLMXGrWZu7WWzmaUBA2CpJUYYZHy8jke1I3wL8aeDfhz4E+KCXVnpdl4j1JbfQ9lyVvfORuJdioAFyBk7uh6HNfTv7SXj64/a8/Zj1Lxsg+3a14N8c3FhGFX5hp92xEHTsDsx2rD/bc1CHwj46+B3wjsn/ANF8FaTp/wBpjU8G7mkRnOPXAH/fQ9aAM3xt8BfjL8Vv2sYvDXxO8W+HdR8W6XaWl9PcalfiK1az8xQI4sRhSx3HK7RnPfrXbf8ABR79k6bw5421/wAfeHE8JaD4V0/TbQf2FZXUdrel8BGZLZFAOSd2RnOCcVz/APwUaj3ft2WG5SwEOkN6YPTr261gf8FVlRv2uNVwFVho9jvbHH3DyRxwO/59qAPN/gT+xr8RPj5o13r+iw6bo3ha3by5de167FpaOwOPlJUljnI3AEcEdcVP8b/2MfiP8DPDMfiXUV0rxF4UlkC/2z4evjd2sbZwFbhdv+8VxnAzk4Ps3/BRS+n8D+Bfgf8ADXSXax8H2/heG9+yxOUjuLhwFZ3AGHYYY4Pdz618z/D/APaA8Y/DHwJ4r8H6TqEP/CNeJ4jBqWm3VukyFQpBaJT/AKt8EnIOcgUAfXmi/CvxL8Yv+Cb3wz8M+FLD7fqlz4tuJQXYJFbopmLSyOSAiKOrds14z8QP+CePxT8E+Ab7xhZ3vhzxlpOnxebff8IzqpuZrdVALlhs+baBztY8c4wMj1HXPF2r+Ff+CTnhe10u6ksE1bxHcWdz5MhjMkIlmYx5X+Fii5we1YX/AASl1a4g+PXiLQfMaTSNV8OXYu7M58ufZt2l1JI3YJH0oA+L/M3MxB2uTuOzg9sfQ1678Fv2svih+z1pepad4D8RJotnfzrcXKNYwXBkkAxn96jY4J4GPrXlmrQi31S9iUsUjuJEUn0DEfyA/WqdAH6k2v7Y/wAWpP8Agnnc/FI+JYv+E3i8UHTl1A6dbbPI3DjytuzoTzjPH1r448YfHj45fto6joPgLVL6Txhdm8abT9Ps9Pt7crIEKs7MijgKWyW4Gee1evWCFv8AgkneqBlv+E15HfG9c/pmov8Agnqw8I/C39oL4g6cqv4l0Lw/5enTbcvBvWUu6ehJVOfY0AYE3/BMP4spbyQ22teC77xEkJd/DsGu7r7A5K7dgXjB43bcivlbxJ4a1Twdr19omt2FxpWr2MpgubO6QJIjjqGHb2xwQadpnjDWdD8UW3iiy1K6j16G5W9TUBIxmMgIZWYlu+cY75avrv8A4Kh6bbzfEz4feKBBHa6r4k8KWt7qUSggmYEgOcjrhtp/3BQB8u/CD/krPgrjP/E6s+PX98nftXv/APwU+5/bJ8XEsWP2SwHzD/p2TpwMV4D8H/8AkrXgr/sNWf8A6OSvff8Agp+f+MyvFvP/AC62P/pMlAHymWKAsM5HPy//AKxX0H+1jp/xg0mH4dp8V/Elvr4utDjutCW2kVlhtWA2hlWNfnIxzknjr1r58dSUcY5xX6S/tJaDp/ib9ob9kHSdWVZNMutE0uO5ickLIu9DsOOzEAfjQB89eDv+CdXxY8T+DbTxDqc/h3wVZ6gm+wt/FGpGzuLjoQAgDEFh0yQeR2Ncl4y/Yz+JXw/8D+L/ABZ4h02x02w8L3kNrexyXG6aZZGQRyxEDEsbB8hw3bGOuOi/4KJeLNb8VftY+NbHV5JprXR547Cws3+VI7dURh5a9PmLFsn25r1/wX4u1/xT/wAEqfiFY6zPNeWuj6vBY6fNMxYiP7RAzRqSckKxIHtQBb8IfC7xJ8YP+Cavg7wv4X07+1dYuvGsp2ZEccaKXLSSOSBGiquS3bFeRePP+Cd/xS8G+BNQ8WadfeG/GVjp0PnXqeGtTNzPbKoJYsuwbtuD0J9ccEj0seMdW8K/8Em7GHSr6XTzqvimeyupIXKs8DOzOnHODtH6Vz//AASl1a6tf2kr3RYpHOl6toV5Hd2YJMdxsCsu4EkE4OM/WgDtP+CbX7L8HjKHxJ4x16Lwnrmh6pot1aWen30sc93BPv2rK8bR/uxgMd+c/ma+TPjt8Bdd+Aetabp+vavoOrT6lA11G2gagLuNFDbcMQgCk8HGa+l/+CatpFb/ABq+L6oAscPhnUY0yBkKJxgDqvTb26g18OzKFml2rs+dsjAz1PXHGeD3oA3vh2/l/EDww3OBqdsTjr/rV6HIxX6Yf8FXPh7pvxC8Gv4x0f8A0jXPAl3Hputx7fnW1uFDxtx2DMOT6n0r8zfh/wD8j74ZPHGqWpyxwB++XrX6eeNfG2nv/wAFCPiP8K/Ekuzwr8RvD9tpMyyEEQ3Its28gB/j4cfUrQB+WGj6Tda/rFjpmnwNc6hfTxWtvCozuld9igeu4kDj1r9Wf2pvCeg/DH/gnfrXw40S4W4ufCb6XYam68j7VJJHM5JAySfOP0yBXzF+xz8Dz4A/aG8b+JPHFqsWjfCNLm+vTICFN5GWWFRng5IVx+HrXRL49v8A4m/8E/vjt4r1iUy6jrPji3u5tx5XdJBwPTaOAPagD5y+An7LPxA/aQk1CTwlp1vDpNiQL3WtUufs1lAf7ryjJYgYO1QTg8jFdr8Uv2Bfid8MfBt34rhm0Lxn4btBm9uPCuo/ahbDuZIwoOB1+UYx1Ir0/wDaH1C5+Hn/AAT3+BHhrQpWsdO8Um5vtYmhwv2qRQTtkI5I/eYx/sD0rlf+CYfirUdJ/ae03w1DvbQ/EVndWepaZ1gmUQlwXToD8g59D70AfOnwt+FPin4zeMbPwv4O0ptX1m6LCOJCBGirjMjsf9WmDyT6ivffFP8AwTt+KPgW1fUre78MeKrjSwtxf6RoGqrcX9pGDlmaF1BcDB5Unp0xkj2P9nnSofg78IP2vfFPhshNb0OeXRtOvFG57e33yDcD25Izj+4PSvh34c+ONd8E/EbRPE+jX1xDrVnfxzC4WVi8rbwSjZPzBgSCDxhqAPpz/gqb/wAnEaKAcj/hFtPPC88mXqMcH6YPNc54H/4Jz/FXxX4Zsdc1K78NeCYNQXzLO18TakbW5l9CsYVzzz97Br6O/aY8Pad48/4Kb/CHT9Vt45bO8sdPuZbeVcq7K00gT2BKKD+Nct+1t8HvAHxY+P3inWPFX7THhrR9Qhuvs8Wh31jKz6ZHH8qwDDDkFSWwM5HvQB8afGb4H+M/gF4ubw5400VtJvmTzYXVlkguUzjzIpF4ZfXPIP41wfUAjoea+5P2sPE3w+vv2SfAXhSz+K+j/E3xx4T1Dyor6xDrMbJ1cBCrdVXEYznPH1r4a2heg56E59Cf8aAFooooAKKKKACiiigAooooAKKKKACiiigAooooAKKKKACj2zgHviik6DJ6UAfQv7BOtRWP7TvhnSL0b9K8Uw3Xh6/gJ+WWK5gdACP9/Yfwqx/wxv4j/wBr/vg1yv7HdvLP+1X8JliyHHiSyfp/CJQzfoDX6c/8LA8Lett/38X/ABoA/PjwCjfEz9h34ieGoV87VPAuu2viy2hxlvsk8Rt7jb3wp2OfQHJr5rbAOBxgt/PA/lXrX7Lvxgtvgv8AFzT9T1eFr7wpqkMmka/ZYytxp8w2y5XuyD94B6oB3qn+0X8Frj4G/Ee60gTNf+HruNdQ0DVusd/p8g3RTKw4zjhh2IoA8xoo6cHg0UAFFFFABRRRQAUUUUAFFFFABRRRQAUUUUAFFFFABRx/F070UUAek/s8/HLXP2dvixo/jbQwss1q/lXdm7fu7y3fiSJvTI6H+Fgp7V+5vwA/aa8AftEeG4NR8J65byXzoGudIupFW8tnAwQ8edxx03Dg8etfz08HIPI9PX8e1S2t1cWF0lxa3EtvcxncJopSjqexBHf3HPvQB+jv/BSj9nL4j/F79py01Pwv4ZurjRo9AtYptdunS3sLZlmm3F55MIu0MCec8ivmXxd4k8K/s9/DrXvh94I1q28VeN/ESLa+KfFWnMTY21qGDDTrJjzICwUyTHhsYGRmvD9X8aeI/EFutvq3iDVtVgXpHfX00yj3AaQ8/wCJrHx8o56cAdKADA2jBwf7vbGBj+tGAe+D2Pp2z+RoooA+hv2Qv2gvC/wjvPFPhn4g6JJq/gHxdZrZ6l9mVWubMqCEliPU9SSoPoecYPpTfsu/ssXE39rW37S/k6BkynT5NMxfBRglRgBi2MgHy+uOD1Hxfz2pFUM3QA+tAH0x+2J+0R4V+Jmn+DfAHw3s7mz+HngyFoLGa+BEt3I3ytKV64wM87fvHj09V+F/7XPgfw3+xXdaNqV6R8V9E0zUPD2gxtBMWNpdOmWDqNiYUnGTnj618J0UAfVP7Anxq8DfDHxZ4t0D4n3S2vgbxFYRmdpIJJl+020wkhP7oFxnDduy15b8ZvivH8Uv2lNf8dTXDfYL7XluEkYMdtrHKBEQME8Rr6ZxxXlFFAH01+3Z8Z/CvxQ/aiXxp4J1Jdb0e3trHy7lLZog0kXLALKqsMEfjxXd/tmeN/gf+0np1x8VtD8d3ulePhptvat4NudMlPnyqQhImxtUKpJznnZ718VUUAfauh/F/wCEP7UXwX8J+BfjH4kvPAPjPwjAbHS/FkVo91BdWnRY5UX0ULkEjJQHPNYvi7WP2fPgD8JfE3hjwNqMHxj8eeIkWA+INQ0nybTSITwxhEi53lf7uTn+IdD8iD6ZpT9MUAfUHif4xeD9R/4J9eDvhzBrO7xlZeIZL660z7PJujiJlw5kK7D95eA2eenHFP8A4J//ABc8KfBn48T+IPGerjRdIfR7yz+0tbyTK0jlQilEUkg4J6Y4r5qooAtapMlxqV5LGd8UkzsjccruYg/dB5B6dqq8cgjI9PXHOP070UUAfU0Hxl8Gr/wTrvPhm2sr/wAJq/ihtQTS/sso/cllO/eBs4xjrn9a5T9kH9pG1/Z88dayPEFjLq/grxNZNpmt2kYzIYmJAkQeq5xj0Y14JRQB9m2nwg/ZJ0PW18XSfGnUtX8PxS/a18ILo0gvZRnIt2kxjHGM14r+1h+0LL+0t8XrrxTHZPpejQQJYaXp7NkwW8ecZ92JLfjivHNoHNFAHQ/DnVrbQfiH4X1O8lEFpZ6nbzzSsCQiLICxIAJOAD0Ga+7f2jrH9lb9o34vap48vv2gb3Q7jUIoYWs7Xw7dSRoIowg+Zos5OPpX544zRtA96APefjt8LfgZ4N8Gw3vw2+L9549157hUfTbvRJLZViKsWk3OgGQQox1+b2rt/wBsr45eG/iTrHwUuvh7rT6pqXhvw7a2crRW0qSQXkZVgg3oCTlf4Aa+T+OwqS3uJrO4huLeV4J4XWSOWJirowOQVPY5HfigD7g+I3x++BPxsmtdR+PPw08Z+HviXb26RXcuhBYRfgDapkSbZtyMDOzOMEHtXc6/8S9H8ef8E3Pif/wjfhaLwb4L07WbPT9D0/zDJNLEs0DtJLKeZJWbeTn7uMdq8ej/AG9tG8caPpkXxf8Agt4X+JmuadCsEWuTStaXMyLwvm4R92O/zAHrivPf2gv2vNd+Onh3S/CVl4f0rwL4C0txJaeHNEXETyDP7yRsDcRk/wAKDnoeoAOl1b4xeEbj/gnzo/w4i1j/AIrS38UPqEumi3kGyFi3z78bCBkDAOefQGqH/BP/AOLXhX4M/tCxeJPGWqLo+i/2VeW5uXt5JlEjIgVdkak8kHt2r5v45Od3QAng9yf1NFAH07+xj+0J4X+Bfx88S6t4oM58K+ILW7024uLOLe0SSSh0kxtDEYHIHIz0rzb9oTwX8NvBniaxj+GXj2Xx7o93A8801xp8lq9k5c7YfnAZvlwScda8rooA1/Bt/BpXi7Q765fy7e1voJpHxnCrIpY/kD0r3j9tj40aJ8QP2qtR8eeAdabU9PVLKS0vUgkhHmwopPyyANgMo68HFfOFFAH3t+15+2N4D+I3wFj0zwE623i/xxLa3njTy4JYvLaGBVEZLAK+WUD5SRgZ715F4J+LnhPSf2E/iJ8P7rVxF4v1TxBa3llpfkyESwI0RLbwPLGNrnBPOBXzNRQB9f8Awb+OPww+KH7Ptp8EPjRf33hm30e6a58OeLbK3Nz9j3bi0cqgE4+dx0KnI7gV1Xgnxr8Bf2LYdX8T+CPHd38XviZdWMtjpTR2MlpZ2HmDBdmfgnpySccjivhYfTNKfpigD6T/AGSP2n9M+FvirxjpnxCtbjVvA/juAwa4ITuljdmcicDuRvcEDBwQa7AeB/2Wfg5r9p41tPijqnxMSynF3pfg+DSWty0mQUW5mZdojVguQACcDrya+O+O9HHYUAfXH7ZX7S2jeLv2qPCvxM+HOsJqX9jafYOkyRSwRrcRSSM0e2RFYKA2M9DnuOD1nxEX9mb9q7xI3xEvPiTe/CHxLqAV9b0W90qS7ikmCgF4XUdwPfJycDv8N0bd3WgD3P8AaL1z4LW2laD4T+EOj3V8umMz6j4z1MSR3OpuRgKsZYBU5J+4DwvPXPhlFFABRRRQAUUUUAFFFFABRRRQAUUUUAFFFFABRRRQAUUUUAFIzbRk9KWnwQvcTJHEjSyswVY4xl3J6Kvueg+tAH0h+wnp6eH/AIo6/wDEm9QLpfw90C+1uRpOj3BiaG3Qe5kk+Udyhx0rxb/hZ3i7/oOn/vuve/jJGn7Nf7POlfB+NxH8QPFckPiDxoYjzZRhf9DsT3ztw7r2PXrXy35ae1ACcFSDnkduP88V9I/B/wCL/hX4ieAbf4PfF+8kstDgkZvC3jFRul8PXDkZjb+JrVjjI7Zr5uo3FWBGffacH8+1AHpPxu/Z/wDGHwE14WPiOzWXTroebp+uWDebYajD1WWKRcqQQThSdwHUV5t1UkdB1PpXsHwh/ao8bfCHRn8Oxtp/ivwVMxM/hPxLa/bNOOeu2NuYjjPKHvXbv4y/Zf8AiK3na74F8YfDDVG6y+FL6LULJSe4iuMMo9FXpQB80YOAccHvRzX0h/wpn9nHVsyaf+0NqGmMekWteDJ9/wCLxuV/IUyX9nL4Qsu6D9prwxyePP0O/iOPyYUAfOVGD6V9EN+zL8OJOYv2lvALD/ptaXq/+06b/wAMv/D/ALftLfDv/vxe/wDxugD552n0o2n0r6G/4Zg8Af8ARy3w7/78Xv8A8bo/4Zg8Af8ARy3w7/78Xv8A8boA+edp9KNp9K+hv+GYPAH/AEct8O/+/F7/APG6P+GYPAH/AEct8O/+/F7/APG6APnnafSjafSvob/hmDwB/wBHLfDv/vxe/wDxuj/hmDwB/wBHLfDv/vxe/wDxugD552n0o2n0r6G/4Zg8Af8ARy3w7/78Xv8A8bo/4Zg8Af8ARy3w7/78Xv8A8boA+edp9KNp9K+hv+GYPAH/AEct8O/+/F7/APG6P+GYPAH/AEct8O/+/F7/APG6APnnafSjafSvob/hmDwB/wBHLfDv/vxe/wDxuj/hmDwB/wBHLfDv/vxe/wDxugD552n0o2n0r6G/4Zg8Af8ARy3w7/78Xv8A8bo/4Zg8Af8ARy3w7/78Xv8A8boA+edp9KNp9K+hv+GYPAH/AEct8O/+/F7/APG6P+GYPAH/AEct8O/+/F7/APG6APnnafSjafSvob/hmDwB/wBHLfDv/vxe/wDxuj/hmDwB/wBHLfDv/vxe/wDxugD552n0o2n0r6G/4Zg8Af8ARy3w7/78Xv8A8bo/4Zg8Af8ARy3w7/78Xv8A8boA+edp9KNp9K+hv+GYPAH/AEct8O/+/F7/APG6P+GYPAH/AEct8O/+/F7/APG6APnnafSjafSvob/hmDwB/wBHLfDv/vxe/wDxuj/hmDwB/wBHLfDv/vxe/wDxugD552n0o2n0r6G/4Zg8Af8ARy3w7/78Xv8A8bo/4Zg8Af8ARy3w7/78Xv8A8boA+edp9KNp9K+hv+GYPAH/AEct8O/+/F7/APG6P+GYPAH/AEct8O/+/F7/APG6APnnafSjafSvob/hmDwB/wBHLfDv/vxe/wDxuj/hmDwB/wBHLfDv/vxe/wDxugD552n0o2n0r6G/4Zg8Af8ARy3w7/78Xv8A8bo/4Zg8Af8ARy3w7/78Xv8A8boA+edp9KNp9K+hv+GYPAH/AEct8O/+/F7/APG6P+GYPAH/AEct8O/+/F7/APG6APnnafSjafSvob/hmDwB/wBHLfDv/vxe/wDxuj/hmDwB/wBHLfDv/vxe/wDxugD552n0o2n0r6G/4Zg8Af8ARy3w7/78Xv8A8bo/4Zg8Af8ARy3w7/78Xv8A8boA+edp9KNp9K+hv+GYPAH/AEct8O/+/F7/APG6P+GYPAH/AEct8O/+/F7/APG6APnnafSjafSvob/hmDwB/wBHLfDv/vxe/wDxuj/hmDwB/wBHLfDv/vxe/wDxugD552n0o2n0r6G/4Zg8Af8ARy3w7/78Xv8A8bo/4Zg8Af8ARy3w7/78Xv8A8boA+edp9KNp9K+hv+GYPAH/AEct8O/+/F7/APG6P+GYPAH/AEct8O/+/F7/APG6APnnafSjafSvob/hmDwB/wBHLfDv/vxe/wDxuj/hmDwB/wBHLfDv/vxe/wDxugD552n0o2n0r6G/4Zg8Af8ARy3w7/78Xv8A8bo/4Zg8Af8ARy3w7/78Xv8A8boA+edp9KNp9K+hv+GYPAH/AEct8O/+/F7/APG6P+GYPAH/AEct8O/+/F7/APG6APnnafSjafSvob/hmDwB/wBHLfDv/vxe/wDxuj/hmDwB/wBHLfDv/vxe/wDxugD552n0o2n0r6G/4Zg8Af8ARy3w7/78Xv8A8bo/4Zg8Af8ARy3w7/78Xv8A8boA+edp9KNp9K+hv+GYPAH/AEct8O/+/F7/APG6P+GYPAH/AEct8O/+/F7/APG6APnnafSjafSvob/hmDwB/wBHLfDv/vxe/wDxuj/hmDwB/wBHLfDv/vxe/wDxugD552n0o2n0r6G/4Zg8Af8ARy3w7/78Xv8A8bo/4Zg8Af8ARy3w7/78Xv8A8boA+edp9KNp9K+hv+GYPAH/AEct8O/+/F7/APG6P+GYPAH/AEct8O/+/F7/APG6APnnafSjafSvob/hmDwB/wBHLfDv/vxe/wDxuj/hmDwB/wBHLfDv/vxe/wDxugD552n0o2n0r6G/4Zg8Af8ARy3w7/78Xv8A8bo/4Zg8Af8ARy3w7/78Xv8A8boA+edp9KMH0r6G/wCGYPAH/Ry3w7/78Xv/AMbo/wCGYPh/3/aV+HZ/7YXv/wAboA+eaK+h/wDhmP4eryf2lvh6B/s216T/AOi6lj/Zt+Fa8TftMeDge5h0u/f+UYoA+cyCMZGM9KK+kV+AXwGsstf/ALS9lIB97+zfCV9M/wCH3c/n+FOXRf2UfB+ZbrxJ8RviLMgyIdP0+30mCX2LOfMWgD530nR77xBqdtpmm2U+o6hduIoLO2iaSWVyeAqAfMc4OPavq3RfBeifsQabbeLfHSWevfGeWMTaF4N3rcQ6Ezf8vd6R1kHDLF2OPSubvv2zP+EH0q50j4KeBNI+FNrOhjl1mAm81udT1/0qQfu88Z2jtXzlqGoXWrahc3t9cS3t9cP5k1zO5eSRj1LMTlifU0AW/E3iXVPGXiLUtc1u9k1LV9QuHnurydt0kjsc5z07npwOB2rNoooAKKKKACiiigBKAfTn8KKKAFbLdv5U3b7fyoooANvt/Kjb7fyoooANvt/Kjb7fyoooANvt/Kjb7fyoooANvt/Kjb7fyoooANvt/Kjb7fyoooANvt/Kjb7fyoooANvt/Kjb7fyoooANvt/Kjb7fyoooANvt/Kjb7fyoooANvt/Kjb7fyoooANvt/Kjb7fyoooANvt/Kjb7fyoooANvt/Kjb7fyoooANvt/Kjb7fyoooANvt/Kjb7fyoooANvt/Kjb7fyoooANvt/Kjb7fyoooANvt/Kjb7fyoooANvt/Kjb7fyoooANvt/Kjb7fyoooANvt/Kjb7fyoooANvt/Kjb7fyoooANvt/Kjb7fyoooANvt/Kjb7fyoooANvt/Kjb7fyoooANvt/Kjb7fyoooANvt/Kjb7fyoooANvt/Kjb7fyoooANvt/Kjb7fyoooANvt/Kjb7fyoooANvt/Kjb7fyoooANvt/Kjb7fyoooANvt/Kjb7fyoooANvt/Kjb7fyoooANvt/Kjb7fyoooAVVK9v5Upz3GPyoooAT/PSloooAKKKKACiiigD/9k=;" parent="1" vertex="1">
          <mxGeometry x="59.07" y="1470" width="300" height="30" as="geometry" />
        </mxCell>
        <mxCell id="B-a2a9shKmNj-c3Yx6AL-7" value="" style="ellipse;whiteSpace=wrap;html=1;fillColor=#000000;" vertex="1" parent="1">
          <mxGeometry x="520" y="160" width="20" height="20" as="geometry" />
        </mxCell>
        <mxCell id="B-a2a9shKmNj-c3Yx6AL-8" value="" style="ellipse;whiteSpace=wrap;html=1;fillColor=#FF3333;" vertex="1" parent="1">
          <mxGeometry x="527.5" y="162" width="5" height="4" as="geometry" />
        </mxCell>
        <mxCell id="B-a2a9shKmNj-c3Yx6AL-9" value="" style="ellipse;whiteSpace=wrap;html=1;fillColor=#FF3333;" vertex="1" parent="1">
          <mxGeometry x="527.5" y="168" width="5" height="4" as="geometry" />
        </mxCell>
        <mxCell id="B-a2a9shKmNj-c3Yx6AL-10" value="" style="ellipse;whiteSpace=wrap;html=1;fillColor=#FF3333;" vertex="1" parent="1">
          <mxGeometry x="527.5" y="174" width="5" height="4" as="geometry" />
        </mxCell>
        <mxCell id="B-a2a9shKmNj-c3Yx6AL-21" value="" style="ellipse;whiteSpace=wrap;html=1;fillColor=#000000;" vertex="1" parent="1">
          <mxGeometry x="675" y="160" width="20" height="20" as="geometry" />
        </mxCell>
        <mxCell id="B-a2a9shKmNj-c3Yx6AL-22" value="" style="ellipse;whiteSpace=wrap;html=1;fillColor=#009900;" vertex="1" parent="1">
          <mxGeometry x="682.5" y="162" width="5" height="4" as="geometry" />
        </mxCell>
        <mxCell id="B-a2a9shKmNj-c3Yx6AL-23" value="" style="ellipse;whiteSpace=wrap;html=1;fillColor=#009900;" vertex="1" parent="1">
          <mxGeometry x="682.5" y="168" width="5" height="4" as="geometry" />
        </mxCell>
        <mxCell id="B-a2a9shKmNj-c3Yx6AL-24" value="" style="ellipse;whiteSpace=wrap;html=1;fillColor=#009900;" vertex="1" parent="1">
          <mxGeometry x="682.5" y="174" width="5" height="4" as="geometry" />
        </mxCell>
        <mxCell id="B-a2a9shKmNj-c3Yx6AL-27" value="" style="ellipse;whiteSpace=wrap;html=1;fillColor=#000000;" vertex="1" parent="1">
          <mxGeometry x="675" y="300" width="20" height="20" as="geometry" />
        </mxCell>
        <mxCell id="B-a2a9shKmNj-c3Yx6AL-28" value="" style="ellipse;whiteSpace=wrap;html=1;fillColor=#00CCCC;" vertex="1" parent="1">
          <mxGeometry x="682.5" y="302" width="5" height="4" as="geometry" />
        </mxCell>
        <mxCell id="B-a2a9shKmNj-c3Yx6AL-29" value="" style="ellipse;whiteSpace=wrap;html=1;fillColor=#00CCCC;" vertex="1" parent="1">
          <mxGeometry x="682.5" y="308" width="5" height="4" as="geometry" />
        </mxCell>
        <mxCell id="B-a2a9shKmNj-c3Yx6AL-30" value="" style="ellipse;whiteSpace=wrap;html=1;fillColor=#00CCCC;" vertex="1" parent="1">
          <mxGeometry x="682.5" y="314" width="5" height="4" as="geometry" />
        </mxCell>
        <mxCell id="B-a2a9shKmNj-c3Yx6AL-42" value="" style="ellipse;whiteSpace=wrap;html=1;fillColor=#000000;" vertex="1" parent="1">
          <mxGeometry x="517.72" y="300" width="20" height="20" as="geometry" />
        </mxCell>
        <mxCell id="B-a2a9shKmNj-c3Yx6AL-43" value="" style="ellipse;whiteSpace=wrap;html=1;fillColor=#CC00CC;" vertex="1" parent="1">
          <mxGeometry x="525.22" y="302" width="5" height="4" as="geometry" />
        </mxCell>
        <mxCell id="B-a2a9shKmNj-c3Yx6AL-44" value="" style="ellipse;whiteSpace=wrap;html=1;fillColor=#CC00CC;" vertex="1" parent="1">
          <mxGeometry x="525.22" y="308" width="5" height="4" as="geometry" />
        </mxCell>
        <mxCell id="B-a2a9shKmNj-c3Yx6AL-45" value="" style="ellipse;whiteSpace=wrap;html=1;fillColor=#CC00CC;" vertex="1" parent="1">
          <mxGeometry x="525.22" y="314" width="5" height="4" as="geometry" />
        </mxCell>
      </root>
    </mxGraphModel>
  </diagram>
</mxfile>
